<svg xmlns="http://www.w3.org/2000/svg" fill="none" viewBox="0 0 14 14" id="Account-Circle-Add--Streamline-Flex">
  <desc>
    Account Circle Add Streamline Icon: https://streamlinehq.com
  </desc>
  <g id="account-circle-add--account-circle-add-plus-new-user-follow-friend-avatar">
    <path id="Union" fill="currentColor" fill-rule="evenodd" d="M11.7344 0.75c0 -0.414214 -0.3358 -0.75 -0.75 -0.75s-0.75 0.335786 -0.75 0.75v1.51562H8.71875c-0.41421 0 -0.75 0.33579 -0.75 0.75 0 0.41422 0.33579 0.75 0.75 0.75h1.51565v1.51563c0 0.41421 0.3358 0.75 0.75 0.75s0.75 -0.33579 0.75 -0.75V3.76562H13.25c0.4142 0 0.75 -0.33578 0.75 -0.75 0 -0.41421 -0.3358 -0.75 -0.75 -0.75h-1.5156V0.75ZM6.71875 3.01562c0 -0.38926 0.11121 -0.75254 0.30358 -1.05982 -0.31201 -0.03293 -0.63726 -0.04955 -0.97545 -0.04955C2.17687 1.90625 0 4.08313 0 7.95312 0 11.8231 2.17687 14 6.04688 14c3.86999 0 6.04692 -2.1769 6.04692 -6.04688 0 -0.33818 -0.0167 -0.66344 -0.0496 -0.97544 -0.3073 0.19237 -0.6706 0.30357 -1.0598 0.30357 -1.10458 0 -2.00001 -0.89543 -2.00001 -2v-0.26563h-0.26564c-1.10457 0 -2 -0.89543 -2 -2Zm2.47002 8.84948c-0.22003 -0.41 -0.51978 -0.7759 -0.88525 -1.0747 -0.6368 -0.5205 -1.43397 -0.80479 -2.25643 -0.80479s-1.61963 0.28429 -2.25644 0.80479c-0.36551 0.2988 -0.6653 0.6648 -0.88533 1.0749 0.71906 0.5169 1.7417 0.8391 3.14162 0.8391 1.40006 0 2.42276 -0.3223 3.14183 -0.8393ZM8.08124 6.95786c0 1.3024 -0.7326 2.035 -2.035 2.035 -1.30241 0 -2.03501 -0.7326 -2.03501 -2.035 0 -1.30241 0.7326 -2.03501 2.03501 -2.03501 1.3024 0 2.035 0.7326 2.035 2.03501Z" clip-rule="evenodd" stroke-width="1"></path>
  </g>
</svg>