<svg xmlns="http://www.w3.org/2000/svg" fill="none" viewBox="0 0 14 14" id="Upload-Upscale-Image--Streamline-Flex">
  <desc>
    Upload Upscale Image Streamline Icon: https://streamlinehq.com
  </desc>
  <g id="upload-upscale-image">
    <path id="Union" fill="currentColor" fill-rule="evenodd" d="M5.75 0C4.65637 0 3.59194 0.112934 2.5842 0.228827 1.3457 0.371258 0.354849 1.36058 0.217247 2.60189 0.105986 3.60557 0 4.66332 0 5.75c0 1.08668 0.105986 2.14443 0.217247 3.14811C0.354849 10.1394 1.3457 11.1287 2.5842 11.2712c1.00774 0.1159 2.07217 0.2288 3.1658 0.2288 0.85295 0 1.68814 -0.0687 2.49253 -0.1539 -0.30193 -0.4341 -0.40358 -0.9712 -0.29079 -1.47785C7.21586 9.94401 6.48579 10 5.74996 10c-0.9991 0 -1.9876 -0.10322 -2.99442 -0.21901 -0.54702 -0.0629 -0.98732 -0.50561 -1.04747 -1.04814 -0.10952 -0.98806 -0.2058 -1.96264 -0.20807 -2.94733 0.55687 -0.422 1.19223 -0.7214 1.8775 -0.7214 0.73497 0 1.41253 0.34441 1.99742 0.81509 0.58843 0.47354 1.12703 1.10965 1.59536 1.77862 0.41892 0.59837 0.79259 1.23898 1.10434 1.84297 0.00832 -0.01832 0.01695 -0.03655 0.02589 -0.05468 0.53722 -1.08888 1.54687 -2.11448 2.63039 -2.66356 0.2365 -0.11984 0.4921 -0.18648 0.7498 -0.19993 0.0123 -0.27534 0.0193 -0.55303 0.0193 -0.83263 0 -1.08668 -0.106 -2.14443 -0.2172 -3.14811 -0.1376 -1.24131 -1.1285 -2.230632 -2.367 -2.373063C7.90806 0.112934 6.84363 0 5.75 0Zm2.18409 2.30095c-0.44391 0 -0.82601 0.12562 -1.0969 0.39651 -0.27089 0.27089 -0.39652 0.653 -0.39652 1.09691s0.12563 0.82601 0.39652 1.0969c0.27089 0.27089 0.65299 0.39651 1.0969 0.39651 0.44392 0 0.82602 -0.12562 1.09691 -0.39651 0.27089 -0.27089 0.39652 -0.65299 0.39652 -1.0969s-0.12563 -0.82602 -0.39652 -1.09691c-0.27089 -0.27089 -0.65299 -0.39651 -1.09691 -0.39651Zm1.35768 8.36245c0.14969 0.1893 0.39497 0.2755 0.63016 0.2214 0.35047 -0.0805 0.69257 -0.1361 1.03147 -0.1668v2.657c0 0.3452 0.2798 0.625 0.625 0.625s0.625 -0.2798 0.625 -0.625v-2.657c0.339 0.0307 0.6811 0.0863 1.0316 0.1668 0.2352 0.0541 0.4805 -0.0321 0.6302 -0.2214 0.1497 -0.1893 0.177 -0.4478 0.0703 -0.66422 -0.4186 -0.84847 -1.2343 -1.67584 -2.0746 -2.10162 -0.1775 -0.08998 -0.3874 -0.08998 -0.565 0.00001 -0.8402 0.42578 -1.6558 1.25315 -2.07441 2.10161 -0.10677 0.21642 -0.07941 0.47492 0.07028 0.66422Z" clip-rule="evenodd" stroke-width="1"></path>
  </g>
</svg>