<svg xmlns="http://www.w3.org/2000/svg" fill="none" viewBox="0 0 14 14" id="Add-2--Streamline-Flex">
  <desc>
    Add 2 Streamline Icon: https://streamlinehq.com
  </desc>
  <g id="add-2--remove-bold-cross-buttons-button-add-plus-+-mathematics-math">
    <path id="Union" fill="currentColor" fill-rule="evenodd" d="M7 0c-0.34439 0 -0.6753 0.0489389 -0.98568 0.115803C4.83353 0.370174 4.04248 1.46009 3.9904 2.60661l-0.00441 0.09718c-0.01837 0.40419 -0.03699 0.81391 -0.05413 1.22807 -0.41412 0.01713 -0.82479 0.0358 -1.22894 0.05416l-0.09631 0.00438C1.46009 4.04248 0.370175 4.83353 0.115803 6.01432 0.0489386 6.3247 0 6.65561 0 7s0.0489383 0.6753 0.115802 0.98568C0.370173 9.16647 1.46009 9.95752 2.60661 10.0096l0.09725 0.0044c0.40416 0.0184 0.81387 0.037 1.228 0.0541 0.01714 0.4142 0.0358 0.8248 0.05417 1.229l0.00437 0.0963c0.05208 1.1465 0.84314 2.2364 2.02392 2.4908C6.3247 13.9511 6.65561 14 7 14s0.6753 -0.0489 0.98568 -0.1158c1.18079 -0.2544 1.97184 -1.3443 2.02392 -2.4908l0.0044 -0.0969c0.0184 -0.4043 0.037 -0.8141 0.0541 -1.2284 0.4142 -0.0171 0.8248 -0.0358 1.229 -0.0541l0.0963 -0.0044c1.1465 -0.05208 2.2364 -0.84313 2.4908 -2.02392C13.9511 7.6753 14 7.34439 14 7s-0.0489 -0.6753 -0.1158 -0.98568c-0.2544 -1.18079 -1.3443 -1.97184 -2.4908 -2.02392l-0.0972 -0.00441c-0.4042 -0.01837 -0.8139 -0.03699 -1.2281 -0.05413 -0.0171 -0.41427 -0.0357 -0.82464 -0.0541 -1.22894l-0.0044 -0.09631C9.95752 1.46009 9.16647 0.370174 7.98568 0.115803 7.6753 0.0489388 7.34439 0 7 0Z" clip-rule="evenodd" stroke-width="1"></path>
  </g>
</svg>