<svg xmlns="http://www.w3.org/2000/svg" fill="none" viewBox="0 0 14 14" id="Align-Three-Horizontal-Frame--Streamline-Flex">
  <desc>
    Align Three Horizontal Frame Streamline Icon: https://streamlinehq.com
  </desc>
  <g id="align-three-horizontal-frame">
    <path id="Union" fill="currentColor" fill-rule="evenodd" d="M9.86228 0.253441c-0.41234 -0.039331 -0.77849 0.263054 -0.81782 0.675396 -0.03933 0.412343 0.26305 0.778493 0.67539 0.817823 0.45305 0.04321 0.90075 0.09292 1.34125 0.14612 0.5514 0.06662 0.9874 0.50389 1.053 1.05821 0.0502 0.42419 0.0976 0.85576 0.1393 1.2925 0.0393 0.41234 0.4054 0.71475 0.8178 0.67543 0.4123 -0.03931 0.7147 -0.40544 0.6754 -0.81779 -0.043 -0.45074 -0.0917 -0.89397 -0.1429 -1.32642 -0.1466 -1.23903 -1.1214 -2.221139 -2.3627 -2.3711 -0.4501 -0.054366 -0.9106 -0.105521 -1.37872 -0.150169ZM4.9556 0.928837c0.03933 0.412343 -0.26306 0.778493 -0.6754 0.817823 -0.45301 0.04321 -0.90078 0.09292 -1.34121 0.14612 -0.55147 0.06662 -0.98747 0.50389 -1.05307 1.05821 -0.0502 0.42419 -0.09762 0.85576 -0.13925 1.2925 -0.03931 0.41234 -0.40545 0.71475 -0.817796 0.67543 -0.412344 -0.03931 -0.714748 -0.40544 -0.675437 -0.81779 0.042971 -0.45074 0.091702 -0.89397 0.142878 -1.32642C0.542942 1.53568 1.51773 0.553571 2.75909 0.40361c0.45004 -0.054366 0.91059 -0.105521 1.37868 -0.150169 0.41234 -0.039331 0.77849 0.263054 0.81783 0.675396ZM13.0712 9.0812c0.4123 0.03931 0.7147 0.40545 0.6754 0.81779 -0.043 0.45071 -0.0917 0.89401 -0.1429 1.32641 -0.1466 1.239 -1.1214 2.2212 -2.3627 2.3711 -0.4501 0.0544 -0.9106 0.1055 -1.37872 0.1502 -0.41234 0.0393 -0.77849 -0.2631 -0.81782 -0.6754 -0.03933 -0.4124 0.26305 -0.7785 0.67539 -0.8178 0.45305 -0.0433 0.90075 -0.093 1.34125 -0.1462 0.5514 -0.0666 0.9874 -0.5038 1.053 -1.0582 0.0502 -0.4242 0.0976 -0.8557 0.1393 -1.29247 0.0393 -0.41234 0.4054 -0.71474 0.8178 -0.67543Zm-12.142326 0c0.412346 -0.03931 0.778486 0.26309 0.817796 0.67543 0.04163 0.43677 0.08905 0.86827 0.13925 1.29247 0.0656 0.5544 0.5016 0.9916 1.05307 1.0582 0.44043 0.0532 0.8882 0.1029 1.34121 0.1462 0.41234 0.0393 0.71473 0.4054 0.6754 0.8178 -0.03934 0.4123 -0.40549 0.7147 -0.81783 0.6754 -0.46809 -0.0447 -0.92864 -0.0958 -1.37868 -0.1502 -1.24136 -0.1499 -2.216148 -1.1321 -2.362775 -2.3711 -0.051176 -0.4324 -0.099907 -0.8757 -0.142878 -1.32641 -0.039311 -0.41234 0.263093 -0.77848 0.675437 -0.81779ZM3.75 3.5c-0.41421 0 -0.75 0.33579 -0.75 0.75s0.33579 0.75 0.75 0.75l6.5 0c0.4142 0 0.75 -0.33579 0.75 -0.75s-0.3358 -0.75 -0.75 -0.75l-6.5 0Zm0 2.75c-0.41421 0 -0.75 0.33579 -0.75 0.75s0.33579 0.75 0.75 0.75l6.5 0c0.4142 0 0.75 -0.33579 0.75 -0.75s-0.3358 -0.75 -0.75 -0.75l-6.5 0ZM3 9.75c0 -0.41421 0.33579 -0.75 0.75 -0.75l6.5 0c0.4142 0 0.75 0.33579 0.75 0.75 0 0.4142 -0.3358 0.75 -0.75 0.75l-6.5 0c-0.41421 0 -0.75 -0.3358 -0.75 -0.75Z" clip-rule="evenodd" stroke-width="1"></path>
  </g>
</svg>