<svg xmlns="http://www.w3.org/2000/svg" fill="none" viewBox="0 0 14 14" id="Arcade-Stick-Move-Down--Streamline-Flex">
  <desc>
    Arcade Stick Move Down Streamline Icon: https://streamlinehq.com
  </desc>
  <g id="arcade-stick-move-down">
    <path id="Union" fill="currentColor" fill-rule="evenodd" d="M7.23035 0.666412C7.67282 0.207421 8.29217 0 8.99783 0c0.70565 0 1.32497 0.207421 1.76747 0.666412 0.4425 0.458988 0.6424 1.101458 0.6424 1.833458 0 0.73199 -0.1999 1.37447 -0.6424 1.83346 -0.2773 0.28766 -0.6241 0.4765 -1.01804 0.57741v5.83866c0 0.4142 -0.33579 0.75 -0.75 0.75 -0.41422 0 -0.75 -0.3358 -0.75 -0.75V4.91044c-0.39349 -0.10097 -0.73987 -0.28973 -1.01691 -0.57711 -0.44247 -0.45899 -0.64243 -1.10147 -0.64243 -1.83346 0 -0.732 0.19996 -1.37447 0.64243 -1.833458ZM10.5609 9.82908c0.0855 -0.40529 0.4833 -0.66454 0.8886 -0.57904 0.6888 0.14529 1.3012 0.37648 1.7574 0.73192 0.4786 0.37294 0.793 0.89454 0.793 1.53624 0 0.9932 -0.7167 1.6274 -1.5726 1.9761 -0.8541 0.3479 -2.0297 0.5058 -3.42953 0.5058 -1.39976 0 -2.57535 -0.1578 -3.42943 -0.5055 -0.85594 -0.3486 -1.57273 -0.9826 -1.57273 -1.9759 0 -0.6417 0.3144 -1.1633 0.79302 -1.53624 0.45623 -0.35544 1.06863 -0.58664 1.7574 -0.73193 0.40529 -0.08549 0.80315 0.17375 0.88865 0.57905 0.0855 0.40532 -0.17375 0.80312 -0.57905 0.88862 -0.57427 0.1212 -0.93948 0.2873 -1.14511 0.4475 -0.18323 0.1428 -0.21491 0.2551 -0.21491 0.353 0 0.1148 0.04859 0.3464 0.63839 0.5866 0.59166 0.2409 1.54215 0.3948 2.86377 0.3948 1.32153 0 2.27203 -0.154 2.86363 -0.395 0.5898 -0.2403 0.6385 -0.472 0.6385 -0.5869 0 -0.0979 -0.0316 -0.2102 -0.2149 -0.353 -0.2056 -0.1602 -0.5708 -0.3263 -1.1451 -0.4475 -0.4053 -0.0855 -0.6645 -0.4833 -0.579 -0.88862Zm-6.11935 -6.0961c0.3015 -0.06867 0.5913 0.05218 0.75745 0.27413 0.1701 0.22723 0.20278 0.55308 0.02289 0.82756 -0.56482 0.86186 -1.43487 1.66647 -2.32699 2.11254 -0.14076 0.07038 -0.30644 0.07039 -0.44721 0.00001C1.55551 6.50114 0.685443 5.69653 0.120619 4.83467c-0.1798846 -0.27448 -0.1472041 -0.60033 0.022896 -0.82756 0.166152 -0.22195 0.45595 -0.3428 0.757451 -0.27413l1.020424 0.23239V0.8125c0 -0.414214 0.33578 -0.75 0.75 -0.75 0.41421 0 0.75 0.335786 0.75 0.75v3.15281l1.02016 -0.23233Z" clip-rule="evenodd" stroke-width="1"></path>
  </g>
</svg>