<svg xmlns="http://www.w3.org/2000/svg" fill="none" viewBox="0 0 14 14" id="Thick-Arrow-Left-Large--Streamline-Flex">
  <desc>
    Thick Arrow Left Large Streamline Icon: https://streamlinehq.com
  </desc>
  <g id="thick-arrow-left-large--arrow-keyboard-left-large-head">
    <path id="Union" fill="currentColor" fill-rule="evenodd" d="M0.497774 8.46909c-0.665024 -0.87505 -0.663028 -2.08784 0.005022 -2.96065C1.94639 3.62239 3.45329 1.91035 5.305 0.890456c0.75158 -0.413957 1.54434 -0.278328 2.11545 0.168094 0.55946 0.43732 0.90767 1.16807 0.86006 1.9684 -0.02668 0.44863 -0.06425 0.9018 -0.12338 1.34593 1.29031 -0.05631 2.57417 -0.02006 3.87217 0.10865 0.9525 0.09445 1.8396 0.7834 1.9385 1.83315 0.0429 0.45652 0.0429 0.92388 0 1.3804 -0.0989 1.04975 -0.986 1.73869 -1.9385 1.83314 -1.3014 0.12905 -2.58856 0.16515 -3.88227 0.10821 0.05696 0.44417 0.09263 0.89707 0.11755 1.34537 0.04453 0.8009 -0.30682 1.5305 -0.86841 1.9654 -0.57332 0.444 -1.36699 0.5757 -2.11677 0.1577 -1.84527 -1.0287 -3.34552 -2.7462 -4.781626 -4.63581Z" clip-rule="evenodd" stroke-width="1"></path>
  </g>
</svg>