<svg xmlns="http://www.w3.org/2000/svg" fill="none" viewBox="0 0 14 14" id="Thick-Arrow-Down-Large--Streamline-Flex">
  <desc>
    Thick Arrow Down Large Streamline Icon: https://streamlinehq.com
  </desc>
  <g id="thick-arrow-down-large--arrow-down-keyboard-large-head">
    <path id="Union" fill="currentColor" fill-rule="evenodd" d="M5.53127 13.5025c0.87505 0.665 2.08785 0.663 2.96066 -0.0051C10.378 12.0539 12.09 10.547 13.1099 8.69525c0.414 -0.75158 0.2783 -1.54434 -0.1681 -2.11545 -0.4373 -0.55946 -1.1681 -0.90768 -1.9684 -0.86007 -0.4486 0.02669 -0.9018 0.06425 -1.34592 0.12339 0.05631 -1.29032 0.02007 -2.57416 -0.10864 -3.87217 -0.09445 -0.95246 -0.7834 -1.839624 -1.83315 -1.9384664 -0.45652 -0.042986 -0.92388 -0.042986 -1.3804 -1e-7C5.25554 0.131326 4.56659 1.01849 4.47214 1.97095c-0.12905 1.30139 -0.16514 2.58855 -0.1082 3.88227 -0.44417 -0.05696 -0.89708 -0.09263 -1.34536 -0.11756 -0.80093 -0.04452 -1.5305 0.30683 -1.96541 0.86842 -0.443987 0.57331 -0.575684 1.36699 -0.157709 2.11677C1.92412 10.5661 3.64162 12.0664 5.53127 13.5025Z" clip-rule="evenodd" stroke-width="1"></path>
  </g>
</svg>