<svg xmlns="http://www.w3.org/2000/svg" fill="none" viewBox="0 0 14 14" id="Thick-Arrow-Right--Streamline-Flex">
  <desc>
    Thick Arrow Right Streamline Icon: https://streamlinehq.com
  </desc>
  <g id="thick-arrow-right--arrow-right-keyboard">
    <path id="Union" fill="currentColor" fill-rule="evenodd" d="M13.4962 8.47297c0.6738 -0.87206 0.6718 -2.09197 -0.005 -2.96175 -0.9636 -1.23825 -1.977 -2.37276 -3.1699 -3.15307 -0.72714 -0.47564 -1.52964 -0.3723 -2.1076 0.06496 -0.56371 0.42648 -0.91234 1.16277 -0.84048 1.96933 0.01021 0.11463 0.02175 0.22928 0.03492 0.34359 -1.82193 -0.18369 -3.61539 -0.18529 -5.43743 -0.00461 -0.94222 0.09343 -1.859468 0.77217 -1.9515861 1.83403 -0.02549845 0.29393 -0.02549846 0.5847 -1e-7 0.87863C0.111242 8.50594 1.02849 9.18468 1.97071 9.27811c1.82503 0.18098 3.62139 0.17908 5.44641 -0.00551 -0.01265 0.11427 -0.02369 0.22886 -0.03342 0.34343 -0.06852 0.80717 0.28321 1.54217 0.84895 1.96617 0.5801 0.4348 1.38325 0.5341 2.10825 0.0547 1.1882 -0.7856 2.1969 -1.92342 3.1553 -3.16393Z" clip-rule="evenodd" stroke-width="1"></path>
  </g>
</svg>