<svg xmlns="http://www.w3.org/2000/svg" fill="none" viewBox="0 0 14 14" id="Laurel-Award-Winner-Nomination--Streamline-Flex">
  <desc>
    Laurel Award Winner Nomination Streamline Icon: https://streamlinehq.com
  </desc>
  <g id="laurel-award-winner-nomination--laurel-award-winner-nomination-wreath-decoration-win-victory">
    <path id="Union" fill="currentColor" fill-rule="evenodd" d="M6.07762 0.997951c0.24718 -0.055091 0.24719 -0.055028 0.24721 -0.05496l0.00004 0.00016 0.00009 0.000408 0.00025 0.001165 0.00081 0.003709 0.0027 0.012789c0.00225 0.010856 0.00535 0.026315 0.00904 0.045928 0.00737 0.03921 0.0171 0.09517 0.02702 0.16428 0.01979 0.13787 0.04061 0.32999 0.04452 0.54722 0.00762 0.42327 -0.04756 0.98974 -0.349 1.42338 -0.22972 0.33046 -0.53658 0.51377 -0.86074 0.56364 -0.1417 0.02179 -0.28271 0.0175 -0.41766 -0.00844 0.03151 0.10635 0.05478 0.21521 0.06772 0.32596 0.05631 0.48196 -0.07856 0.88242 -0.3329 1.1721 -0.25061 0.28544 -0.60398 0.44858 -0.96435 0.48847 -0.02212 0.00245 -0.04431 0.00444 -0.06657 0.00596 0.10739 0.08627 0.20748 0.18131 0.29702 0.28604 0.34448 0.40291 0.46631 0.84139 0.41307 1.24932 -0.05258 0.40291 -0.27322 0.75612 -0.5772 1.00189 -0.04779 0.03864 -0.09789 0.07483 -0.15001 0.10828 0.00691 0.00279 0.01377 0.00562 0.02061 0.00849 0.05983 -0.00121 0.12078 0.00479 0.18178 0.01864 0.14707 0.03341 0.79517 0.22643 1.42589 0.62793 0.61292 0.39016 1.41341 1.11369 1.41341 2.24879 0 1.0722 -0.85531 1.6008 -1.2764 1.861l-0.05796 0.0359c-0.35131 0.2195 -0.81399 0.1126 -1.03344 -0.2387 -0.21944 -0.3514 -0.11254 -0.814 0.23877 -1.0335 0.25152 -0.1571 0.41024 -0.2616 0.51905 -0.3769 0.08356 -0.0884 0.10998 -0.1537 0.10998 -0.2478 0 -0.3353 -0.22334 -0.6517 -0.65564 -0.9421 -0.09755 0.2815 -0.2738 0.5399 -0.5246 0.7312 -0.33467 0.2553 -0.78506 0.3782 -1.31773 0.2976 -0.70404 -0.1066 -1.32607 -0.5797 -1.755037 -0.9935 -0.218496 -0.2107 -0.395744 -0.41476 -0.518445 -0.56614 -0.061466 -0.07583 -0.109545 -0.13881 -0.1425713 -0.18329 -0.0165201 -0.02225 -0.0292955 -0.0399 -0.0381184 -0.05224l-0.0102496 -0.01445 -0.0028577 -0.00409 -0.0008535 -0.00123 -0.0002819 -0.0004 -0.0001044 -0.00015c-0.0000419 -0.00007 -0.0000801 -0.00012 0.2064628 -0.14286 -0.148938 -0.19946 -0.148884 -0.1995 -0.148824 -0.19954l0.000148 -0.00011 0.000398 -0.0003 0.001199 -0.00089 0.003995 -0.00294 0.01425 -0.01037c0.01223 -0.00882 0.029862 -0.02139 0.052481 -0.03711 0.045221 -0.03143 0.110487 -0.07554 0.192472 -0.1276 0.163667 -0.10393 0.395525 -0.24053 0.668727 -0.37128 0.2066 -0.09887 0.44289 -0.19736 0.69541 -0.27507 -0.14772 -0.09511 -0.28861 -0.2178 -0.41861 -0.36985 -0.454911 -0.53208 -0.5984 -1.28441 -0.638256 -1.86592 -0.020331 -0.29664 -0.01445 -0.56187 -0.003545 -0.75295 0.005463 -0.09574 0.012215 -0.17335 0.017673 -0.22756 0.002731 -0.02712 0.005141 -0.04843 0.006909 -0.06325l0.002134 -0.01732 0.000633 -0.00487 0.000194 -0.00146 0.000066 -0.00048 0.000024 -0.00018c0.000009 -0.00007 0.000019 -0.00014 0.251208 0.03348 0.015931 -0.246 0.016 -0.246 0.016075 -0.24599l0.000185 0.00001 0.000497 0.00003 0.001496 0.00011 0.00497 0.00036 0.017624 0.00138c0.015073 0.00123 0.036703 0.00313 0.064173 0.00587 0.05492 0.00548 0.13333 0.01431 0.22958 0.0279 0.19211 0.02713 0.45717 0.07348 0.74914 0.15063 0.03652 0.00965 0.07366 0.01984 0.11131 0.03058 -0.12335 -0.19184 -0.20756 -0.42406 -0.23914 -0.69437 -0.07426 -0.6355 0.20683 -1.28432 0.47537 -1.74689 0.13739 -0.23666 0.27858 -0.43646 0.38535 -0.57711 0.0535 -0.07048 0.09868 -0.12651 0.13083 -0.16534 0.01609 -0.01942 0.02894 -0.03456 0.03797 -0.04508l0.01063 -0.01227 0.00304 -0.00347 0.00093 -0.00105 0.00031 -0.00035 0.00012 -0.00013c0.00005 -0.00006 0.00009 -0.00011 0.18775 0.16626 0.1477 -0.20072 0.14775 -0.20068 0.14781 -0.20064l0.00015 0.00011 0.00038 0.00028 0.00112 0.00083 0.00366 0.00273 0.01285 0.00971c0.01094 0.00834 0.02653 0.02036 0.04614 0.03585 0.0392 0.03098 0.09459 0.07595 0.16113 0.13321 0.08431 0.07256 0.18711 0.16537 0.29788 0.27499 0.03932 -0.14144 0.10628 -0.28396 0.20353 -0.42386 0.30286 -0.43567 0.83198 -0.69209 1.24485 -0.838444 0.21218 -0.075219 0.40666 -0.125822 0.54808 -0.157681 0.0709 -0.015973 0.12896 -0.027344 0.16984 -0.034805 0.02046 -0.003733 0.03665 -0.006494 0.04804 -0.008368l0.01343 -0.002159 0.0039 -0.000602 0.00122 -0.000185 0.00043 -0.000064 0.00017 -0.000025c0.00007 -0.00001 0.00013 -0.00002 0.03577 0.244114Zm-2.94038 0.965009 0.1477 -0.20072c-0.1044 -0.07691 -0.24981 -0.06201 -0.33536 0.03435l0.18766 0.16637ZM6.07762 0.997951 6.04198 0.753817c0.13117 -0.019463 0.25452 0.06299 0.28282 0.189043l-0.24718 0.055091ZM0.94903 5.07188l-0.251189 -0.03362c0.017488 -0.12839 0.134202 -0.22119 0.26712 -0.21238l-0.015931 0.246ZM0.250344 9.36745l-0.148938 -0.19946c-0.10823689 0.0808 -0.1336905 0.232 -0.0576049 0.3422l0.2065429 -0.14274ZM7.92198 0.997951C7.6748 0.94286 7.67479 0.942923 7.67477 0.942991l-0.00003 0.00016 -0.0001 0.000408 -0.00025 0.001165 -0.00081 0.003709 -0.0027 0.012789c-0.00225 0.010856 -0.00535 0.026315 -0.00904 0.045928 -0.00737 0.03921 -0.0171 0.09517 -0.02702 0.16428 -0.01979 0.13787 -0.04061 0.32999 -0.04452 0.54722 -0.00762 0.42327 0.04756 0.98974 0.349 1.42338 0.22972 0.33046 0.53658 0.51377 0.86074 0.56364 0.1417 0.02179 0.28272 0.0175 0.41766 -0.00844 -0.03151 0.10635 -0.05478 0.21521 -0.06772 0.32596 -0.05631 0.48196 0.07856 0.88242 0.3329 1.1721 0.25061 0.28544 0.60402 0.44858 0.96432 0.48847 0.0221 0.00245 0.0443 0.00444 0.0666 0.00596 -0.1074 0.08627 -0.2075 0.18131 -0.297 0.28604 -0.3445 0.40291 -0.46633 0.84139 -0.41309 1.24932 0.05258 0.40291 0.27319 0.75612 0.57719 1.00189 0.0478 0.03864 0.0979 0.07483 0.15 0.10828l-0.0206 0.00849c-0.0598 -0.00121 -0.1208 0.00479 -0.1818 0.01864 -0.147 0.03341 -0.79513 0.22643 -1.42586 0.62793 -0.61292 0.39016 -1.41341 1.11369 -1.41341 2.24879 0 1.0722 0.85531 1.6008 1.2764 1.861l0.05796 0.0359c0.35131 0.2195 0.814 0.1126 1.03344 -0.2387 0.21947 -0.3514 0.11254 -0.814 -0.23877 -1.0335 -0.25152 -0.1571 -0.41024 -0.2616 -0.51905 -0.3769 -0.08356 -0.0884 -0.10998 -0.1537 -0.10998 -0.2478 0 -0.3353 0.22334 -0.6517 0.65564 -0.9421 0.09755 0.2815 0.2738 0.5399 0.52463 0.7312 0.3346 0.2553 0.785 0.3782 1.3177 0.2976 0.704 -0.1066 1.3261 -0.5797 1.755 -0.9935 0.2185 -0.2107 0.3958 -0.41476 0.5185 -0.56614 0.0614 -0.07583 0.1095 -0.13881 0.1426 -0.18329 0.0165 -0.02225 0.0293 -0.0399 0.0381 -0.05224l0.0102 -0.01445 0.0029 -0.00409 0.0008 -0.00123 0.0003 -0.0004 0.0001 -0.00015c0.0001 -0.00007 0.0001 -0.00012 -0.2064 -0.14286l0.2065 0.14274c0.0761 -0.1102 0.0506 -0.2614 -0.0576 -0.3422l-0.1489 0.19946c0.1489 -0.19946 0.1488 -0.1995 0.1488 -0.19954l-0.0002 -0.00011 -0.0004 -0.0003 -0.0012 -0.00089 -0.004 -0.00294 -0.0142 -0.01037c-0.0122 -0.00882 -0.0299 -0.02139 -0.0525 -0.03711 -0.0452 -0.03143 -0.1105 -0.07554 -0.1925 -0.1276 -0.1636 -0.10393 -0.3955 -0.24053 -0.6687 -0.37128 -0.2066 -0.09887 -0.4429 -0.19736 -0.6954 -0.27507 0.1477 -0.09511 0.2886 -0.2178 0.4186 -0.36985 0.4549 -0.53208 0.5984 -1.28441 0.6383 -1.86592 0.0203 -0.29664 0.0144 -0.56187 0.0035 -0.75295 -0.0055 -0.09574 -0.0122 -0.17335 -0.0177 -0.22756 -0.0027 -0.02712 -0.0051 -0.04843 -0.0069 -0.06325l-0.0021 -0.01732 -0.0006 -0.00487 -0.0002 -0.00146 -0.0001 -0.00048 0 -0.00018c0 -0.00007 0 -0.00014 -0.2512 0.03348l0.2512 -0.03362c-0.0175 -0.12839 -0.1342 -0.22119 -0.2672 -0.21238l0.016 0.246c-0.016 -0.246 -0.016 -0.246 -0.0161 -0.24599l-0.0002 0.00001 -0.0005 0.00003 -0.0015 0.00011 -0.005 0.00036 -0.0176 0.00138c-0.0151 0.00123 -0.0367 0.00313 -0.0641 0.00587 -0.055 0.00548 -0.1334 0.01431 -0.2296 0.0279 -0.1921 0.02713 -0.4572 0.07348 -0.7492 0.15063 -0.0365 0.00965 -0.0736 0.01984 -0.1113 0.03058 0.1234 -0.19184 0.2076 -0.42406 0.2392 -0.69437 0.0742 -0.6355 -0.2069 -1.28432 -0.4754 -1.74689 -0.1374 -0.23666 -0.2786 -0.43646 -0.3854 -0.57711 -0.0535 -0.07048 -0.0986 -0.12651 -0.1308 -0.16534 -0.0161 -0.01942 -0.0289 -0.03456 -0.038 -0.04508l-0.0106 -0.01227 -0.003 -0.00347 -0.001 -0.00105 -0.0003 -0.00035 -0.0001 -0.00013c0 -0.00006 -0.0001 -0.00011 -0.1877 0.16626l0.1876 -0.16637c-0.0855 -0.09636 -0.2309 -0.11126 -0.3353 -0.03435l0.1477 0.20072c-0.1477 -0.20072 -0.1478 -0.20068 -0.1479 -0.20064l-0.0001 0.00011 -0.0004 0.00028 -0.0011 0.00083 -0.0037 0.00273 -0.0128 0.00971c-0.011 0.00834 -0.0265 0.02036 -0.0461 0.03585 -0.0393 0.03098 -0.0946 0.07595 -0.1612 0.13321 -0.0843 0.07256 -0.1871 0.16537 -0.2979 0.27499 -0.0393 -0.14144 -0.1062 -0.28396 -0.20349 -0.42386 -0.30286 -0.43567 -0.83198 -0.69209 -1.24484 -0.838444C8.53068 0.882507 8.3362 0.831904 8.19478 0.800045 8.12388 0.784072 8.06582 0.772701 8.02494 0.76524 8.00448 0.761507 7.98829 0.758746 7.9769 0.756872L7.96347 0.754713l-0.0039 -0.000602 -0.00122 -0.000185 -0.00043 -0.000064 -0.00016 -0.000025c-0.00007 -0.00001 -0.00014 -0.00002 -0.03578 0.244114Zm0 0 0.03564 -0.244134C7.82645 0.734354 7.7031 0.816807 7.6748 0.94286l0.24718 0.055091Z" clip-rule="evenodd" stroke-width="1"></path>
  </g>
</svg>