<svg xmlns="http://www.w3.org/2000/svg" fill="none" viewBox="0 0 14 14" id="Book-Flip-Previous-Page--Streamline-Flex">
  <desc>
    Book Flip Previous Page Streamline Icon: https://streamlinehq.com
  </desc>
  <g id="book-flip-previous-page--book-flip-previous-page-e-book-electronic-pdf-turn-right">
    <path id="Union" fill="currentColor" fill-rule="evenodd" d="M3.25073 0.527333c-0.04718 0.163192 -0.07437 0.356443 -0.08617 0.567787 -0.02201 0.39435 -0.04779 0.797 -0.07394 1.20556 -0.11996 1.87368 -0.24795 3.87297 -0.05807 5.7802 0.03765 0.37815 0.1507 0.86819 0.52933 1.27974 1.1811 1.28378 1.87885 2.67488 2.6357 4.50248 0.04292 0.1036 0.13726 0.1572 0.22831 0.1298l0.12817 -10.5397c0.00227 0.00469 0.00453 0.00939 0.00679 0.01408v-0.00043l-0.00678 -0.01407 0.00675 -0.55549C5.6688 1.65655 5.05729 1.04723 4.46528 0.457335c-0.0561 -0.055903 -0.11203 -0.111632 -0.16801 -0.167707 -0.2614 -0.2618685 -0.56249 -0.403004 -0.81582 -0.175845 -0.1121 0.100514 -0.1841 0.252284 -0.23072 0.41355Zm-1.33416 0.496357 0.00054 -0.00946C1.10472 0.96898 0.560607 1.57612 0.419952 2.26014 -0.145775 4.9969 -0.138494 7.65524 0.419704 10.3895c0.107142 0.5248 0.532047 1.1685 1.267586 1.2457 0.74588 0.0926 1.63943 0.4332 2.45531 0.8415 -0.4352 -0.8705 -0.8983 -1.6061 -1.49603 -2.2558 -0.6423 -0.69816 -0.80701 -1.50443 -0.85771 -2.01375 -0.20026 -2.01146 -0.06668 -4.09761 0.0513 -5.94l0 -0.00001v-0.00001l0.00309 -0.0483c0.02622 -0.40953 0.05165 -0.8069 0.07332 -1.19514ZM7.75408 13.9495c-0.02499 0.0152 -0.0504 0.0295 -0.07627 0.0429l0.13221 -11.09608C9.0019 1.98249 10.4335 1.25705 11.9551 1.0266l0.0108 -0.00164 0 0.00012c0.8771 -0.11334 1.4669 0.5187 1.6142 1.23506 0.5657 2.73676 0.5584 5.3951 0.0002 8.12936 -0.1071 0.5248 -0.532 1.1685 -1.2676 1.2457 -1.1698 0.1453 -2.70295 0.9004 -3.7299 1.5707 -0.1662 0.1084 -0.27119 0.2218 -0.39489 0.3577l-0.0142 0.0156 -0.00001 0c-0.09642 0.1062 -0.23373 0.2574 -0.41962 0.3703Z" clip-rule="evenodd" stroke-width="1"></path>
  </g>
</svg>