<svg xmlns="http://www.w3.org/2000/svg" fill="none" viewBox="0 0 14 14" id="Web-Browser-Content-Wysiwyg--Streamline-Flex">
  <desc>
    Web Browser Content Wysiwyg Streamline Icon: https://streamlinehq.com
  </desc>
  <g id="web-browser-content-wysiwyg--web-browser-content-wysiwyg-design-development-website">
    <path id="Union" fill="currentColor" fill-rule="evenodd" d="M1.99421 3.58524c-0.04201 0.13797 -0.07146 0.28101 -0.08699 0.42777 -0.21223 2.00594 -0.21223 3.96663 0 5.97257 0.11532 1.09002 0.99891 1.97542 2.09171 2.09602 2.01827 0.2226 3.98405 0.2226 6.00237 0 1.0927 -0.1206 1.9763 -1.006 2.0917 -2.09602 0.2122 -2.00594 0.2122 -3.96663 0 -5.97257 -0.0156 -0.14676 -0.045 -0.2898 -0.087 -0.42777H1.99421ZM10.1657 0.426044c-2.12756 -0.234726 -4.20366 -0.234725 -6.33126 0C2.04425 0.623545 0.605387 2.06083 0.415544 3.85519c-0.22333 2.11086 -0.223329 4.17735 0 6.28821 0.189844 1.7943 1.628706 3.2316 3.418896 3.4291 2.1276 0.2348 4.2037 0.2348 6.33126 0 1.7902 -0.1975 3.2291 -1.6348 3.4189 -3.4291 0.2234 -2.11086 0.2234 -4.17735 0 -6.28821 -0.1898 -1.79436 -1.6287 -3.231645 -3.4189 -3.429146ZM8.49878 9.375c0 -0.41421 -0.33579 -0.75 -0.75 -0.75H4.21873c-0.41421 0 -0.75 0.33579 -0.75 0.75s0.33579 0.75 0.75 0.75h3.53005c0.41421 0 0.75 -0.33579 0.75 -0.75ZM4.21875 5.75c-0.41421 0 -0.75 0.33579 -0.75 0.75s0.33579 0.75 0.75 0.75h5.5625c0.41425 0 0.74995 -0.33579 0.74995 -0.75s-0.3357 -0.75 -0.74995 -0.75h-5.5625Z" clip-rule="evenodd" stroke-width="1"></path>
  </g>
</svg>