<svg xmlns="http://www.w3.org/2000/svg" fill="none" viewBox="0 0 14 14" id="Cards--Streamline-Flex">
  <desc>
    Cards Streamline Icon: https://streamlinehq.com
  </desc>
  <g id="cards">
    <path id="Union" fill="currentColor" fill-rule="evenodd" d="M6.91075 0.0538818c0.48081 0.0238083 0.8849 0.3685822 0.98915 0.8385542 0.65109 2.935424 0.82909 4.913784 0.70027 7.917364 -0.02052 0.47851 -0.3553 0.88692 -0.82147 0.99687 -2.23565 0.52733 -3.78508 0.66613 -6.07587 0.53953 -0.48456 -0.0268 -0.888752 -0.37895 -0.987248 -0.85415C0.111901 6.57959 -0.0616255 4.61827 0.0184832 1.61194 0.0315714 1.12075 0.375132 0.699274 0.854551 0.591571 3.08043 0.0915187 4.62621 -0.0592429 6.91075 0.0538818ZM10.1065 3.30305c-0.17448 -0.05717 -0.34613 0.09044 -0.32179 0.27244 0.22609 1.69117 0.27389 3.27877 0.18754 5.29291 -0.04664 1.08733 -0.80786 2.0224 -1.87845 2.2749 -1.40743 0.3319 -2.57299 0.5196 -3.79758 0.5888 -0.05089 0.0029 -0.06871 0.0648 -0.02388 0.0891 2.07489 1.1218 3.55277 1.6597 5.86476 2.14 0.4267 0.0887 0.8606 -0.1179 1.0629 -0.504 1.4258 -2.7211 2.1097 -4.60261 2.7766 -7.60187 0.0951 -0.42766 -0.1053 -0.86759 -0.4918 -1.07375 -1.2384 -0.66045 -2.2649 -1.1137 -3.3783 -1.47853Z" clip-rule="evenodd" stroke-width="1"></path>
  </g>
</svg>