<svg xmlns="http://www.w3.org/2000/svg" fill="none" viewBox="0 0 14 14" id="Card-Flip--Streamline-Flex">
  <desc>
    Card Flip Streamline Icon: https://streamlinehq.com
  </desc>
  <g id="card-flip">
    <path id="Union" fill="currentColor" fill-rule="evenodd" d="M9.34452 5.0187c-0.05817 -0.07627 -0.12071 -0.14718 -0.18631 -0.21225 -0.63669 -0.63155 -1.78991 -0.89819 -2.73371 -0.13416 -0.03189 0.02581 -0.06249 0.05318 -0.09169 0.08201 -0.82181 0.81131 -1.43655 2.0213 -1.60721 3.1634 -0.09304 0.6226 0.11249 1.25267 0.55474 1.70066 0.81133 0.82184 2.02134 1.43664 3.16348 1.60724 0.58927 0.0881 1.15077 -0.0757 1.57448 -0.4416 0.3977 -0.3435 0.6094 -0.80653 0.6748 -1.2445 0.0336 -0.22456 0.0323 -0.46667 -0.0147 -0.70925 0.2608 -0.12814 0.5108 -0.25929 0.75 -0.3934 0.0705 0.78597 0.1206 1.61405 0.1563 2.52325 0.0278 0.7068 -0.4199 1.3485 -1.0977 1.5613 -2.71991 0.854 -4.59379 1.1494 -7.44658 1.1805 -0.7006 0.0076 -1.32009 -0.4507 -1.52052 -1.1203C0.464734 9.05645 0.093362 6.6931 0.000504906 3.0151 -0.0172177 2.31312 0.43317 1.68195 1.10672 1.47468 3.82457 0.638297 5.69603 0.360021 8.52567 0.29823c0.71799 -0.015679 1.35408 0.45788 1.54813 1.14743 0.2648 0.94057 0.4854 1.79622 0.6693 2.61384 -0.2947 0.27209 -0.7403 0.60189 -1.39858 0.9592Zm2.18888 -3.29204c0.1513 -0.38563 0.5864 -0.57566 0.9721 -0.42446 0.6095 0.23899 1.1195 0.70466 1.3564 1.34963 0.2394 0.65136 0.1663 1.39082 -0.2095 2.11267 -0.6629 1.27343 -2.2883 2.56093 -5.17372 3.6537 0.1265 0.03989 0.25164 0.06979 0.37152 0.0877 0.40966 0.06121 0.69214 0.44293 0.63093 0.8526 -0.06121 0.40967 -0.44293 0.6921 -0.8526 0.63093 -0.87464 -0.13069 -1.83733 -0.61978 -2.45864 -1.24915 -0.16585 -0.168 -0.24292 -0.40427 -0.20803 -0.63775 0.13069 -0.87461 0.61979 -1.83729 1.24912 -2.45859 0.29477 -0.29101 0.76964 -0.28796 1.06064 0.00681 0.29101 0.29477 0.28796 0.76963 -0.00681 1.06064 -0.08169 0.08064 -0.16085 0.17275 -0.2358 0.273 2.68559 -1.02964 3.88349 -2.12608 4.29289 -2.91254 0.2167 -0.41622 0.201 -0.71501 0.1321 -0.90269 -0.0713 -0.19406 -0.2353 -0.36822 -0.4961 -0.47047 -0.3856 -0.15121 -0.5757 -0.5864 -0.4245 -0.97203Z" clip-rule="evenodd" stroke-width="1"></path>
  </g>
</svg>