<svg xmlns="http://www.w3.org/2000/svg" fill="none" viewBox="0 0 14 14" id="Card-Remove-Cross--Streamline-Flex">
  <desc>
    Card Remove Cross Streamline Icon: https://streamlinehq.com
  </desc>
  <g id="card-remove-cross">
    <path id="Union" fill="currentColor" fill-rule="evenodd" d="M9.24033 1.11772C9.05198 0.446627 8.43297 -0.0155217 7.73335 0.000398891 5.20211 0.0580004 3.51041 0.30984 1.07756 1.05532c-0.656642 0.20122 -1.0947579 0.81675 -1.077041842 1.49983C0.0861192 5.85568 0.422146 7.99451 1.36645 11.1588c0.1945 0.6518 0.79757 1.0992 1.48029 1.0911 2.0081 -0.024 3.48497 -0.1942 5.20882 -0.6363l0.36481 -0.3648 -0.58703 -0.587c-0.78104 -0.78108 -0.78104 -2.04741 0 -2.82846 0.72279 -0.72278 1.86116 -0.7767 2.64596 -0.16174 -0.1852 -2.2385 -0.54248 -4.07221 -1.23897 -6.55388Zm-0.5231 7.59951c0.29289 -0.29289 0.76777 -0.29289 1.06066 0l1.47091 1.47087 1.4708 -1.47073c0.2929 -0.2929 0.7677 -0.2929 1.0606 0 0.2929 0.29289 0.2929 0.76776 0 1.06066l-1.4707 1.47077 1.4707 1.4708c0.2929 0.2928 0.2929 0.7677 0 1.0606 -0.2929 0.2929 -0.7678 0.2929 -1.0606 0l-1.4708 -1.4707 -1.4709 1.4708c-0.29289 0.2929 -0.76777 0.2929 -1.06066 0 -0.29289 -0.2928 -0.29289 -0.7677 0 -1.0606l1.47086 -1.4709 -1.47087 -1.47091c-0.29289 -0.29289 -0.29289 -0.76777 0 -1.06066Z" clip-rule="evenodd" stroke-width="1"></path>
  </g>
</svg>