<svg xmlns="http://www.w3.org/2000/svg" fill="none" viewBox="0 0 14 14" id="Card-Place--Streamline-Flex">
  <desc>
    Card Place Streamline Icon: https://streamlinehq.com
  </desc>
  <g id="card-place">
    <path id="Union" fill="currentColor" fill-rule="evenodd" d="M8.75532 4.50016c-0.37048 -0.18524 -0.82099 -0.03507 -1.00623 0.33541 -0.14697 0.29395 -0.3637 0.59317 -0.61726 0.86476l0 -4.950347c0 -0.414214 -0.33579 -0.7500001737 -0.75 -0.7500001737 -0.41422 0 -0.75 0.3357861737 -0.75 0.7500001737l0 4.950157c-0.2535 -0.27154 -0.47016 -0.57069 -0.6171 -0.86457 -0.18524 -0.37048 -0.63574 -0.52065 -1.00623 -0.33541 -0.37048 0.18525 -0.52065 0.63575 -0.33541 1.00624 0.48018 0.96034 1.41307 1.89324 2.37345 2.37341 0.21115 0.10557 0.45968 0.10557 0.67082 -0.00001 0.96031 -0.48017 1.8932 -1.41306 2.37337 -2.37341 0.18525 -0.37048 0.03508 -0.82098 -0.33541 -1.00623ZM5.48733 8.99797c-1.04184 -0.5209 -2.02868 -1.43822 -2.66467 -2.45607 -0.68656 0.33347 -1.37926 0.70608 -2.083595 1.13212 -0.7800425 0.47184 -0.970228 1.50437 -0.437979 2.22984C1.3667 11.3563 2.4072 12.5378 3.98401 13.7021c0.42815 0.3161 0.9821 0.3784 1.46529 0.1979 3.16492 -1.1818 5.1403 -2.0654 7.7889 -3.6477 0.786 -0.46953 1.0115 -1.52043 0.4516 -2.26341 -1.027 -1.36284 -1.9302 -2.26811 -3.3385 -3.3363 0.1227 0.45614 0.0851 0.95724 -0.1427 1.41294 -0.60117 1.20225 -1.73021 2.33128 -2.93242 2.93241 -0.56305 0.28154 -1.22579 0.28154 -1.78885 0.00003Z" clip-rule="evenodd" stroke-width="1"></path>
  </g>
</svg>