<svg xmlns="http://www.w3.org/2000/svg" fill="none" viewBox="0 0 14 14" id="Card-Lift--Streamline-Flex">
  <desc>
    Card Lift Streamline Icon: https://streamlinehq.com
  </desc>
  <g id="card-lift">
    <path id="Union" fill="currentColor" fill-rule="evenodd" d="M8.75532 3.45882c-0.37048 0.18524 -0.82099 0.03507 -1.00623 -0.33541 -0.14697 -0.29394 -0.3637 -0.59317 -0.61726 -0.86476l0 4.95035c0 0.41422 -0.33579 0.75 -0.75 0.75 -0.41422 0 -0.75 -0.33578 -0.75 -0.75l0 -4.95016c-0.2535 0.27154 -0.47016 0.5707 -0.6171 0.86457 -0.18524 0.37048 -0.63574 0.52065 -1.00623 0.33541 -0.37048 -0.18524 -0.52065 -0.63575 -0.33541 -1.00623C4.15327 1.49224 5.08616 0.559348 6.04654 0.0791746c0.21115 -0.1055697 0.45968 -0.1055659 0.67082 0.00001C7.67767 0.559357 8.61056 1.49225 9.09073 2.45259c0.18525 0.37048 0.03508 0.82099 -0.33541 1.00623ZM4.38161 7.20904V5.95729c-0.10489 -0.02847 -0.21978 -0.02311 -0.32746 0.02299C2.96392 6.44701 1.8664 6.99203 0.739065 7.67394c-0.7800425 0.47184 -0.970228 1.50437 -0.437979 2.22984C1.3667 11.3562 2.4072 12.5377 3.98401 13.702c0.42815 0.3162 0.9821 0.3784 1.46529 0.198 3.16492 -1.1819 5.1403 -2.0654 7.7889 -3.6477 0.786 -0.46961 1.0115 -1.52051 0.4516 -2.26349 -1.0693 -1.41898 -2.0044 -2.34191 -3.5151 -3.46917 -0.1344 -0.10025 -0.28156 -0.1763 -0.43561 -0.22789 -0.12602 0.11042 -0.26809 0.2067 -0.42496 0.28514 -0.29977 0.14988 -0.61918 0.21742 -0.93252 0.21119v2.42096c0 1.10456 -0.89543 1.99999 -2 1.99999s-2 -0.89543 -2 -1.99999Z" clip-rule="evenodd" stroke-width="1"></path>
  </g>
</svg>