<svg xmlns="http://www.w3.org/2000/svg" fill="none" viewBox="0 0 14 14" id="Card-Add--Streamline-Flex">
  <desc>
    Card Add Streamline Icon: https://streamlinehq.com
  </desc>
  <g id="card-add">
    <path id="Union" fill="currentColor" fill-rule="evenodd" d="M9.24033 1.11772C9.05198 0.446627 8.43297 -0.0155217 7.73335 0.000398891 5.20211 0.0580004 3.51041 0.30984 1.07756 1.05532c-0.656642 0.20122 -1.0947579 0.81675 -1.077041842 1.49983C0.0861192 5.85568 0.422146 7.99451 1.36645 11.1588c0.1945 0.6518 0.79757 1.0992 1.48029 1.0911 1.56702 -0.0187 2.81055 -0.1265 4.10039 -0.383C6.8208 11.6046 6.75 11.3106 6.75 11c0 -1.10457 0.89543 -2 2 -2h0.25002v-0.25c0 -0.89575 0.58887 -1.65397 1.40058 -1.90863 -0.202 -1.88139 -0.55167 -3.55515 -1.16027 -5.72365ZM11 8c0.4142 0 0.75 0.33579 0.75 0.75v1.5h1.5c0.4142 0 0.75 0.3358 0.75 0.75s-0.3358 0.75 -0.75 0.75h-1.5v1.5c0 0.4142 -0.3358 0.75 -0.75 0.75s-0.75 -0.3358 -0.75 -0.75v-1.5h-1.5c-0.41421 0 -0.75 -0.3358 -0.75 -0.75s0.33579 -0.75 0.75 -0.75h1.5v-1.5c0 -0.41421 0.3358 -0.75 0.75 -0.75Z" clip-rule="evenodd" stroke-width="1"></path>
  </g>
</svg>