<svg xmlns="http://www.w3.org/2000/svg" fill="none" viewBox="0 0 14 14" id="Circle-Clock--Streamline-Flex">
  <desc>
    Circle Clock Streamline Icon: https://streamlinehq.com
  </desc>
  <g id="circle-clock--clock-loading-measure-time-circle">
    <path id="Subtract" fill="currentColor" fill-rule="evenodd" d="M1.83706 1.83706C3.06233 0.611781 4.83048 0 7 0s3.9377 0.611781 5.1629 1.83706C13.3882 3.06233 14 4.83048 14 7s-0.6118 3.9377 -1.8371 5.1629C10.9377 13.3882 9.16952 14 7 14c-2.16952 0 -3.93767 -0.6118 -5.16294 -1.8371C0.611781 10.9377 0 9.16952 0 7c0 -2.16952 0.611781 -3.93767 1.83706 -5.16294Zm5.19541 1.31431c0.41421 0 0.75 0.33578 0.75 0.75v2.75287l1.58886 1.61698c0.29032 0.29545 0.28615 0.7703 -0.0093 1.06061 -0.29545 0.29032 -0.7703 0.28615 -1.06062 -0.0093l-1.8039 -1.83581c-0.13782 -0.14026 -0.21504 -0.32903 -0.21504 -0.52566V3.90137c0 -0.41422 0.33579 -0.75 0.75 -0.75Z" clip-rule="evenodd" stroke-width="1"></path>
  </g>
</svg>