<svg xmlns="http://www.w3.org/2000/svg" fill="none" viewBox="0 0 14 14" id="Delete-2--Streamline-Flex">
  <desc>
    Delete 2 Streamline Icon: https://streamlinehq.com
  </desc>
  <g id="delete-2--remove-bold-add-button-buttons-delete-cross-x-mathematics-multiply-math">
    <path id="Union" fill="currentColor" fill-rule="evenodd" d="M5.26114 0.716027c-0.825 -0.7605191 -2.09618 -0.959181 -3.09832 -0.382117 -0.35971 0.20713 -0.72966 0.453734 -1.05242 0.77649 -0.322755 0.32276 -0.569359 0.69271 -0.77649 1.05242 -0.577064 1.00214 -0.3784028 2.27332 0.382116 3.09832l0.337994 0.36687c0.41571 0.45136 0.83818 0.91005 1.26861 1.37199 -0.43043 0.46195 -0.85355 0.92134 -1.26926 1.3727l-0.337344 0.36616c-0.7605188 0.825 -0.95918 2.09614 -0.382116 3.09834 0.20713 0.3597 0.453734 0.7296 0.77649 1.0524 0.32276 0.3228 0.69271 0.5694 1.05241 0.7765 1.00215 0.5771 2.27333 0.3784 3.09833 -0.3821l0.36681 -0.338c0.45138 -0.4157 0.91009 -0.8382 1.37205 -1.2686 0.46199 0.4304 0.92131 0.8535 1.37272 1.2692l0.36614 0.3374c0.825 0.7605 2.09614 0.9592 3.09834 0.3821 0.3597 -0.2071 0.7296 -0.4537 1.0524 -0.7765s0.5694 -0.6927 0.7765 -1.0524c0.5771 -1.0022 0.3784 -2.27334 -0.3821 -3.09834l-0.3383 -0.36712c-0.4156 -0.45128 -0.838 -0.90989 -1.2683 -1.37174 0.4303 -0.46187 0.8527 -0.9205 1.2684 -1.37179l0.3382 -0.36707c0.7605 -0.825 0.9592 -2.09618 0.3821 -3.09832 -0.2071 -0.35971 -0.4537 -0.72966 -0.7765 -1.05242 -0.3228 -0.322755 -0.6927 -0.56936 -1.0524 -0.77649 -1.0022 -0.577064 -2.27334 -0.3784024 -3.09834 0.382117l-0.36615 0.337333 -0.00082 0.00075C7.92057 1.46979 7.46191 1.89224 7 2.32263c-0.46193 -0.43042 -0.92062 -0.85289 -1.37197 -1.26859L5.26114 0.716027Z" clip-rule="evenodd" stroke-width="1"></path>
  </g>
</svg>