<svg xmlns="http://www.w3.org/2000/svg" fill="none" viewBox="0 0 14 14">
  <g id="close-window-remove--close-window-remove-layout-browser">
    <path id="Union" fill="currentColor" fill-rule="evenodd" d="M6.75 0C5.60168 0 4.48112 0.10499 3.40727 0.224686 1.73532 0.411049 0.391907 1.7533 0.212704 3.42828 0.0984078 4.49658 0 5.60964 0 6.75c0 1.14035 0.098408 2.25341 0.212704 3.3217 0.179204 1.675 1.522616 3.0173 3.194566 3.2036C4.48112 13.395 5.60168 13.5 6.75 13.5c0.18775 0 0.37476 -0.0028 0.56094 -0.008 -0.07122 -0.589 0.1192 -1.2036 0.57125 -1.6557l0.5626 -0.5626 -0.56262 -0.5626c-0.78105 -0.78106 -0.78105 -2.04739 0 -2.82844s2.04738 -0.78105 2.82843 0l0.5626 0.56262 0.5625 -0.56248c0.4523 -0.4523 1.0673 -0.64268 1.6566 -0.57113 0.005 -0.18643 0.0077 -0.37368 0.0077 -0.56167 0 -1.14036 -0.0984 -2.25342 -0.2127 -3.32172C13.1081 1.7533 11.7647 0.411049 10.0927 0.224686 9.01888 0.10499 7.89832 0 6.75 0Zm2.01606 8.76655c0.29289 -0.2929 0.76776 -0.2929 1.06066 0L11.2732 10.213l1.4464 -1.44632c0.2929 -0.29289 0.7678 -0.29289 1.0607 0 0.2928 0.2929 0.2928 0.76777 0 1.06066l-1.4464 1.44636 1.4463 1.4464c0.2929 0.2929 0.2929 0.7677 0 1.0606 -0.2929 0.2929 -0.7677 0.2929 -1.0606 0l-1.4464 -1.4463 -1.44647 1.4465c-0.29289 0.2929 -0.76777 0.2929 -1.06066 0s-0.29289 -0.7678 0 -1.0607l1.44653 -1.4465 -1.44654 -1.4465c-0.2929 -0.29289 -0.2929 -0.76776 0 -1.06065Z" clip-rule="evenodd" stroke-width="1"></path>
  </g>
</svg>