<svg xmlns="http://www.w3.org/2000/svg" fill="none" viewBox="0 0 14 14" id="Select-App-Object-Mark--Streamline-Flex">
  <desc>
    Select App Object Mark Streamline Icon: https://streamlinehq.com
  </desc>
  <g id="select-app-object-mark">
    <path id="Union" fill="currentColor" fill-rule="evenodd" d="M6.00049 0c-0.90768 0 -1.79444 0.0742433 -2.64792 0.165285C1.67791 0.343921 0.327277 1.69396 0.156057 3.37153 0.0694742 4.21984 0 5.09994 0 6.00049c0 0.90054 0.0694743 1.78064 0.156057 2.62895C0.327277 10.307 1.67791 11.6571 3.35257 11.8357c0.69338 0.074 1.40872 0.1368 2.1394 0.1578 -0.1668 -0.5549 -0.24197 -1.1444 -0.24197 -1.7435 0 -1.36139 0.38811 -2.67299 1.35756 -3.64244C7.57701 5.63811 8.88861 5.25 10.25 5.25c0.5993 0 1.1889 0.0752 1.7439 0.24208 -0.0198 -0.72372 -0.0788 -1.43259 -0.149 -2.12055C11.6737 1.69396 10.3231 0.343921 8.64841 0.165284 7.79493 0.0742432 6.90817 0 6.00049 0ZM10.25 6.5c-1.13203 0 -2.08704 0.31993 -2.75855 0.99145C6.81993 8.16296 6.5 9.11797 6.5 10.25c0 1.132 0.31993 2.087 0.99145 2.7586C8.16296 13.6801 9.11797 14 10.25 14c1.132 0 2.087 -0.3199 2.7586 -0.9914C13.6801 12.337 14 11.382 14 10.25c0 -1.13203 -0.3199 -2.08704 -0.9914 -2.75855C12.337 6.81993 11.382 6.5 10.25 6.5Zm1.6853 2.9551c0.2557 -0.23191 0.2749 -0.62717 0.043 -0.88283s-0.6272 -0.27491 -0.8828 -0.04299c-0.4298 0.38988 -0.7649 0.75132 -1.0498 1.19595 -0.13008 0.20311 -0.24615 0.41797 -0.35527 0.65327l-0.24174 -0.2493c-0.2403 -0.24779 -0.63598 -0.25388 -0.88378 -0.0136 -0.2478 0.2403 -0.25389 0.636 -0.0136 0.8838l0.91469 0.9433c0.15095 0.1556 0.37182 0.2219 0.5836 0.1751 0.2117 -0.0467 0.384 -0.2 0.4553 -0.4047 0.2077 -0.5966 0.386 -0.9898 0.5934 -1.3135 0.2049 -0.3199 0.455 -0.59795 0.837 -0.9445Z" clip-rule="evenodd" stroke-width="1"></path>
  </g>
</svg>