<svg xmlns="http://www.w3.org/2000/svg" fill="none" viewBox="0 0 14 14" id="Recycle-Bin-4--Streamline-Flex">
  <desc>
    Recycle Bin 4 Streamline Icon: https://streamlinehq.com
  </desc>
  <g id="recycle-bin-4--remove-delete-empty-bin-trash-garbage">
    <path id="Union" fill="currentColor" fill-rule="evenodd" d="M4.6374 0.859258C5.23683 0.25983 6.06957 -0.00415039 6.99991 -0.00415039S8.76299 0.25983 9.36242 0.859258c0.57943 0.579432 0.84538 1.376862 0.86248 2.269722 0.7049 0.05658 1.4121 0.13163 2.1233 0.22517 0.4106 0.05402 0.6998 0.43073 0.6458 0.8414 -0.0541 0.41068 -0.4308 0.69981 -0.8414 0.64579 -0.0396 -0.00519 -0.079 -0.01033 -0.1185 -0.01541 0.0207 1.88888 -0.0191 4.54176 -0.5225 6.78687 -0.2743 1.2231 -1.3087 2.0745 -2.50775 2.2436 -0.67704 0.0955 -1.29839 0.1436 -2.00363 0.1436 -0.70522 0 -1.32648 -0.0481 -2.00344 -0.1436 -1.19901 -0.1691 -2.23345 -1.0205 -2.50774 -2.2436 -0.50346 -2.24515 -0.54321 -4.89808 -0.52248 -6.78695 -0.03971 0.0051 -0.07943 0.01027 -0.11916 0.01549 -0.41067 0.05402 -0.78738 -0.23511 -0.8414 -0.64579 -0.054015 -0.41067 0.23512 -0.78738 0.64579 -0.8414 0.71112 -0.09353 1.4183 -0.16858 2.12309 -0.22516 0.0171 -0.89287 0.28309 -1.6903 0.86252 -2.269732ZM8.30176 1.91992c0.21858 0.21858 0.3878 0.5696 0.41893 1.11625 -1.14832 -0.04942 -2.29324 -0.04942 -3.44156 0.00001 0.03113 -0.54666 0.20035 -0.89768 0.41893 -1.11626 0.24239 -0.24239 0.64761 -0.42407 1.30185 -0.42407 0.65424 0 1.05946 0.18168 1.30185 0.42407Z" clip-rule="evenodd" stroke-width="1"></path>
  </g>
</svg>