<svg xmlns="http://www.w3.org/2000/svg" fill="none" viewBox="0 0 14 14" id="Pencil-Square--Streamline-Flex">
  <desc>
    Pencil Square Streamline Icon: https://streamlinehq.com
  </desc>
  <g id="pencil-square--change-document-edit-modify-paper-pencil-write-writing">
    <path id="Union" fill="currentColor" fill-rule="evenodd" d="M13.12 0.658774c1.0303 0.910336 1.1788 2.406736 0.3276 3.301416L9.4785 8.13203c-0.05266 0.05536 -0.11903 0.0964 -0.19385 0.1199l-2.46399 0.77377c-0.77807 0.24433 -1.60844 -0.50902 -1.43908 -1.30469l0.52644 -2.47329c0.01649 -0.07745 0.05173 -0.14801 0.10286 -0.20597L9.85361 0.686315C10.6514 -0.217907 12.1138 -0.230235 13.12 0.658774ZM5.03353 4.18083l2.19541 -2.48832c-0.34788 -0.01879 -0.69932 -0.02979 -1.05351 -0.02979 -1.22928 0 -2.42539 0.13253 -3.55428 0.26297C1.38042 2.06906 0.389132 3.05758 0.250219 4.29979 0.124581 5.42329 0 6.61084 0 7.83136c0 1.22051 0.124581 2.40804 0.250219 3.53154 0.138913 1.2422 1.130201 2.2308 2.370931 2.3741 1.12888 0.1305 2.325 0.263 3.55428 0.263 1.22927 0 2.42538 -0.1325 3.55427 -0.263 1.2407 -0.1433 2.232 -1.1319 2.3709 -2.3741 0.1257 -1.1235 0.2502 -2.31103 0.2502 -3.53154 0 -0.27161 -0.0061 -0.54158 -0.0171 -0.80958L10.424 9.02904c-0.2091 0.21976 -0.46774 0.37711 -0.74783 0.46507l-2.46399 0.77379c-0.90804 0.2851 -1.77978 -0.0307 -2.34195 -0.54046 -0.56206 -0.5097 -0.96121 -1.34645 -0.76309 -2.27722l0.52644 -2.47328c0.06188 -0.2907 0.19684 -0.5659 0.39995 -0.79611Z" clip-rule="evenodd" stroke-width="1"></path>
  </g>
</svg>