<svg xmlns="http://www.w3.org/2000/svg" fill="none" viewBox="0 0 14 14" id="Invisible-2--Streamline-Flex">
  <desc>
    Invisible 2 Streamline Icon: https://streamlinehq.com
  </desc>
  <g id="invisible-2">
    <path id="Union" fill="currentColor" fill-rule="evenodd" d="M0.290115 3.90919c0.32719 -0.25401 0.798345 -0.19468 1.052355 0.13251 3.00193 3.86685 8.31372 3.86685 11.31563 0.00001 0.254 -0.3272 0.7252 -0.38652 1.0524 -0.13252 0.3272 0.25401 0.3865 0.72516 0.1325 1.05235 -0.3507 0.45174 -0.7287 0.8595 -1.1286 1.22329l0.8696 1.01714c0.2692 0.31484 0.2334 0.7897 -0.0799 1.06064 -0.3133 0.27094 -0.7855 0.23536 -1.0547 -0.07948l-0.9259 -1.08302c-0.5879 0.37752 -1.2065 0.67538 -1.84278 0.89357l0.36408 1.29937c0.1117 0.39885 -0.12077 0.81375 -0.51929 0.92665 -0.39852 0.113 -0.81217 -0.1188 -0.92392 -0.51769l-0.37867 -1.3516c-0.81726 0.12284 -1.64695 0.12189 -2.46401 -0.00285l-0.35589 1.34398c-0.10603 0.40046 -0.51634 0.63816 -0.91645 0.53096 -0.40011 -0.1072 -0.63851 -0.51863 -0.53248 -0.91904l0.34842 -1.31576c-0.65772 -0.22715 -1.29634 -0.5395 -1.90155 -0.93707l-0.8185 1.09453c-0.24807 0.33171 -0.716969 0.39806 -1.047323 0.14818C0.204783 8.04346 0.138075 7.57198 0.38614 7.24027l0.83439 -1.11576C0.844847 5.77613 0.489045 5.38848 0.157605 4.96154c-0.2540072 -0.32719 -0.1946801 -0.79834 0.13251 -1.05235Z" clip-rule="evenodd" stroke-width="1"></path>
  </g>
</svg>