<svg xmlns="http://www.w3.org/2000/svg" fill="none" viewBox="0 0 14 14" id="Visible--Streamline-Flex">
  <desc>
    Visible Streamline Icon: https://streamlinehq.com
  </desc>
  <g id="visible--eye-eyeball-open-view">
    <path id="Subtract" fill="currentColor" fill-rule="evenodd" d="M2.06035 3.72212C3.28459 2.56495 5.02669 1.5 7 1.5c1.97331 0 3.7154 1.06495 4.9397 2.22212 0.6169 0.58317 1.1199 1.2057 1.4722 1.76323 0.176 0.27862 0.3188 0.54781 0.419 0.79361C13.9275 6.51569 14 6.76742 14 7s-0.0725 0.48431 -0.1691 0.72104c-0.1002 0.2458 -0.243 0.51499 -0.419 0.79361 -0.3523 0.55753 -0.8553 1.18005 -1.4722 1.76325C10.7154 11.4351 8.97331 12.5 7 12.5c-1.97331 0 -3.71541 -1.0649 -4.93965 -2.2221C1.44337 9.6947 0.940383 9.07218 0.588109 8.51465 0.41206 8.23603 0.269343 7.96684 0.169088 7.72104 0.0725285 7.48431 0 7.23258 0 7s0.0725285 -0.48431 0.169088 -0.72104c0.100255 -0.2458 0.242972 -0.51499 0.419021 -0.79361 0.352274 -0.55753 0.855261 -1.18006 1.472241 -1.76323Zm3.28287 1.6211C5.74273 4.94372 6.31398 4.75 7 4.75s1.25727 0.19372 1.65678 0.59322C9.05628 5.74273 9.25 6.31398 9.25 7s-0.19372 1.25727 -0.59322 1.65678C8.25727 9.05628 7.68602 9.25 7 9.25s-1.25727 -0.19372 -1.65678 -0.59322C4.94372 8.25727 4.75 7.68602 4.75 7s0.19372 -1.25727 0.59322 -1.65678Z" clip-rule="evenodd" stroke-width="1"></path>
  </g>
</svg>