<svg xmlns="http://www.w3.org/2000/svg" fill="none" viewBox="0 0 14 14" id="Finger-Point-Down--Streamline-Flex">
  <desc>
    Finger Point Down Streamline Icon: https://streamlinehq.com
  </desc>
  <g id="finger-point-down">
    <path id="Union" fill="currentColor" d="M4.21532 6.11059v6.08571c0 0.9962 0.79514 1.8037 1.77601 1.8037 0.98086 0 1.77601 -0.8075 1.77601 -1.8037l0 -3.45399c1.01108 -0.14264 2.24666 -0.41624 3.30726 -0.96974C12.3758 7.09356 13.5 5.93648 13.5 4.05544c0 -1.17157 -0.5321 -2.6647 -0.8596 -3.472627C12.4948 0.2236 12.1423 0 11.7547 0H5.12675c-0.5789 0 -1.12941 0.250838 -1.50926 0.687696L0.501769 4.27104C0.180491 4.59732 0 5.03985 0 5.50128c0 1.24588 1.2517 2.08795 2.38132 1.60203l1.834 -0.99272Z" stroke-width="1"></path>
  </g>
</svg>