<svg xmlns="http://www.w3.org/2000/svg" fill="none" viewBox="0 0 14 14" id="Trending-Content--Streamline-Flex">
  <desc>
    Trending Content Streamline Icon: https://streamlinehq.com
  </desc>
  <g id="trending-content--lit-flame-torch-trending">
    <path id="Subtract" fill="currentColor" fill-rule="evenodd" d="M6.68219 1.13295C7.17469 0.517207 7.83478 0 8.66912 0c0.83433 0 1.49438 0.517212 1.98688 1.13296 0.4981 0.62272 0.8948 1.43008 1.201 2.20341 0.3085 0.7791 0.5368 1.55385 0.6876 2.13106 0.0756 0.28939 0.1323 0.53094 0.1701 0.70091 0.019 0.08503 0.0333 0.15224 0.0429 0.19869l0.011 0.05377 0.0029 0.01453 0.001 0.00527 -0.5001 0.09894c0.5002 -0.09828 0.5001 -0.0988 0.5001 -0.09894l0.0004 0.00192c0.4932 2.57654 0.2942 5.05298 -1.7178 6.65808 -0.7069 0.5639 -1.58258 0.7838 -2.39668 0.8469 -2.33153 0.1807 -4.21767 -0.0927 -5.54878 -1.0131 -1.36251 -0.9422 -2.03666 -2.4839 -2.10801 -4.57195l-0.00022 -0.00651c-0.020114 -0.93331 0.17565 -1.85891 0.57033 -2.67739 0.2116 -0.43879 0.47669 -0.8391 0.78704 -1.18862 0.32433 -0.36527 0.7733 -0.45279 1.16665 -0.35267 0.37791 0.09619 0.71117 0.36189 0.90844 0.71723 0.11292 0.2034 0.23567 0.39818 0.36749 0.5834 0.15086 -0.57396 0.3766 -1.33565 0.67986 -2.10155 0.3062 -0.77332 0.70289 -1.58067 1.20097 -2.20339ZM6.3257 7.66188c0.23816 -0.24462 0.54041 -0.4341 0.904 -0.4341 0.36418 0 0.66391 0.19005 0.89818 0.43565 0.23408 0.24539 0.42115 0.56441 0.5657 0.87052 0.14547 0.30805 0.25307 0.6143 0.32416 0.8424 0.03564 0.11439 0.06235 0.20991 0.08024 0.2772 0.00894 0.03366 0.0157 0.0603 0.02026 0.07877l0.00522 0.02143 0.00139 0.00584 0.00039 0.00166 -0.20455 0.04817c0.20474 -0.04737 0.20457 -0.0481 0.20455 -0.04817l0.00033 0.0014c0.11617 0.50895 0.15393 0.98205 0.03654 1.39925 -0.12033 0.4277 -0.39683 0.773 -0.85831 1.0324 -0.72501 0.4076 -1.47002 0.4076 -2.19504 0 -0.46148 -0.2594 -0.73798 -0.6047 -0.85831 -1.0324 -0.11739 -0.4172 -0.07963 -0.8903 0.03655 -1.39925l0.00101 -0.00442 0.02549 0.00643 0.17774 0.04461 -0.20323 -0.05104 0.00066 -0.00244 0.00151 -0.00584 0.00563 -0.0214c0.00493 -0.01845 0.01221 -0.04508 0.02181 -0.07872 0.0192 -0.06726 0.04779 -0.16273 0.08568 -0.27706 0.07556 -0.22801 0.18914 -0.53406 0.34057 -0.84186 0.1505 -0.30592 0.34355 -0.62431 0.58183 -0.86903Z" clip-rule="evenodd" stroke-width="1"></path>
  </g>
</svg>