<svg xmlns="http://www.w3.org/2000/svg" fill="none" viewBox="0 0 14 14" id="Floppy-Disk--Streamline-Flex">
  <desc>
    Floppy Disk Streamline Icon: https://streamlinehq.com
  </desc>
  <g id="floppy-disk--disk-floppy-electronics-device-disc-computer-storage">
    <path id="Subtract" fill="currentColor" fill-rule="evenodd" d="M4.60017 0.393522c-0.44994 0.095413 -0.8623 0.318104 -1.19272 0.635138L1.10516 3.23772c-0.426889 0.4096 -0.700464 0.96104 -0.751561 1.55959C0.292289 5.51549 0.25 6.25124 0.25 7c0 1.1412 0.098323 2.2534 0.212851 3.3213l-0.000008 0 0.000313 0.0028c0.09209 0.8158 0.457839 1.5763 1.037604 2.1575 0.41241 0.4135 0.91581 0.7189 1.46561 0.8946 -0.15495 -1.4019 -0.18293 -2.7702 0.02111 -4.22769 0.09597 -0.68559 0.62493 -1.23729 1.3225 -1.34113 1.49006 -0.22183 3.41766 -0.21686 5.37549 0.00064 0.00796 0.00088 0.01589 0.00192 0.02381 0.00311 0.68172 0.10236 1.20922 0.63573 1.31062 1.31344 0.2175 1.45343 0.1861 2.84523 0.0221 4.24893 0.5465 -0.1761 1.0469 -0.4805 1.4572 -0.8919 0.5798 -0.5812 0.9456 -1.3417 1.0376 -2.1575l0.0003 -0.0028C13.6517 9.25338 13.75 8.1402 13.75 7c0 -1.14019 -0.0983 -2.25338 -0.2128 -3.32227l-0.0004 -0.00282c-0.092 -0.81577 -0.4578 -1.57629 -1.0376 -2.15753 -0.4929 -0.49415 -1.1157 -0.833944 -1.7925 -0.982538 0.1129 1.075838 0.1358 2.142018 -0.0183 3.269058 -0.094 0.68713 -0.6252 1.24204 -1.32651 1.34191 -1.16062 0.16528 -2.2857 0.16338 -3.44535 -0.00348 -0.685 -0.09857 -1.21529 -0.63448 -1.31349 -1.31528 -0.16958 -1.1758 -0.13601 -2.30515 -0.00288 -3.433528Zm3.7893 -0.097135c0.35102 0.022115 0.69851 0.050861 1.04196 0.083395 0.13316 1.112768 0.16825 2.159248 0.01846 3.254768 -0.02031 0.14853 -0.13052 0.25471 -0.26423 0.27375 -1.04238 0.14844 -2.04817 0.14684 -3.09109 -0.00323 -0.13203 -0.019 -0.23468 -0.12028 -0.25432 -0.25646 -0.16122 -1.11786 -0.11814 -2.20788 0.03167 -3.352223h2.51755ZM4.25009 13.5887c0.12222 0.0126 0.24498 0.0247 0.36823 0.0363l4.76379 0c0.12498 -0.0118 0.24942 -0.0241 0.37331 -0.0368 0.19369 -1.4571 0.24295 -2.844 0.02825 -4.27861 -0.02029 -0.13561 -0.12089 -0.23757 -0.25124 -0.26088 -1.87999 -0.20778 -3.68834 -0.20594 -5.03839 -0.00496 -0.13668 0.02035 -0.24768 0.12833 -0.26863 0.27805 -0.20225 1.4447 -0.15792 2.8078 0.02468 4.2669Z" clip-rule="evenodd" stroke-width="1"></path>
  </g>
</svg>