<svg xmlns="http://www.w3.org/2000/svg" fill="none" viewBox="0 0 14 14" id="Half-Star-2--Streamline-Flex">
  <desc>
    Half Star 2 Streamline Icon: https://streamlinehq.com
  </desc>
  <g id="half-star-2--reward-rating-rate-social-star-media-favorite-like-stars-half">
    <path id="Union" fill="currentColor" fill-rule="evenodd" d="M8.2793 0.658805C7.96548 0.22843 7.48647 -0.00197023 6.99559 -0.000357805c-0.09851 0.000323607 -0.19253 0.019627605 -0.2786 0.054438105L6.44837 0.141484c-0.15535 0.062238 -0.50457 0.213998 -0.72564 0.516844 -0.67407 0.923392 -1.1502 1.915922 -1.47574 3.033962 -1.08507 0.01366 -2.11702 0.17909 -3.14424 0.52522C0.0720783 4.56482 -0.310843 5.79692 0.272938 6.68388c0.628154 0.95437 1.384302 1.73439 2.315422 2.39765 -0.32133 1.07417 -0.4777 2.13987 -0.48857 3.24737 -0.01049 1.0681 0.98822 1.9479 2.09016 1.5903 0.65996 -0.2142 1.49256 -0.7033 2.11004 -1.0958 0.24809 -0.1577 0.47409 -0.3081 0.65785 -0.4331 0.87964 0.6929 1.81156 1.1918 2.85156 1.529 1.1018 0.3573 2.1005 -0.5222 2.09 -1.5904 -0.007 -0.7174 -0.0751 -1.4191 -0.2106 -2.1188 -0.0788 -0.4067 -0.4723 -0.67251 -0.879 -0.59376 -0.4066 0.07876 -0.6724 0.47226 -0.5937 0.87896 0.1175 0.6065 0.1772 1.2176 0.1834 1.8483 0.0007 0.0731 -0.0297 0.1159 -0.0555 0.1362 -0.0134 0.0105 -0.0253 0.015 -0.0339 0.0167 -0.0071 0.0013 -0.0186 0.0022 -0.038 -0.004 -1.01599 -0.3295 -1.90997 -0.8417 -2.77776 -1.6076 -0.12138 -0.1071 -0.26772 -0.1679 -0.41734 -0.1836 0.1526 -3.03585 0.16557 -6.05783 0.03892 -9.09133 0.4501 0.63058 0.7934 1.30149 1.0526 2.04986 0.13556 0.3914 0.56275 0.5988 0.95415 0.46324 0.3914 -0.13556 0.5988 -0.56275 0.46324 -0.95415C9.27048 2.2582 8.84388 1.43305 8.2793 0.658805Zm2.7739 3.127335c-0.4105 -0.05547 -0.7882 0.23231 -0.8437 0.64279 -0.0555 0.41049 0.2323 0.78822 0.6428 0.8437l1.5655 0.3663 0.0752 0.08042 -0.0194 0.13979c-0.296 0.4497 -0.6634 0.8986 -1.0573 1.27733 -0.2986 0.28709 -0.3079 0.76188 -0.0208 1.06046 0.2871 0.29857 0.7619 0.30788 1.0604 0.02079 0.4794 -0.46092 0.9173 -0.99706 1.2707 -1.5339 0.5837 -0.88696 0.2008 -2.11906 -0.8299 -2.46636 -0.6074 -0.20468 -1.2184 -0.34684 -1.8435 -0.43132Z" clip-rule="evenodd" stroke-width="1"></path>
  </g>
</svg>