<svg xmlns="http://www.w3.org/2000/svg" fill="none" viewBox="0 0 14 14" id="Headphones--Streamline-Flex">
  <desc>
    Headphones Streamline Icon: https://streamlinehq.com
  </desc>
  <g id="headphones--headphones-audio-music-wireless-headset-entertainment">
    <path id="Union" fill="currentColor" fill-rule="evenodd" d="M3.01045 6.37016c-0.03969 -0.85704 0.08121 -1.87896 0.51227 -2.73382 0.26946 -0.53438 0.65533 -0.99568 1.19699 -1.32709 0.54168 -0.33142 1.2822 -0.55925 2.30188 -0.55925 1.99763 0 3.03521 0.87054 3.57001 1.89932 0.4482 0.86214 0.5651 1.88533 0.4879 2.7203 -1.33172 -0.01314 -2.47309 0.99707 -2.59155 2.34485l-0.19622 2.23243c-0.12442 1.4157 0.92747 2.6599 2.34417 2.7833l0.1148 0.01c1.4163 0.1233 2.6688 -0.9198 2.7932 -2.3351l0.1962 -2.23244c0.0874 -0.99418 -0.4054 -1.90381 -1.1972 -2.40006 0.152 -1.12917 0.0287 -2.56644 -0.6204 -3.81511C11.1247 1.42268 9.56817 0.25 7.02159 0.25c-1.24962 0 -2.27077 0.28172 -3.08473 0.77974 -0.81399 0.49803 -1.37774 1.18605 -1.7535 1.93123 -0.62784 1.24509 -0.74319 2.66886 -0.65255 3.76707C0.696112 7.21307 0.169936 8.1479 0.259995 9.17254L0.456211 11.405c0.124399 1.4153 1.376839 2.4584 2.793209 2.3351l0.11477 -0.01c1.41668 -0.1234 2.46858 -1.3677 2.34415 -2.7833l-0.19622 -2.23245C5.39634 7.397 4.30332 6.40216 3.01045 6.37016Z" clip-rule="evenodd" stroke-width="1"></path>
  </g>
</svg>