<svg xmlns="http://www.w3.org/2000/svg" fill="none" viewBox="0 0 14 14" id="Information-Circle--Streamline-Flex">
  <desc>
    Information Circle Streamline Icon: https://streamlinehq.com
  </desc>
  <g id="information-circle--information-frame-info-more-help-point-circle">
    <path id="Subtract" fill="currentColor" fill-rule="evenodd" d="M7.00005 0c1.72744 0 3.49425 0.501599 4.75355 1.55346 1.4188 1.18518 2.1356 3.09261 2.2349 4.98698 0.0994 1.89494 -0.4127 3.87826 -1.5797 5.24866C11.1306 13.29 9.03385 14 7.00005 14c-2.03379 0 -4.13057 -0.71 -5.40874 -2.2109C0.424349 10.4187 -0.0877773 8.43538 0.0116015 6.54044 0.110951 4.64607 0.827671 2.73864 2.24655 1.55346 3.50582 0.501599 5.27261 0 7.00005 0Zm0.25703 3.0907c0.34518 0 0.625 0.27982 0.625 0.625v0.32278c0 0.34518 -0.27982 0.625 -0.625 0.625s-0.625 -0.27982 -0.625 -0.625V3.7157c0 -0.34518 0.27982 -0.625 0.625 -0.625ZM5.74609 5.375c-0.34517 0 -0.625 0.27982 -0.625 0.625s0.27983 0.625 0.625 0.625h0.49647c0.20711 0 0.375 0.16789 0.375 0.375v1.92801c-0.33689 0.03725 -0.67673 0.10417 -1.02419 0.20074 -0.33257 0.09244 -0.52724 0.43698 -0.4348 0.76955 0.09244 0.3326 0.43697 0.5272 0.76954 0.4348 0.91229 -0.2536 1.73124 -0.2536 2.64352 0 0.33257 0.0924 0.67711 -0.1022 0.76955 -0.4348 0.09243 -0.33257 -0.10223 -0.67711 -0.43481 -0.76955 -0.35249 -0.09797 -0.69713 -0.16542 -1.03881 -0.20234V7c0 -0.89746 -0.72754 -1.625 -1.625 -1.625h-0.49647Z" clip-rule="evenodd" stroke-width="1"></path>
  </g>
</svg>