<svg xmlns="http://www.w3.org/2000/svg" fill="none" viewBox="0 0 14 14">
  <g id="get-info--get-info-information-magnifier-search-help">
    <path id="Union" fill="currentColor" fill-rule="evenodd" d="M1.75 6.6533c0 -1.671 0.46765 -2.87057 1.25019 -3.65311C3.78273 2.21765 4.9823 1.75 6.6533 1.75c1.67101 0 2.87057 0.46765 3.6531 1.25019 0.7826 0.78254 1.2502 1.98211 1.2502 3.65311 0 1.67101 -0.4676 2.87057 -1.2502 3.6531 -0.78253 0.7826 -1.98209 1.2502 -3.6531 1.2502 -1.671 0 -2.87057 -0.4676 -3.65311 -1.2502C2.21765 9.52387 1.75 8.32431 1.75 6.6533ZM6.6533 0.25c-1.94711 0 -3.57419 0.549945 -4.71377 1.68953C0.799945 3.07911 0.25 4.70619 0.25 6.6533c0 1.94711 0.549945 3.5742 1.68953 4.7138 1.13958 1.1396 2.76666 1.6895 4.71377 1.6895 1.54021 0 2.88017 -0.3441 3.937 -1.052l1.4526 1.4525c0.3905 0.3906 1.0237 0.3906 1.4142 0 0.3905 -0.3905 0.3905 -1.0237 0 -1.4142l-1.4526 -1.4525c0.708 -1.05681 1.0521 -2.39682 1.0521 -3.9371 0 -1.94711 -0.5499 -3.57419 -1.6895 -4.71377C10.2275 0.799945 8.60041 0.25 6.6533 0.25Zm-0.15656 2.67383c0.34518 0 0.625 0.27982 0.625 0.625v0.32364c0 0.34517 -0.27982 0.625 -0.625 0.625 -0.34517 0 -0.625 -0.27983 -0.625 -0.625v-0.32364c0 -0.34518 0.27983 -0.625 0.625 -0.625ZM5.21598 5.10938c-0.34518 0 -0.625 0.27982 -0.625 0.625 0 0.34517 0.27982 0.625 0.625 0.625 0.42591 0 0.61407 0.03971 0.69675 0.07703 0.00246 0.00111 0.00483 0.00194 0.00714 0.00276 0.01543 0.00545 0.02824 0.00997 0.05068 0.0905 0.04048 0.14522 0.0576 0.38754 0.05372 0.83165 -0.00129 0.14872 -0.00501 0.32466 -0.00917 0.52147l0 0.00012 0 0.00003c-0.00372 0.17628 -0.0078 0.36929 -0.01081 0.57448 -0.31618 0.03827 -0.63524 0.10439 -0.96136 0.19836 -0.33168 0.09558 -0.52309 0.44194 -0.42751 0.77362 0.09557 0.33168 0.44193 0.52309 0.77362 0.42751 0.87428 -0.25192 1.6543 -0.25192 2.52858 0 0.33169 0.09558 0.67805 -0.09583 0.77362 -0.42751 0.09558 -0.33168 -0.09583 -0.67804 -0.42751 -0.77362 -0.34264 -0.09873 -0.67748 -0.16671 -1.00937 -0.20396 0.00275 -0.18027 0.00637 -0.34712 0.0098 -0.50554l0.00001 -0.00023 0 -0.00003v-0.00003c0.00437 -0.20146 0.00845 -0.38929 0.01006 -0.57377 0.00373 -0.42841 -0.00524 -0.83968 -0.09956 -1.17813 -0.109 -0.39111 -0.33943 -0.71272 -0.74768 -0.897 -0.34453 -0.15551 -0.76729 -0.18771 -1.21101 -0.18771Z" clip-rule="evenodd" stroke-width="1"></path>
  </g>
</svg>