<svg xmlns="http://www.w3.org/2000/svg" fill="none" viewBox="0 0 14 14" id="Keyhole-Lock-Square--Streamline-Flex">
  <desc>
    Keyhole Lock Square Streamline Icon: https://streamlinehq.com
  </desc>
  <g id="keyhole-lock-square--square-frame-key-keyhole-lock-locked-secure-security">
    <path id="Subtract" fill="currentColor" fill-rule="evenodd" d="M3.65727 0.474686C4.73112 0.35499 5.85168 0.25 7 0.25s2.26888 0.10499 3.3427 0.224686c1.672 0.186363 3.0154 1.528614 3.1946 3.203594 0.1143 1.0683 0.2127 2.18136 0.2127 3.32172 0 1.14035 -0.0984 2.25341 -0.2127 3.3217 -0.1792 1.675 -1.5226 3.0173 -3.1946 3.2036C9.26888 13.645 8.14832 13.75 7 13.75c-1.14832 0 -2.26888 -0.105 -3.34273 -0.2247C1.98532 13.339 0.641908 11.9967 0.462704 10.3217 0.348408 9.25341 0.25 8.14035 0.25 7c0 -1.14036 0.098408 -2.25342 0.212704 -3.32172C0.641907 2.0033 1.98532 0.661049 3.65727 0.474686ZM8.84412 5.84222c0 0.95211 -0.43214 1.56811 -1.21894 1.77051v1.72949c0 0.34518 -0.27982 0.625 -0.625 0.625s-0.625 -0.27982 -0.625 -0.625V7.6126c-0.78648 -0.20253 -1.21844 -0.81847 -1.21844 -1.77038 0 -1.17996 0.66373 -1.84368 1.84369 -1.84368s1.84369 0.66372 1.84369 1.84368Z" clip-rule="evenodd" stroke-width="1"></path>
  </g>
</svg>