<svg xmlns="http://www.w3.org/2000/svg" fill="none" viewBox="0 0 14 14" id="Mail-Send-Envelope--Streamline-Flex">
  <desc>
    Mail Send Envelope Streamline Icon: https://streamlinehq.com
  </desc>
  <g id="mail-send-envelope--envelope-email-message-unopened-sealed-close">
    <path id="Subtract" fill="currentColor" fill-rule="evenodd" d="M13.7648 4.04112C13.8903 4.98757 14 5.98035 14 7c0 1.01974 -0.1108 2.01186 -0.234 2.95774l-0.0004 0.00298c-0.1028 0.75328 -0.502 1.43818 -1.1084 1.95008 -0.6051 0.5108 -1.3852 0.8244 -2.2099 0.9032l-0.0024 0.0002c-1.11073 0.1007 -2.26436 0.1869 -3.4449 0.1869 -1.18054 0 -2.33417 -0.0862 -3.44392 -0.1869l-0.00235 -0.0002c-0.82467 -0.0788 -1.60479 -0.3924 -2.20992 -0.9032C0.737408 11.3989 0.338236 10.714 0.235468 9.96072L0.23522 9.95888C0.109685 9.01243 0 8.01965 0 7c0 -1.01966 0.10969 -2.01158 0.235212 -2.95882l0.000256 -0.0019c0.005178 -0.03796 0.011109 -0.07574 0.01778 -0.11334C1.68815 5.27419 3.19102 6.53416 4.82897 7.66319c1.30929 0.90248 3.03267 0.90246 4.34194 -0.00002C10.8089 6.5341 12.3118 5.27411 13.7467 3.92582c0.0067 0.03764 0.0126 0.07546 0.0178 0.11346l0.0003 0.00184Zm-0.5417 -1.34126c-1.5034 1.4374 -3.0622 2.76272 -4.76161 3.93412 -0.88215 0.60807 -2.04094 0.60808 -2.9231 0.00002C3.83901 5.46263 2.28024 4.13732 0.776852 2.69995c0.15977 -0.2225 0.350118 -0.42767 0.566958 -0.61073 0.60513 -0.51083 1.38525 -0.82443 2.20992 -0.90322l0.00235 -0.00022C4.66581 1.08506 5.81841 0.998901 7 0.998901c1.18157 0 2.3352 0.086159 3.444 0.186889l0.0023 0.00021c0.8246 0.07879 1.6048 0.39239 2.2099 0.90322 0.2168 0.18303 0.4071 0.38817 0.5669 0.61064Z" clip-rule="evenodd" stroke-width="1"></path>
  </g>
</svg>