<svg xmlns="http://www.w3.org/2000/svg" fill="none" viewBox="0 0 14 14" id="Maximize-1--Streamline-Flex">
  <desc>
    Maximize 1 Streamline Icon: https://streamlinehq.com
  </desc>
  <g id="maximize-1">
    <path id="Union" fill="currentColor" fill-rule="evenodd" d="M9.25502 0.416943C10.4228 0.0276904 11.941 0.0276905 13.1087 0.416914c0.2239 0.074648 0.3997 0.250382 0.4743 0.474335 0.3893 1.167791 0.3893 2.685981 0.0001 3.853741 -0.0914 0.27424 -0.3323 0.47153 -0.6192 0.50712 -0.2869 0.0356 -0.5687 -0.09685 -0.7243 -0.34043 -0.2318 -0.36273 -0.4758 -0.7015 -0.7353 -1.01957L9.42195 5.97444c-0.39052 0.39052 -1.02369 0.39052 -1.41421 0 -0.39053 -0.39052 -0.39053 -1.02369 0 -1.41421l2.08046 -2.0805c-0.31232 -0.25352 -0.64461 -0.49227 -0.99987 -0.71929 -0.24358 -0.15566 -0.37603 -0.43746 -0.34044 -0.72433 0.0356 -0.286872 0.23289 -0.527754 0.50713 -0.619167ZM6.62932 1.71867c0.41417 -0.00616 0.74492 -0.34691 0.73876 -0.761073 -0.00616 -0.414168 -0.3469 -0.744924 -0.76107 -0.738764C5.60026 0.233806 4.61923 0.32731 3.68362 0.431598 1.96955 0.622655 0.593231 1.99723 0.4094 3.71547c-0.045007 0.42067 -0.087534 0.84978 -0.121915 1.28503 -0.032617 0.41293 0.275685 0.77411 0.688612 0.80673 0.412923 0.03262 0.774113 -0.27568 0.806733 -0.68861 0.03287 -0.41618 0.07384 -0.83026 0.11806 -1.24358 0.10862 -1.01524 0.93081 -1.83919 1.9489 -1.95267 0.92328 -0.10292 1.84669 -0.18983 2.77953 -0.2037ZM3.82606 6.55884c-0.59163 0 -1.16618 0.05408 -1.70825 0.1145 -0.95599 0.10656 -1.723291 0.87269 -1.825859 1.83137 -0.057723 0.53953 -0.108357 1.10971 -0.108357 1.69659 0 0.5869 0.050634 1.1571 0.108357 1.6966 0.102568 0.9587 0.869869 1.7248 1.825859 1.8314 0.54207 0.0604 1.11662 0.1145 1.70825 0.1145 0.59163 0 1.16619 -0.0541 1.70825 -0.1145 0.956 -0.1066 1.72329 -0.8727 1.82586 -1.8314 0.05772 -0.5395 0.10836 -1.1097 0.10836 -1.6966 0 -0.58688 -0.05064 -1.15706 -0.10836 -1.69659 -0.10257 -0.95868 -0.86987 -1.72481 -1.82586 -1.83137 -0.54206 -0.06042 -1.11662 -0.1145 -1.70825 -0.1145Zm9.24074 0.10042c-0.4142 -0.00616 -0.7549 0.3246 -0.7611 0.73877 -0.0138 0.93283 -0.1007 1.85625 -0.2037 2.77957 -0.1134 1.018 -0.9374 1.8402 -1.9526 1.9489 -0.41335 0.0442 -0.82742 0.0851 -1.2436 0.118 -0.41293 0.0326 -0.72123 0.3938 -0.68862 0.8067 0.03262 0.413 0.39381 0.7213 0.80673 0.6887 0.43525 -0.0344 0.86437 -0.0769 1.28499 -0.122 1.7183 -0.1838 3.0929 -1.5601 3.2839 -3.2742 0.1043 -0.93559 0.1978 -1.91662 0.2128 -2.92337 0.0061 -0.41416 -0.3246 -0.75491 -0.7388 -0.76107Z" clip-rule="evenodd" stroke-width="1"></path>
  </g>
</svg>