<svg xmlns="http://www.w3.org/2000/svg" fill="none" viewBox="0 0 14 14" id="Megaphone-1--Streamline-Flex">
  <desc>
    Megaphone 1 Streamline Icon: https://streamlinehq.com
  </desc>
  <g id="megaphone-1--bullhorn-loud-megaphone-share-speaker-transmit">
    <path id="Union" fill="currentColor" fill-rule="evenodd" d="M12.0046 1.05517c-0.3594 -0.115583 -0.7078 -0.02241 -0.9149 0.03994L1.83347 3.8829c-2.371672 0.71429 -2.44245 3.91438 -0.21233 4.77704 -0.09394 0.30511 -0.14458 0.62851 -0.14458 0.96326C1.47656 11.5199 3.07548 13 4.97538 13c1.5288 0 2.86135 -0.9571 3.32472 -2.3196l2.7896 0.8402c0.207 0.0623 0.5555 0.1555 0.9149 0.0399 0.4109 -0.1321 0.7314 -0.4251 0.9765 -0.7719 0.2455 -0.3475 0.4367 -0.7782 0.5838 -1.24556 0.2941 -0.93522 0.4351 -2.09439 0.4351 -3.2352 0 -1.14082 -0.141 -2.29999 -0.4351 -3.2352 -0.1471 -0.46742 -0.3383 -0.89811 -0.5838 -1.24561 -0.2451 -0.34679 -0.5656 -0.63973 -0.9765 -0.77186ZM3.05493 9.10065l3.80538 1.14615c-0.27002 0.7159 -0.99387 1.2532 -1.88493 1.2532 -1.13636 0 -1.99882 -0.872 -1.99882 -1.8768 0 -0.18127 0.02722 -0.35652 0.07837 -0.52255Z" clip-rule="evenodd" stroke-width="1"></path>
  </g>
</svg>