<svg xmlns="http://www.w3.org/2000/svg" fill="none" viewBox="0 0 14 14" id="Minimize--Streamline-Flex">
  <desc>
    Minimize Streamline Icon: https://streamlinehq.com
  </desc>
  <g id="minimize">
    <path id="Union" fill="currentColor" fill-rule="evenodd" d="M7.12682 1.5c-1.05395 0 -2.09629 0.09642 -3.13775 0.21251 -1.06282 0.11847 -1.92102 0.97842 -2.03443 2.03842 -0.02428 0.22695 -0.04762 0.45423 -0.06928 0.68211 -0.03919 0.41236 -0.40523 0.71487 -0.81759 0.67568 -0.412355 -0.03918 -0.714869 -0.40523 -0.675683 -0.81758 0.022364 -0.23533 0.046345 -0.46873 0.071065 -0.69978C0.651772 1.82836 2.06409 0.417786 3.8229 0.221741 4.87726 0.104218 5.98681 0 7.12682 0c1.14001 0 2.24955 0.104218 3.30388 0.221741 1.7588 0.196045 3.1712 1.606619 3.3598 3.369619 0.1122 1.04918 0.2099 2.15075 0.2099 3.28218s-0.0977 2.233 -0.2099 3.28216c-0.1886 1.763 -1.601 3.1736 -3.3598 3.3696 -0.239 0.0267 -0.48065 0.0526 -0.72439 0.0768 -0.4122 0.0408 -0.77946 -0.2602 -0.8203 -0.6724 -0.04085 -0.4122 0.26019 -0.7795 0.67239 -0.8203 0.23588 -0.0234 0.4711 -0.0486 0.7062 -0.0748 1.0628 -0.1185 1.921 -0.9784 2.0344 -2.03845 0.1107 -1.0348 0.2014 -2.07278 0.2014 -3.12261 0 -1.04984 -0.0907 -2.08781 -0.2014 -3.12261 -0.1134 -1.06 -0.9716 -1.91995 -2.0344 -2.03842C9.2231 1.59642 8.18077 1.5 7.12682 1.5Zm2.34667 3.92846c0.10756 -0.02021 0.21057 -0.04628 0.30641 -0.07823 0.393 -0.13098 0.8177 0.08139 0.9487 0.47435 0.131 0.39295 -0.0814 0.81769 -0.4744 0.94868 -0.82937 0.27647 -1.89642 0.27647 -2.7258 0.00002 -0.22396 -0.07465 -0.3997 -0.25038 -0.47435 -0.47433 -0.27649 -0.82943 -0.27649 -1.89649 -0.00002 -2.7259 0.13099 -0.39296 0.55573 -0.60533 0.94868 -0.47434 0.39296 0.13099 0.60533 0.55573 0.47434 0.94868 -0.03531 0.10595 -0.06345 0.22067 -0.08442 0.3406l1.41833 -1.41832c0.29284 -0.29289 0.76774 -0.29289 1.06064 0 0.2929 0.29289 0.2929 0.76777 0 1.06066L9.47349 5.42846ZM3.64247 6.71509c-0.59163 0 -1.16619 0.05408 -1.70825 0.1145 -0.955997 0.10656 -1.723295 0.87269 -1.825863 1.83137C0.0506346 9.20049 0 9.77067 0 10.3576c0 0.5868 0.0506347 1.157 0.108357 1.6965 0.102568 0.9587 0.869866 1.7249 1.825863 1.8314 0.54206 0.0604 1.11661 0.1145 1.70825 0.1145 0.59163 0 1.16618 -0.0541 1.70825 -0.1145 0.95599 -0.1065 1.72329 -0.8727 1.82586 -1.8314 0.05772 -0.5395 0.10835 -1.1097 0.10835 -1.6965 0 -0.58693 -0.05063 -1.15711 -0.10835 -1.69664 -0.10257 -0.95868 -0.86987 -1.72481 -1.82586 -1.83137 -0.54207 -0.06042 -1.11662 -0.1145 -1.70825 -0.1145Z" clip-rule="evenodd" stroke-width="1"></path>
  </g>
</svg>