<svg xmlns="http://www.w3.org/2000/svg" fill="none" viewBox="0 0 14 14" id="Back-Camera-1--Streamline-Flex">
  <desc>
    Back Camera 1 Streamline Icon: https://streamlinehq.com
  </desc>
  <g id="back-camera-1--android-phone-mobile-device-smartphone-iphone-camera-lenses">
    <path id="Subtract" fill="currentColor" fill-rule="evenodd" d="M9.48816 13.9025c-1.69442 0.13 -3.2819 0.13 -4.97631 0 -1.43396 -0.1101 -2.48345 -1.3434 -2.59661 -2.7693 -0.22032 -2.77603 -0.22032 -5.49037 0 -8.2664C2.0284 1.44095 3.07789 0.207577 4.51185 0.0975286c1.69441 -0.1300373 3.28189 -0.1300383 4.9763 -0.0000019C10.9221 0.207575 11.9716 1.44095 12.0848 2.8668c0.2203 2.77603 0.2203 5.49037 0 8.2664 -0.1132 1.4258 -1.1627 2.6592 -2.59664 2.7693ZM7.00582 2.18705c0.45136 0.00309 0.8163 0.36994 0.8163 0.82203 0 0.454 -0.36804 0.82204 -0.82205 0.82204 -0.00201 0 -0.00402 -0.00001 -0.00603 -0.00003 -0.45136 -0.00309 -0.81631 -0.36994 -0.81631 -0.82203 0 -0.45401 0.36805 -0.82205 0.82205 -0.82205 0.00202 0 0.00403 0.00001 0.00604 0.00004Z" clip-rule="evenodd" stroke-width="1"></path>
  </g>
</svg>