<svg xmlns="http://www.w3.org/2000/svg" fill="none" viewBox="0 0 14 14" id="One-Handed-Holding-Tablet-Handheld--Streamline-Flex">
  <desc>
    One Handed Holding Tablet Handheld Streamline Icon: https://streamlinehq.com
  </desc>
  <g id="one-handed-holding-tablet-handheld">
    <path id="Union" fill="currentColor" fill-rule="evenodd" d="M5.20221 0.25c-0.76578 0 -1.51888 0.071104 -2.25567 0.162019C1.60194 0.577936 0.532831 1.72913 0.406908 3.13249 0.320914 4.09086 0.25 5.07363 0.25 6.07489c0 1.00125 0.070914 1.98402 0.156909 2.94239C0.532832 10.4206 1.60194 11.5718 2.94654 11.7377c0.73679 0.091 1.48989 0.1621 2.25567 0.1621 0.76577 0 1.51887 -0.0711 2.25566 -0.1621 0.25613 -0.0316 0.50227 -0.0989 0.7338 -0.197l-0.71476 -0.7266c-0.39369 -0.4003 -0.71842 -0.94549 -0.83288 -1.55389 -0.11954 -0.63541 -0.01069 -1.41478 0.59636 -2.02079 0.26013 -0.25968 0.55005 -0.43263 0.77305 -0.54354 0.65657 -0.32655 1.4234 -0.31866 2.06916 0.00453 0.0209 0.01044 0.0416 0.02104 0.0621 0.03179 0.0063 -0.21817 0.0097 -0.4373 0.0097 -0.65731 0 -1.00126 -0.0709 -1.98403 -0.1569 -2.9424C9.87158 1.72913 8.80247 0.577936 7.45787 0.412019 6.72109 0.321104 5.96798 0.25 5.20221 0.25ZM11.215 9.23438c0.0871 -0.97029 0.1564 -1.97081 0.1564 -3.02817 0 -0.80093 -0.043 -1.58413 -0.1016 -2.33862l0.0018 -0.00187c1.4419 0.77491 1.8426 1.82833 2.2158 3.09337 0.152 0.68808 0.1854 1.27652 0.2313 2.08476v0.00001l0.0042 0.07376c0.103 1.80878 -0.1179 4.63238 -0.1179 4.63238h-2.5484c-1.22488 -0.3349 -1.74148 -1.9014 -1.83314 -2.9429l-0.85531 -0.86958c-0.49546 -0.50371 -0.74459 -1.31429 -0.24456 -1.81345 0.1321 -0.13187 0.29476 -0.23347 0.44659 -0.30898 0.29999 -0.14921 0.65346 -0.14681 0.95308 0.00314 0.51654 0.25849 0.92694 0.66716 1.34014 1.07853l0.0001 0.00006c0.116 0.11547 0.2322 0.23115 0.351 0.34378l-0.0021 -0.01184 0.0026 0.00562Z" clip-rule="evenodd" stroke-width="1"></path>
  </g>
</svg>