<svg xmlns="http://www.w3.org/2000/svg" fill="none" viewBox="0 0 14 14" id="Link-Share-2--Streamline-Flex">
  <desc>
    Link Share 2 Streamline Icon: https://streamlinehq.com
  </desc>
  <g id="link-share-2--create-hyperlink-link-make-unlink-square">
    <path id="Union" fill="currentColor" fill-rule="evenodd" d="M12.5977 5.71853c-0.3959 0.03576 -0.7754 -0.16636 -0.9666 -0.51485 -0.1685 -0.30696 -0.3474 -0.59083 -0.5399 -0.85466L8.31991 7.12036c-0.39053 0.39053 -1.02369 0.39053 -1.41422 0.00001 -0.39053 -0.39052 -0.39053 -1.02369 -0.00001 -1.41421L9.68099 2.9308c-0.27229 -0.20085 -0.56604 -0.387 -0.88467 -0.56186 -0.34849 -0.19124 -0.55061 -0.57072 -0.51485 -0.96662 0.03575 -0.3959 0.3026 -0.733028 0.67971 -0.858732C10.1355 0.152133 11.6496 0.152132 12.824 0.543616c0.2986 0.09954 0.5329 0.333859 0.6324 0.632464 0.3915 1.17433 0.3915 2.68838 0 3.86274 -0.1257 0.37711 -0.4628 0.64396 -0.8587 0.67971ZM7.72397 3.12008c-0.10723 -0.10233 -0.20351 -0.21452 -0.28784 -0.33462 -1.57389 -0.06563 -3.14191 -0.0661 -4.71781 0.04042C1.51258 2.90739 0.593077 3.87408 0.467706 5.04006 0.357843 6.06181 0.25 7.14099 0.25 8.25002c0 1.09499 0.105114 2.16068 0.213488 3.17068 0.127691 1.1901 1.079282 2.1586 2.298772 2.2347 2.0209 0.1262 3.95458 0.1262 5.97548 0 1.21949 -0.0761 2.17106 -1.0446 2.29876 -2.2347 0.1084 -1.01 0.2135 -2.07564 0.2135 -3.17062 0 -0.58075 -0.0296 -1.15322 -0.0735 -1.71352 -0.096 -0.07043 -0.1867 -0.14864 -0.2709 -0.23411L9.20379 8.00424c-0.87867 0.87868 -2.30329 0.87869 -3.18198 0.00002 -0.87868 -0.87867 -0.87869 -2.30329 -0.00002 -3.18198l1.70218 -1.7022Z" clip-rule="evenodd" stroke-width="1"></path>
  </g>
</svg>