<svg xmlns="http://www.w3.org/2000/svg" fill="none" viewBox="0 0 14 14" id="New-File-Dash--Streamline-Flex">
  <desc>
    New File Dash Streamline Icon: https://streamlinehq.com
  </desc>
  <g id="new-file-dash">
    <path id="Union" fill="currentColor" fill-rule="evenodd" d="M5.89737 1.50899c0.3508 -0.00628 0.71615 -0.00948 1.10263 -0.00948 0.1346 0 0.26664 0.00039 0.39639 0.00116v2.76208c0 0.96479 0.78124 1.68423 1.69237 1.70324 0.69297 0.01445 1.44264 0.10995 2.00144 0.43396 0.4596 0.26652 0.8553 0.72149 0.9021 1.65862 -0.0007 0.04334 -0.0014 0.08665 -0.0022 0.12992 -0.0008 0.04977 0.0032 0.09849 0.0116 0.1457 0.0425 0.37386 0.3599 0.66431 0.7452 0.66431 0.4142 0 0.75 -0.33578 0.75 -0.75 0 -0.07136 -0.0014 -0.14154 -0.0042 -0.21056 0.0051 -0.34396 0.0077 -0.69007 0.0077 -1.03814 0 -0.41618 -0.0037 -0.82956 -0.0109 -1.23982 -0.0159 -0.89984 -0.3044 -1.79053 -0.8686 -2.52129l-0.5936 0.45837 0.5936 -0.45837C11.7904 2.16307 11.0407 1.4117 9.90167 0.540096 9.46433 0.205441 8.93406 0.0268538 8.39397 0.0145977L8.25159 0.0115519C7.85375 0.00355607 7.43956 -0.000488281 7 -0.000488281c-0.39478 0 -0.76911 0.003262341 -1.1295 0.009720151C5.45635 0.0166527 5.12663 0.358401 5.13405 0.772548c0.00742 0.414152 0.34917 0.743862 0.76332 0.736442Zm6.00803 3.6306c-0.0893 -0.35916 -0.2482 -0.69468 -0.4718 -0.98417 -0.7502 -0.97164 -1.407 -1.63093 -2.44348 -2.42407l0.33686 -0.44023 -0.33686 0.44023c-0.03001 -0.02297 -0.0613 -0.04425 -0.09373 -0.06379v2.59519c0 0.09734 0.0764 0.20049 0.22366 0.20356 0.74898 0.01563 1.82055 0.11301 2.72255 0.636 0.0211 0.01222 0.042 0.02465 0.0628 0.03728ZM3.47648 1.6099c0.41333 -0.02706 0.72646 -0.38406 0.69941 -0.797391C4.14883 0.39918 3.79183 0.086044 3.3785 0.1131c-0.10401 0.006809 -0.20816 0.013911 -0.31264 0.021302C1.76571 0.226376 0.726648 1.25867 0.641724 2.56357c-0.006579 0.10109 -0.012938 0.20244 -0.019074 0.30406 -0.024969 0.41346 0.289966 0.76888 0.70343 0.79385 0.41346 0.02496 0.76887 -0.28997 0.79384 -0.70343 0.006 -0.09929 0.01221 -0.19831 0.01864 -0.29707 0.03572 -0.54883 0.47357 -0.99073 1.03314 -1.03032 0.10197 -0.00721 0.20349 -0.01413 0.30478 -0.02076ZM2.00863 5.88515c0.0067 -0.41416 -0.32361 -0.75533 -0.73777 -0.76203 -0.414161 -0.0067 -0.755335 0.32361 -0.762036 0.73776 -0.006101 0.37712 -0.00919 0.75684 -0.00919 1.13892 0 0.40765 0.003516 0.81261 0.010455 1.21458 0.007149 0.41415 0.348681 0.74409 0.762831 0.73694 0.41415 -0.00715 0.74409 -0.34868 0.73695 -0.76283 -0.00679 -0.39333 -0.01024 -0.78966 -0.01024 -1.18869 0 -0.374 0.00303 -0.74563 0.009 -1.11465Zm0.11924 5.28585c-0.02581 -0.4134 -0.38186 -0.7276 -0.79527 -0.7018 -0.413409 0.0258 -0.727621 0.3819 -0.701813 0.7953l0.010937 0.1715c0.084924 1.3049 1.123986 2.3372 2.424136 2.4292 0.10448 0.0074 0.20863 0.0145 0.31264 0.0213 0.41333 0.0271 0.77033 -0.2861 0.79739 -0.6994 0.02705 -0.4133 -0.28608 -0.7703 -0.69941 -0.7974 -0.10129 -0.0066 -0.20281 -0.0135 -0.30478 -0.0207 -0.55957 -0.0396 -0.99742 -0.4815 -1.03314 -1.0304l-0.01069 -0.1676Zm11.24133 0.0935c0.0258 -0.4134 -0.2884 -0.7695 -0.7018 -0.7953 -0.4134 -0.0258 -0.7695 0.2884 -0.7953 0.7018l-0.0107 0.1676c-0.0357 0.5489 -0.4735 0.9908 -1.0331 1.0304 -0.0722 0.0051 -0.1442 0.01 -0.2161 0.0148 -0.4133 0.0277 -0.72583 0.3852 -0.69812 0.7985 0.0277 0.4133 0.38522 0.7259 0.79852 0.6982 0.0737 -0.005 0.1475 -0.0101 0.2215 -0.0153 1.3002 -0.092 2.3393 -1.1243 2.4242 -2.4292l0.0109 -0.1715Zm-5.11761 2.7236c0.41413 -0.0084 0.7431 -0.3508 0.73478 -0.765 -0.00833 -0.4141 -0.35079 -0.7431 -0.76492 -0.7347 -0.38702 0.0077 -0.79114 0.0117 -1.22145 0.0117 -0.38648 0 -0.75183 -0.0032 -1.10263 -0.0095 -0.41415 -0.0074 -0.7559 0.3223 -0.76332 0.7365 -0.00742 0.4141 0.3223 0.7559 0.73645 0.7633 0.36039 0.0064 0.73472 0.0097 1.1295 0.0097 0.43956 0 0.85375 -0.004 1.25159 -0.012Z" clip-rule="evenodd" stroke-width="1"></path>
  </g>
</svg>