<svg xmlns="http://www.w3.org/2000/svg" fill="none" viewBox="0 0 14 14" id="Open-Hand--Streamline-Flex">
  <desc>
    Open Hand Streamline Icon: https://streamlinehq.com
  </desc>
  <g id="open-hand">
    <path id="Subtract" fill="currentColor" fill-rule="evenodd" d="M6.96349 6.37428c-0.36827 0 -0.66682 -0.29353 -0.66682 -0.65561V1.82132c0 -0.60182 -0.48787 -1.08969 -1.08969 -1.08969 -0.52247 0 -0.97384 0.37053 -1.05453 0.88673 -0.35094 2.24511 -0.40749 4.52084 -0.25374 6.79309L2.50056 7.7663c-0.71029 -0.25898 -1.504978 0.04948 -1.843771 0.71567 -0.307104 0.60389 -0.152814 1.33604 0.373051 1.77023l3.82474 3.1581c0.28589 0.236 0.63159 0.39 0.99989 0.4325 1.80095 0.2079 3.56188 0.2096 5.36213 0.0052 0.3967 -0.0451 0.7799 -0.2098 1.0168 -0.5312 1.6309 -2.2128 1.3014 -7.30705 1.0835 -10.6655 -0.0333 -0.51305 -0.4589 -0.91189 -0.9731 -0.91189 -0.5365 0 -0.9715 0.43496 -0.9715 0.9715v2.955c0 0.36208 -0.2985 0.65561 -0.6668 0.65561 -0.3683 0 -0.6668 -0.29353 -0.6668 -0.65561V1.20419C10.0387 0.539134 9.49956 0 8.83451 0c-0.66506 0 -1.20419 0.539134 -1.20419 1.20419v4.51448c0 0.36208 -0.29855 0.65561 -0.66683 0.65561Zm-3.12951 0.7131c0.01274 0.42907 0.03404 0.86858 0.06477 1.32295 1.23095 0.13938 2.05371 0.67198 2.48399 1.59437 0.15354 0.3291 0.54937 0.4735 0.88411 0.3226 0.33475 -0.151 0.48165 -0.54016 0.32811 -0.86928 -0.70989 -1.52174 -2.09808 -2.23274 -3.76098 -2.37064Z" clip-rule="evenodd" stroke-width="1"></path>
  </g>
</svg>