<svg xmlns="http://www.w3.org/2000/svg" fill="none" viewBox="0 0 14 14" id="Page-Setting--Streamline-Flex">
  <desc>
    Page Setting Streamline Icon: https://streamlinehq.com
  </desc>
  <g id="page-setting--page-setting-square-triangle-circle-line-combination-variation">
    <path id="Union" fill="currentColor" fill-rule="evenodd" d="M10.1451 0.244287c0.3398 -0.325716 0.87 -0.325716 1.2098 0 0.7891 0.756403 2.0523 2.390523 2.6068 4.230463 0.1225 0.40658 -0.0555 0.86876 -0.476 1.05598 -0.5547 0.24704 -1.5363 0.54834 -2.7357 0.54834 -1.19944 0 -2.18096 -0.3013 -2.73574 -0.54834 -0.42045 -0.18722 -0.59847 -0.64941 -0.47594 -1.05598C8.09282 2.63481 9.356 1.00069 10.1451 0.244287ZM1.47155 0.12089C1.9874 0.0613266 2.54712 0 3.125 0c0.57788 0 1.1376 0.0613266 1.65345 0.12089 0.71011 0.081993 1.27732 0.647787 1.35673 1.36044C6.1925 1.99577 6.25 2.55136 6.25 3.125c0 0.57363 -0.0575 1.12922 -0.11482 1.64367 -0.07941 0.71265 -0.64662 1.27845 -1.35673 1.36044C4.2626 6.18867 3.70288 6.25 3.125 6.25c-0.57788 0 -1.1376 -0.06133 -1.65345 -0.12089C0.761435 6.04712 0.194226 5.48132 0.114821 4.76867 0.0575016 4.25422 0 3.69863 0 3.125c0 -0.57364 0.0575015 -1.12923 0.114821 -1.64367C0.194226 0.768677 0.761435 0.202883 1.47155 0.12089ZM3.125 7.75c-0.93203 0 -1.73079 0.26368 -2.296053 0.82895C0.263682 9.14421 0 9.94297 0 10.875c0 0.932 0.263682 1.7308 0.828947 2.2961C1.39421 13.7363 2.19297 14 3.125 14c0.93203 0 1.73079 -0.2637 2.29605 -0.8289 0.56527 -0.5653 0.82895 -1.3641 0.82895 -2.2961 0 -0.93203 -0.26368 -1.73079 -0.82895 -2.29605C4.85579 8.01368 4.05703 7.75 3.125 7.75Zm5.52979 0.17871c-0.41422 0 -0.75 0.33579 -0.75 0.75s0.33578 0.75 0.75 0.75H13.25c0.4142 0 0.75 -0.33579 0.75 -0.75s-0.3358 -0.75 -0.75 -0.75H8.65479Zm0 2.28569c-0.41422 0 -0.75 0.3357 -0.75 0.75 0 0.4142 0.33578 0.75 0.75 0.75H13.25c0.4142 0 0.75 -0.3358 0.75 -0.75 0 -0.4143 -0.3358 -0.75 -0.75 -0.75H8.65479Zm-0.75 3.0356c0 -0.4142 0.33578 -0.75 0.75 -0.75H13.25c0.4142 0 0.75 0.3358 0.75 0.75s-0.3358 0.75 -0.75 0.75H8.65479c-0.41422 0 -0.75 -0.3358 -0.75 -0.75Z" clip-rule="evenodd" stroke-width="1"></path>
  </g>
</svg>