<svg xmlns="http://www.w3.org/2000/svg" fill="none" viewBox="0 0 14 14" id="Paintbrush-1--Streamline-Flex">
  <desc>
    Paintbrush 1 Streamline Icon: https://streamlinehq.com
  </desc>
  <g id="paintbrush-1--brush-color-colors-design-paint-painting">
    <path id="Union" fill="currentColor" fill-rule="evenodd" d="M4.72754 2.17697c0 0.87862 0.19089 1.97888 0.42822 2.99328H2.47754c-1.800001 0 -2.250001 1.45129 -2.250001 2.17694 0 0.60115 0.50368 1.08848 1.125001 1.08848 3.76536 0.29911 7.48464 0.29911 11.24996 0 0.6214 0 1.125 -0.48733 1.125 -1.08848 0 -0.72565 -0.45 -2.17694 -2.25 -2.17694H8.79936c0.23733 -1.0144 0.42822 -2.11466 0.42822 -2.99328C9.22758 0.435393 7.72757 0 6.97756 0c-0.75001 0 -2.25002 0.435393 -2.25002 2.17697ZM1.29421 9.68496c-0.03219 -0.00078 -0.06427 -0.00221 -0.09622 -0.00427 -0.07007 0.76511 -0.19721 1.73541 -0.410295 2.56991 -0.188684 0.739 0.353285 1.5617 1.127575 1.5617 0.27027 0.0129 0.54494 0.0285 0.82223 0.0442 2.81936 0.1597 5.90864 0.3346 7.3875 -2.0942v2.05c0.8308 0.3422 3.1826 0.33 3.0765 -1.0231 -0.0623 -0.7937 -0.1923 -2.0672 -0.4313 -3.10939 -0.0363 0.00254 -0.0727 0.00426 -0.1093 0.00515 -3.80385 0.30005 -7.56287 0.30005 -11.36669 0Z" clip-rule="evenodd" stroke-width="1"></path>
  </g>
</svg>