<svg xmlns="http://www.w3.org/2000/svg" fill="none" viewBox="0 0 14 14" id="Paperclip-2--Streamline-Flex">
  <desc>
    Paperclip 2 Streamline Icon: https://streamlinehq.com
  </desc>
  <g id="paperclip-2--attachment-link-paperclip-unlink">
    <path id="Vector_2 (Stroke)" fill="currentColor" fill-rule="evenodd" d="M4.38846 11.4668c-0.50772 -0.9785 -0.71854 -2.56457 -0.71854 -4.5309 0 -1.97221 0.19634 -3.34359 0.68195 -4.21129 0.23045 -0.41176 0.52296 -0.70312 0.90041 -0.89941 0.38567 -0.20057 0.90558 -0.32521 1.62019 -0.32521 1.39417 0 2.17649 0.4658 2.66517 1.25366 0.53686 0.86556 0.79226 2.23318 0.79226 4.18225 0 1.54306 -0.0001 2.32625 -0.2223 3.9509 -0.0562 0.4104 0.231 0.7886 0.6414 0.8447 0.4104 0.0562 0.7886 -0.231 0.8447 -0.6414 0.2362 -1.72655 0.2362 -2.59098 0.2362 -4.15221V6.9359c0 -2.00991 -0.2499 -3.73525 -1.0176 -4.9729C9.99649 0.647648 8.67508 -0.0000143051 6.87247 -0.0000143051c-0.88379 0 -1.65715 0.1537213051 -2.31227 0.4944183051 -0.66336 0.344978 -1.15918 0.857796 -1.51728 1.497636 -0.69145 1.23551 -0.873 2.95709 -0.873 4.94386 0 1.99266 0.20022 3.8979 0.88709 5.2217 0.35363 0.6816 0.85929 1.2538 1.57069 1.5743 0.71168 0.3207 1.53243 0.3459 2.43324 0.117 0.45435 -0.1155 0.85345 -0.3272 1.17434 -0.6676 0.31451 -0.3335 0.5118 -0.7461 0.6411 -1.1972 0.24927 -0.8696 0.29009 -2.05867 0.29009 -3.53558 0 -0.03364 0.00001 -0.06719 0.00001 -0.10064 0.00012 -1.41048 0.00023 -2.65178 -0.21364 -3.53426 -0.11295 -0.46608 -0.30576 -0.92912 -0.67133 -1.27421 -0.38559 -0.36397 -0.87409 -0.51421 -1.40529 -0.51421 -0.53119 0 -1.01969 0.15024 -1.40528 0.51421 -0.36557 0.34509 -0.55839 0.80813 -0.67133 1.27421 -0.21386 0.88248 -0.21376 2.12378 -0.21364 3.53426 0 0.03345 0.00001 0.067 0.00001 0.10064v0.61397c0 0.41421 0.33578 0.75 0.75 0.75 0.41421 0 0.75 -0.33579 0.75 -0.75v-0.61397c0 -1.53888 0.0053 -2.59609 0.17143 -3.28161 0.07958 -0.32839 0.17557 -0.47288 0.24319 -0.53671 0.04761 -0.04494 0.13669 -0.105 0.37562 -0.105 0.23894 0 0.32802 0.06006 0.37564 0.105 0.06761 0.06383 0.1636 0.20832 0.24318 0.53671 0.16613 0.68552 0.17143 1.74273 0.17143 3.28161 0 1.51403 -0.05054 2.48918 -0.23202 3.12228 -0.08607 0.3003 -0.189 0.4738 -0.29055 0.5815 -0.09518 0.1009 -0.22799 0.1857 -0.45239 0.2428 -0.66631 0.1693 -1.12366 0.1152 -1.44762 -0.0308 -0.32423 -0.1461 -0.61176 -0.4279 -0.85543 -0.8975Z" clip-rule="evenodd" stroke-width="1"></path>
  </g>
</svg>