<svg xmlns="http://www.w3.org/2000/svg" fill="none" viewBox="0 0 14 14" id="Party-Popper--Streamline-Flex">
  <desc>
    Party Popper Streamline Icon: https://streamlinehq.com
  </desc>
  <g id="party-popper--hobby-entertainment-party-popper-confetti-event">
    <path id="Union" fill="currentColor" fill-rule="evenodd" d="M6.30936 0.982947c-0.12855 -0.393764 0.08646 -0.817176 0.48022 -0.9457169 0.39377 -0.1285413 0.81718 0.0864639 0.94572 0.4802279 0.32205 0.986542 0.27967 2.055852 -0.11945 3.013802 -0.1593 0.38236 -0.5984 0.56318 -0.98076 0.40388 -0.38235 -0.1593 -0.56317 -0.59841 -0.40387 -0.98076 0.26107 -0.62663 0.2888 -1.32611 0.07814 -1.971433ZM9.76102 2.23164c-0.41027 0.05704 -0.69662 0.43587 -0.63958 0.84614 0.04221 0.30358 -0.02801 0.61211 -0.19744 0.86753 -0.22896 0.34517 -0.13476 0.81061 0.21042 1.03958 0.34518 0.22896 0.81061 0.13476 1.03958 -0.21042 0.3717 -0.56035 0.5257 -1.23724 0.4332 -1.90325 -0.0571 -0.41026 -0.4359 -0.69661 -0.84618 -0.63958Zm1.41518 5.79165c0.2933 -0.06659 0.6008 -0.02236 0.8634 0.12419 0.3617 0.20184 0.8186 0.07225 1.0204 -0.28945 0.2019 -0.36171 0.0723 -0.81856 -0.2894 -1.0204 -0.586 -0.32699 -1.2722 -0.42569 -1.9265 -0.2771 -0.404 0.09172 -0.6571 0.49352 -0.5653 0.89745 0.0917 0.40394 0.4935 0.65703 0.8974 0.56531Zm0.5818 -4.0536c0 0.41421 0.3358 0.75 0.75 0.75h0.7421c0.4142 0 0.75 -0.33579 0.75 -0.75 0 -0.41422 -0.3358 -0.75 -0.75 -0.75h-0.7421c-0.4142 0 -0.75 0.33578 -0.75 0.75Zm-9.37994 0.65796c0.45434 -0.78187 1.46634 -0.99775 2.20549 -0.49639 0.86555 0.58709 2.17812 1.51862 2.93901 2.26933 0.76085 0.75067 1.71001 2.05045 2.30877 2.90797 0.51137 0.73234 0.30917 1.74724 -0.46658 2.21204 -2.48834 1.4911 -5.28331 2.591 -7.97853 2.4705 -0.737966 -0.033 -1.3278518 -0.615 -1.370834 -1.3524C-0.14159 9.94537 0.920618 7.13579 2.37806 4.62765Z" clip-rule="evenodd" stroke-width="1"></path>
  </g>
</svg>