<svg xmlns="http://www.w3.org/2000/svg" fill="none" viewBox="0 0 14 14" id="Button-Pause-2--Streamline-Flex">
  <desc>
    Button Pause 2 Streamline Icon: https://streamlinehq.com
  </desc>
  <g id="button-pause-2--button-television-buttons-movies-tv-pause-video-controls">
    <path id="Union" fill="currentColor" fill-rule="evenodd" d="M13.6317 2.81037v-0.00002l0 -0.00043c-0.0147 -0.3424 -0.0293 -0.68089 -0.0426 -1.01501 -0.0264 -0.6607 -0.4871 -1.26136 -1.1759 -1.390375 -1.1 -0.206047 -1.9964 -0.206047 -3.09641 0 -0.68874 0.129016 -1.14945 0.729675 -1.17584 1.390375 -0.01336 0.33426 -0.02792 0.67291 -0.04265 1.01546C8.04044 4.15598 7.97998 5.56198 7.97998 7c0 1.43803 0.06046 2.84403 0.11832 4.1896 0.01473 0.3426 0.02929 0.6812 0.04265 1.0155 0.02639 0.6607 0.4871 1.2613 1.17584 1.3904 1.10001 0.206 1.99641 0.206 3.09641 0 0.6888 -0.1291 1.1495 -0.7297 1.1759 -1.3904 0.0133 -0.3341 0.0279 -0.6726 0.0426 -1.015l0 -0.0004C13.6896 9.84404 13.75 8.43803 13.75 7c0 -1.43803 -0.0604 -2.84402 -0.1183 -4.18963Zm-7.73046 -0.00002 0 0.00002C5.9591 4.15598 6.01956 5.56197 6.01956 7c0 1.43803 -0.06046 2.84402 -0.11832 4.1896l0 0.0001c-0.01473 0.3425 -0.0293 0.6811 -0.04265 1.0154 -0.02639 0.6607 -0.4871 1.2613 -1.17585 1.3904 -1.09998 0.206 -1.99643 0.206 -3.09642 0 -0.688743 -0.1291 -1.149449 -0.7297 -1.175843 -1.3904 -0.013353 -0.3343 -0.027914 -0.6729 -0.042644 -1.0155C0.30997 9.84403 0.249512 8.43803 0.249512 7c0 -1.43802 0.060459 -2.84402 0.118321 -4.18962l0 -0.00001c0.01473 -0.34255 0.029292 -0.6812 0.042645 -1.01546C0.436872 1.13421 0.897577 0.533551 1.58632 0.404535c1.09999 -0.206047 1.99644 -0.206047 3.09643 0C5.37149 0.53355 5.8322 1.13421 5.85859 1.79491c0.01335 0.33426 0.02792 0.67289 0.04265 1.01544Z" clip-rule="evenodd" stroke-width="1"></path>
  </g>
</svg>