<svg xmlns="http://www.w3.org/2000/svg" fill="none" viewBox="0 0 14 14" id="Pencil--Streamline-Flex">
  <desc>
    Pencil Streamline Icon: https://streamlinehq.com
  </desc>
  <g id="pencil--change-edit-modify-pencil-write-writing">
    <path id="Subtract" fill="currentColor" fill-rule="evenodd" d="M7.96429 0.920908C9.22473 -0.388108 11.4308 -0.288093 12.8609 1.1429c1.4291 1.4301 1.5285 3.63457 0.2206 4.89452L7.62679 11.2921c-0.12234 0.1179 -0.32416 0.082 -0.40331 -0.0683C6.2205 9.31923 4.66455 7.7663 2.79055 6.76631c-0.14933 -0.07968 -0.1845 -0.28066 -0.0671 -0.40258L7.96429 0.920908ZM1.70392 7.65491c-0.09458 -0.04219 -0.20515 -0.01931 -0.27698 0.05529l-0.04766 0.0495 -0.00653 0.00693c-0.04797 0.05157 -0.08309 0.11505 -0.10188 0.18629L0.0322352 12.649C-0.167075 13.4046 0.59282 14.1659 1.3488 13.9679l4.69609 -1.2297c0.07935 -0.0208 0.1491 -0.0618 0.20356 -0.1183l0.04141 -0.0399c0.07445 -0.0717 0.09736 -0.182 0.05543 -0.2765 -0.92161 -2.0767 -2.58768 -3.73252 -4.64137 -4.64859Z" clip-rule="evenodd" stroke-width="1"></path>
  </g>
</svg>