<svg xmlns="http://www.w3.org/2000/svg" fill="none" viewBox="0 0 14 14" id="Piggy-Bank--Streamline-Flex">
  <desc>
    Piggy Bank Streamline Icon: https://streamlinehq.com
  </desc>
  <g id="piggy-bank--institution-saving-bank-payment-finance">
    <path id="Subtract" fill="currentColor" fill-rule="evenodd" d="M10.9941 1.99562c0.1463 -0.88752 -0.5334 -1.858438 -1.55752 -1.735678 -0.71625 0.085857 -1.59021 0.328952 -2.24805 1.035968 -0.27049 -0.03386 -0.5464 -0.05132 -0.82648 -0.05132 -1.62299 0 -3.11382 0.59072 -4.21677 1.56184 -0.18526 -0.22 -0.33941 -0.469 -0.44196 -0.74685 -0.14342 -0.38859 -0.5747 -0.58734 -0.963293 -0.44392 -0.388591 0.14342 -0.58734 0.5747 -0.443918 0.96329 0.20066 0.54368 0.509528 0.99599 0.853421 1.36457 -0.569483 0.85701 -0.899723 1.86847 -0.899723 2.95952 0 0.98001 0.269357 1.90116 0.740833 2.70289 -0.014624 0.04908 -0.027718 0.09892 -0.039225 0.14949l-0.26694 1.17298c-0.281176 1.2356 0.480425 2.4753 1.714085 2.7623 1.07522 0.2501 2.14196 -0.3088 2.58627 -1.2735 0.44312 0.0945 0.90419 0.1443 1.37722 0.1443 0.31499 0 0.62469 -0.0221 0.92733 -0.0647 0.46521 0.9157 1.50254 1.437 2.54776 1.1939 1.08016 -0.2513 1.79836 -1.233 1.77166 -2.3028l1.3025 -0.6584c0.5159 -0.2608 0.8385 -0.79175 0.8385 -1.369V6.90304c0 -0.83463 -0.6658 -1.52166 -1.502 -1.53157 -0.2695 -0.88965 -0.7666 -1.6871 -1.4249 -2.33734l0.1712 -1.03851ZM6.97949 4.16064c0 0.34518 -0.27982 0.625 -0.625 0.625H4.83573c-0.34518 0 -0.625 -0.27982 -0.625 -0.625 0 -0.34517 0.27982 -0.625 0.625 -0.625l1.51876 0c0.34518 0 0.625 0.27983 0.625 0.625ZM10.375 6.0531c0 -0.34518 -0.2798 -0.625 -0.625 -0.625 -0.34518 0 -0.625 0.27982 -0.625 0.625v0.94693c0 0.34518 0.27982 0.625 0.625 0.625 0.3452 0 0.625 -0.27982 0.625 -0.625V6.0531Z" clip-rule="evenodd" stroke-width="1"></path>
  </g>
</svg>