<svg xmlns="http://www.w3.org/2000/svg" fill="none" viewBox="0 0 14 14" id="Changelog-Replace-Sort-Move-Down--Streamline-Flex">
  <desc>
    Changelog Replace Sort Move Down Streamline Icon: https://streamlinehq.com
  </desc>
  <g id="changelog-replace-sort-move-down--changelog-replace-sort-move-down-rearrange-trend">
    <path id="Union" fill="currentColor" fill-rule="evenodd" d="M2.79319 1.49902c-0.15318 0 -0.288 0.01286 -0.40569 0.03523 -0.40693 0.07736 -0.79952 -0.1898 -0.87688 -0.596725 -0.07736 -0.406925 0.1898 -0.799517 0.59673 -0.8768788 0.22004 -0.0418332 0.44942 -0.061622762 0.68584 -0.061622762 0.23642 0 0.4658 0.019789562 0.68585 0.061622962 0.40692 0.0773616 0.67408 0.4699536 0.59672 0.8768786 -0.07736 0.406925 -0.46995 0.674085 -0.87688 0.596725 -0.11769 -0.02237 -0.25251 -0.03523 -0.40569 -0.03523Zm-1.85481 0.01075c0.40692 0.07736 0.67409 0.46995 0.59673 0.87687 -0.02238 0.11769 -0.03523 0.25252 -0.03523 0.4057 0 0.15317 0.01285 0.288 0.03523 0.40569 0.07736 0.40692 -0.18981 0.79952 -0.596731 0.87688 -0.406925 0.07736 -0.799517 -0.1898 -0.8768783 -0.59673 -0.0418333 -0.22004 -0.06162277 -0.44942 -0.06162277 -0.68584 0 -0.23642 0.01978947 -0.4658 0.06162287 -0.68585C0.138862 1.69957 0.531455 1.4324 0.93838 1.50977Zm3.70962 0c0.40693 -0.07737 0.79952 0.1898 0.87688 0.59672 0.04184 0.22005 0.06162 0.44943 0.06162 0.68585 0 0.23642 -0.01978 0.4658 -0.06162 0.68584 -0.07736 0.40693 -0.46995 0.67409 -0.87688 0.59673 -0.40692 -0.07736 -0.67409 -0.46996 -0.59672 -0.87688 0.02237 -0.11769 0.03522 -0.25252 0.03522 -0.40569 0 -0.15318 -0.01285 -0.28801 -0.03522 -0.4057 -0.07737 -0.40692 0.1898 -0.79951 0.59672 -0.87687ZM1.51062 4.64715c0.07736 -0.40693 0.46995 -0.67409 0.87688 -0.59673 0.11769 0.02238 0.25251 0.03523 0.40569 0.03523 0.15318 0 0.288 -0.01285 0.40569 -0.03523 0.40693 -0.07736 0.79952 0.1898 0.87688 0.59673 0.07736 0.40692 -0.1898 0.79952 -0.59673 0.87688 -0.22004 0.04183 -0.44942 0.06162 -0.68584 0.06162 -0.23642 0 -0.4658 -0.01979 -0.68584 -0.06162 -0.40693 -0.07736 -0.67409 -0.46996 -0.59673 -0.87688Zm1.28257 3.76594c-0.79191 0 -1.5165 0.22504 -2.042381 0.75093 -0.525885 0.52588 -0.75093107 1.25048 -0.75093107 2.04238S0.224924 12.7229 0.750809 13.2488c0.525881 0.5259 1.250471 0.7509 2.042381 0.7509 0.79191 0 1.5165 -0.225 2.04238 -0.7509 0.52589 -0.5259 0.75093 -1.2505 0.75093 -2.0424 0 -0.7919 -0.22504 -1.5165 -0.75093 -2.04238 -0.52588 -0.52589 -1.25047 -0.75093 -2.04238 -0.75093Zm6.99317 3.71771c0.03185 0.3153 0.08344 0.6335 0.15479 0.9583 0.06195 0.2823 -0.04369 0.575 -0.2717 0.7526 -0.22801 0.1776 -0.53776 0.2084 -0.79625 0.0791 -0.89636 -0.4482 -1.76527 -1.3171 -2.21345 -2.2134 -0.10558 -0.2111 -0.10558 -0.4597 -0.00001 -0.6708 0.44818 -0.8964 1.3171 -1.76533 2.21346 -2.21351 0.25849 -0.12925 0.56824 -0.09847 0.79625 0.0791 0.22801 0.17757 0.33365 0.47035 0.2717 0.75262 -0.07252 0.33014 -0.12463 0.65349 -0.15634 0.97379 0.20659 -0.0113 0.40949 -0.023 0.60619 -0.0349 1.0158 -0.0615 1.8272 -0.81539 1.9414 -1.7968 0.0935 -0.80362 0.1677 -1.66321 0.1677 -2.35212 0 -0.63107 -0.0623 -1.40668 -0.1451 -2.15298 -0.1157 -1.04339 -1.0249 -1.83198 -2.1293 -1.83198l-2.47607 0c-0.41421 0 -0.75 -0.33578 -0.75 -0.75 0 -0.41421 0.33579 -0.749996 0.75 -0.749996l2.47607 0c1.8136 0 3.4143 1.309846 3.6202 3.166676 0.0849 0.76612 0.1542 1.60536 0.1542 2.31828 0 0.77624 -0.0822 1.70371 -0.1778 2.52544 -0.2015 1.73268 -1.629 3.01708 -3.3406 3.12068 -0.2244 0.0136 -0.4574 0.027 -0.69534 0.0399Z" clip-rule="evenodd" stroke-width="1"></path>
  </g>
</svg>