<svg xmlns="http://www.w3.org/2000/svg" fill="none" viewBox="0 0 14 14" id="Triangle-Arrow-Rotate-Left-4--Streamline-Flex">
  <desc>
    Triangle Arrow Rotate Left 4 Streamline Icon: https://streamlinehq.com
  </desc>
  <g id="triangle-arrow-rotate-left-4">
    <path id="Union" fill="currentColor" fill-rule="evenodd" d="M2.271 6.72916c0 -2.61177 2.11725 -4.72902 4.72902 -4.72902 2.61176 0 4.72898 2.11725 4.72898 4.72902 0 2.00351 -1.2463 3.71844 -3.00948 4.40694 -0.51444 0.2009 -0.76862 0.7809 -0.56771 1.2953 0.20091 0.5144 0.78081 0.7686 1.29526 0.5677 2.50473 -0.9782 4.28193 -3.41528 4.28193 -6.26994 0 -3.71634 -3.0126 -6.729022546 -6.72898 -6.729022591C3.28368 0.000137365 0.270996 3.01282 0.270996 6.72916c0 1.6251 0.576158 3.11496 1.534254 4.27724 -0.19125 0.3987 -0.34518 0.772 -0.46665 1.1039 -0.16922 0.4622 -0.12776 0.9528 0.12284 1.3305 0.25722 0.3877 0.70493 0.6067 1.21568 0.5503 1.08626 -0.12 2.18349 -0.5165 2.94166 -0.8838 0.58965 -0.2856 0.9522 -0.9136 0.90476 -1.5671 -0.06099 -0.8402 -0.26629 -1.98864 -0.70548 -2.98937 -0.20651 -0.47054 -0.62003 -0.74877 -1.08437 -0.77769 -0.4524 -0.02818 -0.89799 0.18122 -1.21373 0.55891 -0.19039 0.22774 -0.39467 0.48996 -0.60318 0.78441 -0.41067 -0.70099 -0.64578 -1.51689 -0.64578 -2.3873Z" clip-rule="evenodd" stroke-width="1"></path>
  </g>
</svg>