<svg xmlns="http://www.w3.org/2000/svg" fill="none" viewBox="0 0 14 14">
  <g id="image-photo-delete--image-photo-delete-cross-remove-disable">
    <path id="Union" fill="currentColor" fill-rule="evenodd" d="M5.75 0C4.65637 0 3.59194 0.112934 2.5842 0.228827 1.3457 0.371258 0.354849 1.36058 0.217247 2.60189 0.105986 3.60557 0 4.66332 0 5.75c0 1.08668 0.105986 2.14443 0.217247 3.14811C0.354849 10.1394 1.3457 11.1287 2.5842 11.2712c1.00774 0.1159 2.07217 0.2288 3.1658 0.2288 0.90451 0 1.78904 -0.0773 2.63804 -0.1695l0.05675 -0.0568 -0.56262 -0.5626c-0.22957 -0.2296 -0.39167 -0.5011 -0.48629 -0.78988C6.84724 9.96869 6.30021 10 5.74996 10c-0.9991 0 -1.9876 -0.10322 -2.99442 -0.21901 -0.54702 -0.0629 -0.98732 -0.50561 -1.04747 -1.04814 -0.10952 -0.98806 -0.2058 -1.96264 -0.20807 -2.94733 0.55687 -0.422 1.19223 -0.7214 1.8775 -0.7214 0.73497 0 1.41253 0.34441 1.99742 0.81509 0.58843 0.47354 1.12703 1.10965 1.59536 1.77862 0.18037 0.25764 0.35236 0.52311 0.51462 0.79011 0.09586 -0.20459 0.22829 -0.39629 0.39727 -0.56528 0.78105 -0.78105 2.04738 -0.78105 2.82843 0l0.5626 0.56262 0.0655 -0.06552c0.0884 -0.84712 0.1613 -1.72849 0.1613 -2.62976 0 -1.08668 -0.106 -2.14443 -0.2172 -3.14811 -0.1376 -1.24131 -1.1285 -2.230632 -2.367 -2.373063C7.90806 0.112934 6.84363 0 5.75 0Zm2.18409 2.30095c-0.44391 0 -0.82601 0.12562 -1.0969 0.39651 -0.27089 0.27089 -0.39652 0.653 -0.39652 1.09691s0.12563 0.82601 0.39652 1.0969c0.27089 0.27089 0.65299 0.39651 1.0969 0.39651 0.44392 0 0.82602 -0.12562 1.09691 -0.39651 0.27089 -0.27089 0.39652 -0.65299 0.39652 -1.0969s-0.12563 -0.82602 -0.39652 -1.09691c-0.27089 -0.27089 -0.65299 -0.39651 -1.09691 -0.39651Zm0.83197 6.4656c0.29289 -0.2929 0.76776 -0.2929 1.06066 0L11.2732 10.213l1.4464 -1.44632c0.2929 -0.29289 0.7678 -0.29289 1.0607 0 0.2928 0.2929 0.2928 0.76777 0 1.06066l-1.4464 1.44636 1.4463 1.4464c0.2929 0.2929 0.2929 0.7677 0 1.0606 -0.2929 0.2929 -0.7677 0.2929 -1.0606 0l-1.4464 -1.4463 -1.44647 1.4465c-0.29289 0.2929 -0.76777 0.2929 -1.06066 0s-0.29289 -0.7678 0 -1.0607l1.44653 -1.4465 -1.44654 -1.4465c-0.2929 -0.29289 -0.2929 -0.76776 0 -1.06065Z" clip-rule="evenodd" stroke-width="1"></path>
  </g>
</svg>