<svg xmlns="http://www.w3.org/2000/svg" fill="none" viewBox="0 0 14 14" id="Graduation-Cap--Streamline-Flex">
  <desc>
    Graduation Cap Streamline Icon: https://streamlinehq.com
  </desc>
  <g id="graduation-cap--graduation-cap-education">
    <path id="Union" fill="currentColor" fill-rule="evenodd" d="M0.418821 4.05101c-0.558229 0.36886 -0.557899 0.89767 -0.002181 1.26758 0.196934 0.1311 0.394386 0.25895 0.59248 0.38377l-0.00021 0.01639 0 4.40445c-0.520126 0.2375 -0.881591 0.7622 -0.881591 1.3713 0 0.8321 0.674533 1.5066 1.506611 1.5066 0.83208 0 1.50661 -0.6745 1.50661 -1.5066 0 -0.6091 -0.36148 -1.1338 -0.88163 -1.3713l0 -3.67708c1.14612 0.64366 2.32173 1.2031 3.55031 1.71644 0.70143 0.29308 1.70411 0.29325 2.40354 -0.00115C10.0943 7.36943 11.72 6.53043 13.5812 5.33019c0.5582 -0.36887 0.5579 -0.89767 0.0022 -1.26759 -1.729 -1.15089 -3.4978 -2.05225 -5.39263 -2.84397 -0.70142 -0.293077 -1.7041 -0.29325 -2.40353 0.00115C3.90568 2.01177 2.1408 2.91316 0.418821 4.05101ZM3.10527 8.76655c-0.01562 -0.15859 -0.03002 -0.31929 -0.04228 -0.48185 0.74071 0.36856 1.49393 0.70934 2.26435 1.03125 1.00912 0.42164 2.36019 0.42279 3.37039 -0.00242 0.77659 -0.32689 1.51257 -0.66234 2.23927 -1.02646 -0.0123 0.16175 -0.0266 0.32166 -0.0421 0.47948 -0.1206 1.22388 -1.10566 2.20945 -2.32312 2.33205 -0.50508 0.0509 -1.03168 0.091 -1.57172 0.091 -0.54003 0 -1.06663 -0.0401 -1.57171 -0.091 -1.21746 -0.1226 -2.20253 -1.10817 -2.32308 -2.33205Z" clip-rule="evenodd" stroke-width="1"></path>
  </g>
</svg>