<svg xmlns="http://www.w3.org/2000/svg" fill="none" viewBox="0 0 14 14" id="Screwdriver-Wrench--Streamline-Flex">
  <desc>
    Screwdriver Wrench Streamline Icon: https://streamlinehq.com
  </desc>
  <g id="screwdriver-wrench--tools-construction-tools-wrench-screwdriver-preferences-setting-edit-adjust">
    <path id="Union" fill="currentColor" fill-rule="evenodd" d="M1.87552 0.0111458c0.28479 -0.0148806 0.53647 -0.01485938 0.82126 0.0000537C3.3873 0.0473591 3.92214 0.61215 3.94984 1.29311c0.01974 0.48519 0.02402 0.96068 0.01284 1.44179 -0.015 0.64505 -0.38067 1.22603 -0.92655 1.50926v3.3862c0.04124 0.0028 0.08263 0.00583 0.1242 0.00909 0.74315 0.05826 1.28031 0.67024 1.33128 1.37022 0.04021 0.5522 0.0809 1.14043 0.0809 1.74563 0 0.3121 -0.01078 0.6186 -0.02667 0.9175 -0.06077 1.143 -0.94402 2.3172 -2.22964 2.327l-0.02994 0.0001 -0.02995 -0.0001C0.970696 13.99 0.0874383 12.8158 0.0266753 11.6728 0.0107853 11.3739 0 11.0674 0 10.7553c0 -0.6053 0.0406907 -1.19343 0.0809015 -1.74563C0.131874 8.30969 0.669035 7.69771 1.41218 7.63945c0.04148 -0.00325 0.08279 -0.00627 0.12395 -0.00907l0 -3.38622C0.990256 3.96094 0.624583 3.37995 0.609584 2.7349 0.598396 2.25375 0.60268 1.77823 0.622421 1.29301 0.650124 0.612056 1.18495 0.0472275 1.87552 0.0111458ZM9.78118 13.9965c-0.01805 -0.0006 -0.03615 -0.0013 -0.05431 -0.0019 -0.01816 0.0006 -0.03627 0.0013 -0.05431 0.0019 -0.09753 0.0035 -0.1934 0.007 -0.28737 -0.0036 -1.07489 -0.1205 -1.79384 -1.1784 -1.85034 -2.1698 -0.00378 -0.0663 -0.00752 -0.1303 -0.0112 -0.1932 -0.03476 -0.5946 -0.06412 -1.0968 -0.06412 -2.49788 0 -0.6547 0.02825 -1.8365 0.06214 -2.4555 -0.61749 -0.26225 -1.11924 -0.65222 -1.47505 -1.1694 -0.3983 -0.57892 -0.59276 -1.28668 -0.59276 -2.0878 0 -0.82621 0.20688 -1.55286 0.6302 -2.141C6.50768 0.689759 7.12436 0.272829 7.88699 0.0261389c0.34778 -0.1124981 0.68385 0.1538041 0.68385 0.4987971 0 0.320964 -0.00992 0.648934 -0.01916 0.954604l0 0.00007 0 0.00007c-0.00581 0.19206 -0.01136 0.37545 -0.014 0.54262 -0.00724 0.45747 0.00541 0.83293 0.06856 1.13337 0.06201 0.29506 0.16367 0.47362 0.30152 0.58579 0.13881 0.11295 0.3776 0.21001 0.81908 0.21001 0.44146 0 0.68036 -0.09705 0.81916 -0.21001 0.1378 -0.11217 0.2395 -0.29073 0.3015 -0.58579 0.0631 -0.30044 0.0758 -0.6759 0.0686 -1.13337 -0.0027 -0.16719 -0.0082 -0.35061 -0.014 -0.54269l0 -0.00008c-0.0093 -0.30567 -0.0192 -0.633634 -0.0192 -0.95459 0 -0.344993 0.3361 -0.6112956 0.6838 -0.4987975 0.7627 0.2466905 1.3794 0.6636205 1.803 1.2521775 0.4233 0.58814 0.6302 1.31479 0.6302 2.14101 0 0.80111 -0.1945 1.50887 -0.5928 2.0878 -0.3558 0.51717 -0.8575 0.90714 -1.475 1.16939 0.0339 0.619 0.0621 1.8008 0.0621 2.4555 0 1.40108 -0.0294 1.90328 -0.0641 2.49788 -0.0037 0.0629 -0.0074 0.1269 -0.0112 0.1932 -0.0565 0.9914 -0.7755 2.0493 -1.8504 2.1698 -0.09392 0.0106 -0.1898 0.0071 -0.28732 0.0036Z" clip-rule="evenodd" stroke-width="1"></path>
  </g>
</svg>