<svg xmlns="http://www.w3.org/2000/svg" fill="none" viewBox="0 0 14 14" id="Send--Streamline-Flex">
  <desc>
    Send Streamline Icon: https://streamlinehq.com
  </desc>
  <g id="send--send-email-communication-message-messenger-chat">
    <path id="Union" fill="currentColor" fill-rule="evenodd" d="M0.90541 3.76681c-0.597733 0.53647 -0.586817 1.46661 0.021474 2.00546 0.574106 0.50857 1.366966 1.11576 2.260926 1.61262 0.56412 0.31354 1.18191 0.59067 1.82002 0.76715C6.32007 6.4705 7.81338 5.03445 9.56216 3.76949c0.27968 -0.20231 0.67044 -0.13958 0.87274 0.1401 0.2023 0.27968 0.1395 0.67041 -0.1401 0.87271 -1.70746 1.23505 -3.15346 2.63863 -4.42258 4.29532 0.17706 0.60779 0.44337 1.19568 0.74289 1.73458 0.49687 0.894 1.10406 1.6868 1.61263 2.2609 0.53885 0.6083 1.46899 0.6192 2.00546 0.0215 4.0177 -4.47652 4.0198 -9.37217 3.5697 -11.79192 -0.1043 -0.560983 -0.5446 -1.001245 -1.1056 -1.105586C10.2776 -0.252978 5.38193 -0.250878 0.90541 3.76681Zm1.22918 5.50138c-0.32059 0.20008 -0.54816 0.42765 -0.74823 0.74821 -0.21931 0.3514 -0.681953 0.4585 -1.033347 0.2392 -0.35139419 -0.2193 -0.458473 -0.68196 -0.239168 -1.03335 0.321019 -0.51437 0.712194 -0.90555 1.226565 -1.22657 0.35139 -0.2193 0.81404 -0.11223 1.03334 0.23917 0.21931 0.35139 0.11223 0.81404 -0.23916 1.03334Zm0.09356 3.56551c-0.29289 0.2929 -0.76776 0.2929 -1.06066 0 -0.29289 -0.2929 -0.29289 -0.7678 0 -1.0607L3.023 9.91751c0.29289 -0.2929 0.76776 -0.2929 1.06066 0 0.29289 0.29289 0.29289 0.76779 0 1.06069l-1.85551 1.8555Zm1.75495 -0.2201c0.32058 -0.2001 0.54815 -0.4277 0.74823 -0.7483 0.21931 -0.3513 0.68195 -0.4584 1.03334 -0.2391 0.3514 0.2193 0.45848 0.6819 0.23917 1.0333 -0.32102 0.5144 -0.71219 0.9056 -1.22656 1.2266 -0.3514 0.2193 -0.81404 0.1122 -1.03335 -0.2392 -0.2193 -0.3514 -0.11222 -0.814 0.23917 -1.0333Z" clip-rule="evenodd" stroke-width="1"></path>
  </g>
</svg>