<svg xmlns="http://www.w3.org/2000/svg" fill="none" viewBox="0 0 14 14" id="Animation--Streamline-Flex">
  <desc>
    Animation Streamline Icon: https://streamlinehq.com
  </desc>
  <g id="animation--animation-motion-graphic-animating-moving">
    <path id="Union" fill="currentColor" fill-rule="evenodd" d="M7.88794 0.469357c0.45662 -0.625765 1.36349 -0.62597 1.82001 0.000349L9.30389 0.76422l0.40406 -0.294514c0.51105 0.701114 0.86865 1.455694 1.11155 2.309014 0.8277 0.0059 1.6125 0.12917 2.3934 0.39242 0.734 0.24741 1.008 1.12607 0.5912 1.75962 -0.4765 0.72418 -1.0516 1.31367 -1.7633 1.81423 0.249 0.8177 0.37 1.62778 0.3782 2.47057 0.0075 0.76453 -0.7054 1.38904 -1.4883 1.13504 -0.7786 -0.2526 -1.47595 -0.62669 -2.13478 -1.14761 -0.65834 0.52073 -1.35461 0.89481 -2.13272 1.14751 -0.78297 0.2542 -1.49596 -0.37047 -1.48846 -1.13494 0.00827 -0.84279 0.1292 -1.65287 0.37824 -2.47057 -0.71168 -0.50056 -1.2868 -1.09005 -1.76325 -1.81423 -0.41682 -0.63355 -0.1428 -1.51221 0.59113 -1.75962 0.78094 -0.26325 1.56576 -0.38653 2.39346 -0.39242 0.24329 -0.85374 0.60211 -1.60837 1.11362 -2.309363ZM3.43022 8.67388c0.2929 -0.29289 0.2929 -0.76776 0 -1.06066 -0.29289 -0.29289 -0.76776 -0.29289 -1.06066 0L0.21967 9.76312c-0.2928933 0.29288 -0.2928933 0.76778 0 1.06068 0.292893 0.2929 0.767767 0.2929 1.06066 0l2.14989 -2.14992Zm1.0179 3.76202c0.29289 -0.2929 0.29289 -0.7677 0 -1.0606 -0.29289 -0.2929 -0.76777 -0.2929 -1.06066 0L2.04378 12.719c-0.2929 0.2928 -0.2929 0.7677 0 1.0606 0.29289 0.2929 0.76776 0.2929 1.06066 0l1.34368 -1.3437Zm4.98612 -1.5542c0.29289 0.2929 0.29289 0.7678 0 1.0607l-1.83793 1.8379c-0.29289 0.2929 -0.76776 0.2929 -1.06066 0 -0.29289 -0.2929 -0.29289 -0.7678 0 -1.0607l1.83793 -1.8379c0.29289 -0.2929 0.76777 -0.2929 1.06066 0Z" clip-rule="evenodd" stroke-width="1"></path>
  </g>
</svg>