<svg xmlns="http://www.w3.org/2000/svg" fill="none" viewBox="0 0 14 14" id="Shuffle--Streamline-Flex">
  <desc>
    Shuffle Streamline Icon: https://streamlinehq.com
  </desc>
  <g id="shuffle--multimedia-shuffle-multi-button-controls-media">
    <path id="Union" fill="currentColor" fill-rule="evenodd" d="M10.1099 1.95854c0.1638 -0.80068 1.0482 -1.234401 1.7761 -0.76957 0.0067 0.00426 0.0133 0.00867 0.0197 0.01324 0.7085 0.50127 1.4301 1.19467 1.8507 1.75868 0.325 0.43583 0.325 1.02616 0 1.462 -0.4096 0.54932 -1.0816 1.26824 -1.8704 1.77192 -0.7279 0.46483 -1.6123 0.03111 -1.7761 -0.76958 -0.0432 -0.21136 -0.0828 -0.44983 -0.11318 -0.71065 -0.49789 0.05767 -0.96409 0.28398 -1.32294 0.6442 -0.38978 0.39126 -1.02295 0.39246 -1.41421 0.00268 -0.39127 -0.38978 -0.39247 -1.02295 -0.00268 -1.41421 0.72825 -0.73102 1.69939 -1.1758 2.73542 -1.23938 0.03089 -0.27595 0.07229 -0.52755 0.11759 -0.74933Zm-0.11759 9.33356c0.03089 0.276 0.07219 0.5276 0.11759 0.7493 0.1638 0.8007 1.0482 1.2344 1.7761 0.7696 0.7888 -0.5037 1.4608 -1.2226 1.8704 -1.7719 0.325 -0.4358 0.325 -1.0262 0 -1.462 -0.418 -0.56053 -1.1398 -1.27123 -1.8567 -1.76287l-0.0137 -0.00905c-0.7279 -0.46483 -1.6123 -0.03111 -1.7761 0.76957 -0.0432 0.21137 -0.0828 0.44983 -0.11317 0.71063 -0.60739 -0.0702 -1.16804 -0.39107 -1.54396 -0.89975l-2.92649 -3.96c-0.8005 -1.08321 -2.06124 -1.72567 -3.40554 -1.72567H1c-0.552285 0 -1 0.44772 -1 1 0 0.55229 0.447715 1 1 1h1.12074c0.70267 0 1.36943 0.33563 1.7971 0.91433l2.92649 3.96c0.74915 1.01371 1.9014 1.64141 3.14798 1.71781Zm-4.87424 -1.2392c0.3898 -0.3913 0.38862 -1.02446 -0.00263 -1.41426 -0.39124 -0.3898 -1.02441 -0.38862 -1.41421 0.00262 -0.41915 0.42072 -0.98475 0.65876 -1.57624 0.65876H1c-0.552285 0 -1 0.44771 -1 0.99998 0 0.5523 0.447715 1 1 1h1.12499c1.13177 0 2.20473 -0.4559 2.99308 -1.2471Z" clip-rule="evenodd" stroke-width="1"></path>
  </g>
</svg>