<svg xmlns="http://www.w3.org/2000/svg" fill="none" viewBox="0 0 14 14" id="Button-Skip-Backward-10--Streamline-Flex">
  <desc>
    Button Skip Backward 10 Streamline Icon: https://streamlinehq.com
  </desc>
  <g id="button-skip-backward-10">
    <path id="Union" fill="currentColor" fill-rule="evenodd" d="M2.29218 0.612998c0.15263 -0.385067 0.58852 -0.5734942 0.97359 -0.420863 0.2971 0.117764 0.47714 0.404156 0.47379 0.705724C4.72865 0.422007 5.89674 0.189941 7.2024 0.189941c2.07374 0 3.7996 0.586795 5.0062 1.795809 1.2063 1.20879 1.7915 2.93735 1.7915 5.01419 0 2.07684 -0.5852 3.80536 -1.7915 5.01416 -1.2066 1.209 -2.93246 1.7958 -5.0062 1.7958s-3.79962 -0.5868 -5.00619 -1.7958C0.98987 10.8053 0.404672 9.07678 0.404672 6.99994c0 -0.41421 0.335786 -0.75 0.749998 -0.75 0.41421 0 0.75 0.33579 0.75 0.75 0 1.80156 0.50339 3.10296 1.35328 3.95456 0.84966 0.8514 2.14764 1.3554 3.94445 1.3554 1.7968 0 3.0948 -0.504 3.9444 -1.3554 0.8499 -0.8516 1.3533 -2.153 1.3533 -3.95456 0 -1.80156 -0.5034 -3.103 -1.3533 -3.95461 -0.8496 -0.85138 -2.1476 -1.35539 -3.9444 -1.35539 -0.86409 0 -1.61269 0.11688 -2.25077 0.33199 0.16672 0.09527 0.29708 0.25416 0.35153 0.45407 0.10886 0.39965 -0.12687 0.81188 -0.52652 0.92075 -0.67194 0.18303 -1.5125 0.13553 -2.1596 -0.12202 -0.21929 -0.08727 -0.3847 -0.27269 -0.44649 -0.50047 -0.1824 -0.67236 -0.13508 -1.51363 0.12163 -2.161262ZM0.16813 2.69123c0.131728 -0.39271 0.556868 -0.60427 0.94958 -0.47254 0.39271 0.13172 0.60427 0.55686 0.47255 0.94957 -0.07888 0.23514 -0.10583 0.53978 -0.08064 0.82161 0.28018 0.0264 0.58317 0.00093 0.81733 -0.07663 0.3932 -0.13024 0.81754 0.08294 0.94778 0.47615 0.13024 0.3932 -0.08293 0.81754 -0.47614 0.94778 -0.6611 0.21897 -1.503 0.21686 -2.162982 -0.00541 -0.223719 -0.07534 -0.398909 -0.25162 -0.472867 -0.4758 -0.2182706 -0.66162 -0.2161668 -1.50422 0.005389 -2.16473ZM5.65735 5.5c0 -0.27614 -0.22386 -0.5 -0.5 -0.5s-0.5 0.22386 -0.5 0.5c0 0.27611 -0.22383 0.49994 -0.49994 0.49994H3.8241c-0.27614 0 -0.5 0.22386 -0.5 0.5s0.22386 0.5 0.5 0.5h0.33331c0.1753 0 0.34357 -0.03007 0.49994 -0.08534V9h-0.833c-0.27615 0 -0.5 0.22386 -0.5 0.5s0.22385 0.5 0.5 0.5h2.6665c0.27614 0 0.5 -0.22386 0.5 -0.5s-0.22386 -0.5 -0.5 -0.5h-0.8335V5.5Zm2.80314 0.50024c-0.2494 0 -0.45158 0.20218 -0.45158 0.45158v2.0966c0 0.2494 0.20218 0.45158 0.45158 0.45158h0.76335c0.2494 0 0.45157 -0.20218 0.45157 -0.45158v-2.0966c0 -0.2494 -0.20217 -0.45158 -0.45157 -0.45158h-0.76335Zm-1.45158 0.45158c0 -0.80168 0.64989 -1.45158 1.45158 -1.45158h0.76335c0.80166 0 1.45156 0.6499 1.45156 1.45158v2.0966C10.6754 9.3501 10.0255 10 9.22384 10h-0.76335c-0.80169 0 -1.45158 -0.6499 -1.45158 -1.45158v-2.0966Z" clip-rule="evenodd" stroke-width="1"></path>
  </g>
</svg>