<svg xmlns="http://www.w3.org/2000/svg" fill="none" viewBox="0 0 14 14" id="Button-Skip-Forward-10--Streamline-Flex">
  <desc>
    Button Skip Forward 10 Streamline Icon: https://streamlinehq.com
  </desc>
  <g id="button-skip-forward-10">
    <path id="Union" fill="currentColor" fill-rule="evenodd" d="M11.7084 0.612998c-0.1526 -0.385067 -0.5885 -0.5734942 -0.9736 -0.420863 -0.2971 0.117764 -0.4771 0.404156 -0.4737 0.705724C9.27197 0.422007 8.10387 0.189941 6.79821 0.189941c-2.07374 0 -3.79962 0.586795 -5.00618 1.795809C0.585687 3.19454 0.000488281 4.9231 0.000488281 6.99994c0 2.07684 0.585198719 3.80536 1.791541719 5.01416 1.20656 1.209 2.93244 1.7958 5.00618 1.7958 2.07374 0 3.79959 -0.5868 5.00619 -1.7958 1.2063 -1.2088 1.7915 -2.93732 1.7915 -5.01416 0 -0.41421 -0.3357 -0.75 -0.75 -0.75 -0.4142 0 -0.75 0.33579 -0.75 0.75 0 1.80156 -0.5034 3.10296 -1.3532 3.95456 -0.8497 0.8514 -2.14768 1.3554 -3.94449 1.3554 -1.7968 0 -3.09478 -0.504 -3.94445 -1.3554 -0.84988 -0.8516 -1.35327 -2.153 -1.35327 -3.95456 0 -1.80156 0.50339 -3.103 1.35327 -3.95461 0.84967 -0.85138 2.14765 -1.35539 3.94445 -1.35539 0.8641 0 1.61269 0.11688 2.25077 0.33199 -0.16672 0.09527 -0.29707 0.25416 -0.35153 0.45407 -0.10886 0.39965 0.12687 0.81188 0.52652 0.92075 0.67194 0.18303 1.51253 0.13553 2.15963 -0.12202 0.2193 -0.08727 0.3847 -0.27269 0.4465 -0.50047 0.1824 -0.67236 0.135 -1.51363 -0.1217 -2.161262Zm2.1241 2.078232c-0.1317 -0.39271 -0.5569 -0.60427 -0.9496 -0.47254 -0.3927 0.13172 -0.6043 0.55686 -0.4725 0.94957 0.0788 0.23514 0.1058 0.53978 0.0806 0.82161 -0.2802 0.0264 -0.5832 0.00093 -0.8173 -0.07663 -0.3932 -0.13024 -0.8176 0.08294 -0.9478 0.47615 -0.1303 0.3932 0.0829 0.81754 0.4761 0.94778 0.6611 0.21897 1.503 0.21686 2.163 -0.00541 0.2237 -0.07534 0.3989 -0.25162 0.4729 -0.4758 0.2182 -0.66162 0.2161 -1.50422 -0.0054 -2.16473ZM5.65723 5.5c0 -0.27614 -0.22386 -0.5 -0.5 -0.5 -0.27615 0 -0.5 0.22386 -0.5 0.5 0 0.27611 -0.22383 0.49994 -0.49994 0.49994h-0.33331c-0.27615 0 -0.5 0.22386 -0.5 0.5s0.22385 0.5 0.5 0.5h0.33331c0.17529 0 0.34357 -0.03007 0.49994 -0.08534V9h-0.83301c-0.27614 0 -0.5 0.22386 -0.5 0.5s0.22386 0.5 0.5 0.5h2.6665c0.27615 0 0.5 -0.22386 0.5 -0.5s-0.22385 -0.5 -0.5 -0.5h-0.83349V5.5Zm2.80313 0.50024c-0.24939 0 -0.45157 0.20218 -0.45157 0.45158v2.0966c0 0.2494 0.20218 0.45158 0.45157 0.45158h0.76336c0.24939 0 0.45157 -0.20218 0.45157 -0.45158v-2.0966c0 -0.2494 -0.20218 -0.45158 -0.45157 -0.45158h-0.76336Zm-1.45157 0.45158c0 -0.80168 0.64989 -1.45158 1.45157 -1.45158h0.76336c0.80168 0 1.45158 0.6499 1.45158 1.45158v2.0966C10.6753 9.3501 10.0254 10 9.22372 10h-0.76336c-0.80168 0 -1.45157 -0.6499 -1.45157 -1.45158v-2.0966Z" clip-rule="evenodd" stroke-width="1"></path>
  </g>
</svg>