<svg xmlns="http://www.w3.org/2000/svg" fill="none" viewBox="0 0 14 14" id="Skull-1--Streamline-Flex">
  <desc>
    Skull 1 Streamline Icon: https://streamlinehq.com
  </desc>
  <g id="skull-1--crash-death-delete-die-error-garbage-remove-skull-trash">
    <path id="Subtract" fill="currentColor" fill-rule="evenodd" d="m6.12469 12.8697 -0.34796 0.3591 0.05087 0.0493c0.64926 0.6292 1.69562 0.6292 2.34488 0l0.05088 -0.0493 -0.32719 -0.3376 0.32719 0.3376c0.23078 -0.2237 0.61064 -0.2262 0.84467 -0.0051 1.01857 0.9623 2.78917 0.2385 2.69647 -1.2188l-0.0012 -0.015 -0.0698 -0.7453c1.3094 -0.8917 2.0565 -2.64945 2.0565 -4.4377 0 -1.77458 -0.5535 -3.42091 -1.7001 -4.62732C10.8987 0.968191 9.19662 0.25 7 0.25c-2.19662 0 -3.89869 0.718191 -5.04994 1.92958C0.803546 3.38599 0.25 5.03232 0.25 6.8069c0 1.78825 0.747123 3.546 2.05654 4.4377l-0.06987 0.7453 -0.00117 0.0149c-0.09268 1.4574 1.67794 2.1813 2.69652 1.2189 0.23404 -0.2211 0.61392 -0.2186 0.84471 0.0051l0.34796 -0.3591ZM4.88281 5.68274c0.34518 0 0.625 0.27982 0.625 0.625l0 1.05862c0 0.34517 -0.27982 0.625 -0.625 0.62499 -0.34518 0 -0.625 -0.27982 -0.625 -0.625l0 -1.05861c0 -0.34518 0.27983 -0.625 0.625 -0.625Zm4.85938 0.625c0 -0.34518 -0.27982 -0.625 -0.625 -0.625s-0.625 0.27982 -0.625 0.625v1.05861c0 0.34518 0.27982 0.625 0.625 0.625 0.34518 0.00001 0.625 -0.27982 0.625 -0.62499V6.30774Z" clip-rule="evenodd" stroke-width="1"></path>
  </g>
</svg>