<svg xmlns="http://www.w3.org/2000/svg" fill="none" viewBox="0 0 14 14" id="Smiley-Unhappy--Streamline-Flex">
  <desc>
    Smiley Unhappy Streamline Icon: https://streamlinehq.com
  </desc>
  <g id="smiley-unhappy">
    <path id="Subtract" fill="currentColor" fill-rule="evenodd" d="M1.83645 1.83645C3.06046 0.612432 4.82797 0 7 0s3.9395 0.612432 5.1636 1.83645C13.3876 3.06046 14 4.82797 14 7s-0.6124 3.9395 -1.8364 5.1636C10.9395 13.3876 9.17203 14 7 14s-3.93954 -0.6124 -5.16355 -1.8364C0.612432 10.9395 0 9.17203 0 7s0.612432 -3.93954 1.83645 -5.16355ZM5.0769 4.98816c0 -0.34518 -0.27982 -0.625 -0.625 -0.625 -0.34517 0 -0.625 0.27982 -0.625 0.625v0.7c0 0.34518 0.27983 0.625 0.625 0.625 0.34518 0 0.625 -0.27982 0.625 -0.625v-0.7Zm5.0962 0c0 -0.34518 -0.27983 -0.625 -0.625 -0.625 -0.34518 0 -0.625 0.27982 -0.625 0.625v0.7c0 0.34518 0.27982 0.625 0.625 0.625 0.34517 0 0.625 -0.27982 0.625 -0.625v-0.7ZM6.77355 10.4298c-0.32173 -0.125 -0.48117 -0.4872 -0.35612 -0.80893 0.28055 -0.72182 0.75541 -1.29603 1.40645 -1.68306 0.64416 -0.38295 1.4264 -0.56281 2.30152 -0.56281 0.3451 0 0.625 0.27982 0.625 0.625s-0.2799 0.625 -0.625 0.625c-0.70834 0 -1.25631 0.14564 -1.66276 0.38728 -0.39957 0.23753 -0.69571 0.58697 -0.88012 1.06142 -0.12505 0.3217 -0.48723 0.4812 -0.80897 0.3561Z" clip-rule="evenodd" stroke-width="1"></path>
  </g>
</svg>