<svg xmlns="http://www.w3.org/2000/svg" fill="none" viewBox="0 0 14 14" id="Happy-Face--Streamline-Flex">
  <desc>
    Happy Face Streamline Icon: https://streamlinehq.com
  </desc>
  <g id="happy-face--smiley-chat-message-smile-emoji-face-satisfied">
    <path id="Subtract" fill="currentColor" fill-rule="evenodd" d="M1.83645 1.83645C3.06046 0.612432 4.82797 0 7 0s3.9395 0.612432 5.1636 1.83645C13.3876 3.06046 14 4.82797 14 7s-0.6124 3.9395 -1.8364 5.1636C10.9395 13.3876 9.17203 14 7 14s-3.93954 -0.6124 -5.16355 -1.8364C0.612432 10.9395 0 9.17203 0 7s0.612432 -3.93954 1.83645 -5.16355ZM5.0769 5.10071c0 -0.34518 -0.27982 -0.625 -0.625 -0.625 -0.34517 0 -0.625 0.27982 -0.625 0.625v0.7c0 0.34518 0.27983 0.625 0.625 0.625 0.34518 0 0.625 -0.27982 0.625 -0.625v-0.7Zm4.4712 -0.625c0.34517 0 0.625 0.27982 0.625 0.625v0.7c0 0.34518 -0.27983 0.625 -0.625 0.625 -0.34518 0 -0.625 -0.27982 -0.625 -0.625v-0.7c0 -0.34518 0.27982 -0.625 0.625 -0.625Zm-5.09092 3.7416c-0.12505 -0.32173 -0.48723 -0.48118 -0.80897 -0.35613 -0.32173 0.12505 -0.48117 0.48723 -0.35612 0.80897 0.28055 0.72181 0.75541 1.29602 1.40645 1.68305 0.64416 0.383 1.4264 0.5628 2.30149 0.5628 0.87508 0 1.65733 -0.1798 2.30148 -0.5628 0.65105 -0.38703 1.12589 -0.96124 1.40649 -1.68305 0.125 -0.32174 -0.0344 -0.68392 -0.3562 -0.80897 -0.3217 -0.12505 -0.68388 0.0344 -0.80893 0.35613 -0.1844 0.47446 -0.48055 0.82389 -0.88012 1.06143 -0.40645 0.24163 -0.95442 0.38728 -1.66272 0.38728 -0.7083 0 -1.25628 -0.14565 -1.66273 -0.38728 -0.39957 -0.23754 -0.69571 -0.58697 -0.88012 -1.06143Z" clip-rule="evenodd" stroke-width="1"></path>
  </g>
</svg>