<svg xmlns="http://www.w3.org/2000/svg" fill="none" viewBox="0 0 14 14" id="Smiley-Worried--Streamline-Flex">
  <desc>
    Smiley Worried Streamline Icon: https://streamlinehq.com
  </desc>
  <g id="smiley-worried">
    <path id="Union" fill="currentColor" fill-rule="evenodd" d="M12.4281 0c-0.1215 0 -0.2259 0.0638457 -0.291 0.110763 -0.0756 0.054391 -0.153 0.127162 -0.2285 0.208819 -0.152 0.164287 -0.3173 0.387411 -0.4697 0.636455 -0.2989 0.488223 -0.5826 1.131853 -0.5826 1.673213 0 0.86808 0.7037 1.5718 1.5718 1.5718 0.8681 0 1.5718 -0.70372 1.5718 -1.5718 0 -0.54136 -0.2836 -1.18499 -0.5825 -1.673213 -0.1525 -0.249044 -0.3177 -0.472168 -0.4697 -0.636455 -0.0755 -0.081657 -0.153 -0.154428 -0.2285 -0.208819C12.6541 0.0638457 12.5496 0 12.4281 0Z" clip-rule="evenodd" stroke-width="1"></path>
    <path id="Subtract" fill="currentColor" fill-rule="evenodd" d="M9.60632 2.62925c0 -0.76196 0.31471 -1.51913 0.61378 -2.062955C9.28732 0.188814 8.20602 0 7 0 4.82797 0 3.06046 0.612432 1.83645 1.83645 0.612432 3.06046 0 4.82797 0 7s0.612432 3.9395 1.83645 5.1636C3.06046 13.3876 4.82797 14 7 14s3.9395 -0.6124 5.1636 -1.8364C13.3876 10.9395 14 9.17203 14 7c0 -0.67957 -0.06 -1.31953 -0.1798 -1.91565 -0.4108 0.23341 -0.8859 0.3667 -1.3921 0.3667 -1.5584 0 -2.82178 -1.26336 -2.82178 -2.8218Zm-3.75271 0.0172c0.19526 0.19526 0.19526 0.51184 0 0.7071 -0.76286 0.76286 -1.57409 1.03511 -2.23881 1.12184 -0.27382 0.03573 -0.52476 -0.15728 -0.56049 -0.4311 -0.03573 -0.27382 0.15728 -0.52476 0.4311 -0.56049 0.48783 -0.06366 1.08156 -0.25782 1.66109 -0.83735 0.19526 -0.19527 0.51184 -0.19527 0.70711 0ZM4.45196 4.88977c0.27614 0 0.5 0.22386 0.5 0.5v0.7c0 0.27614 -0.22386 0.5 -0.5 0.5s-0.5 -0.22386 -0.5 -0.5v-0.7c0 -0.27614 0.22386 -0.5 0.5 -0.5Zm5.59624 0.5c0 -0.27614 -0.22391 -0.5 -0.50005 -0.5s-0.5 0.22386 -0.5 0.5v0.7c0 0.27614 0.22386 0.5 0.5 0.5s0.50005 -0.22386 0.50005 -0.5v-0.7ZM4.17302 10.1261c-0.01889 0.4828 0.42599 0.8201 0.86882 0.7556 1.47072 -0.2142 2.47546 -0.2121 3.91508 -0.001 0.44299 0.065 0.88881 -0.2721 0.86982 -0.7554 -0.01914 -0.48709 -0.11017 -1.14022 -0.5197 -1.67367 -0.42017 -0.54732 -1.1378 -0.92184 -2.30714 -0.92184 -1.16969 0 -1.8874 0.37475 -2.30751 0.92231 -0.40945 0.53368 -0.50031 1.18702 -0.51937 1.674Z" clip-rule="evenodd" stroke-width="1"></path>
  </g>
</svg>