<svg xmlns="http://www.w3.org/2000/svg" fill="none" viewBox="0 0 14 14" id="Smiley-Very-Happy-2--Streamline-Flex">
  <desc>
    Smiley Very Happy 2 Streamline Icon: https://streamlinehq.com
  </desc>
  <g id="smiley-very-happy-2">
    <path id="Subtract" fill="currentColor" fill-rule="evenodd" d="M1.83645 1.83645C3.06046 0.612432 4.82797 0 7 0s3.9395 0.612432 5.1636 1.83645C13.3876 3.06046 14 4.82797 14 7s-0.6124 3.9395 -1.8364 5.1636C10.9395 13.3876 9.17203 14 7 14s-3.93954 -0.6124 -5.16355 -1.8364C0.612432 10.9395 0 9.17203 0 7s0.612432 -3.93954 1.83645 -5.16355Zm2.29399 3.81052c-0.12504 0.32173 -0.48723 0.48118 -0.80896 0.35613s-0.48118 -0.48724 -0.35613 -0.80897c0.12246 -0.31507 0.33517 -0.57522 0.62899 -0.7499 0.28694 -0.17058 0.61689 -0.23976 0.9536 -0.23976 0.33672 0 0.66667 0.06918 0.95361 0.23976 0.29382 0.17468 0.50652 0.43483 0.62898 0.7499 0.12505 0.32173 -0.03439 0.68392 -0.35612 0.80897s-0.68392 -0.0344 -0.80897 -0.35613c-0.02631 -0.06771 -0.06031 -0.10309 -0.10265 -0.12827 -0.04924 -0.02926 -0.14492 -0.06423 -0.31485 -0.06423 -0.16993 0 -0.26561 0.03497 -0.31484 0.06423 -0.04235 0.02518 -0.07634 0.06056 -0.10266 0.12827Zm-0.6675 2.85305c0 -0.41421 0.33578 -0.75 0.75 -0.75h5.57424c0.41422 0 0.75002 0.33579 0.75002 0.75v0.10854c0 0.02455 -0.0036 0.04897 -0.0108 0.07246 -0.225 0.743 -0.64806 1.32908 -1.25475 1.72638 -0.60377 0.3954 -1.37176 0.5926 -2.27159 0.5926 -0.89983 0 -1.66783 -0.1972 -2.2716 -0.5926 -0.60669 -0.3973 -1.02979 -0.98338 -1.25479 -1.72638 -0.00712 -0.02349 -0.01073 -0.04791 -0.01073 -0.07246v-0.10854ZM8.3216 6.0031c0.32173 0.12505 0.68392 -0.0344 0.80896 -0.35613 0.02632 -0.06771 0.06031 -0.10309 0.10266 -0.12827 0.04923 -0.02926 0.14491 -0.06423 0.31484 -0.06423s0.26562 0.03497 0.31485 0.06423c0.04234 0.02518 0.07634 0.06056 0.10265 0.12827 0.12504 0.32173 0.48724 0.48118 0.80894 0.35613 0.3218 -0.12505 0.4812 -0.48724 0.3562 -0.80897 -0.1225 -0.31507 -0.3352 -0.57522 -0.629 -0.7499 -0.287 -0.17058 -0.61692 -0.23976 -0.95364 -0.23976 -0.33671 0 -0.66666 0.06918 -0.9536 0.23976 -0.29382 0.17468 -0.50653 0.43483 -0.62899 0.7499 -0.12504 0.32173 0.0344 0.68392 0.35613 0.80897Z" clip-rule="evenodd" stroke-width="1"></path>
  </g>
</svg>