<svg xmlns="http://www.w3.org/2000/svg" fill="none" viewBox="0 0 14 14" id="Stopwatch--Streamline-Flex">
  <desc>
    Stopwatch Streamline Icon: https://streamlinehq.com
  </desc>
  <g id="stopwatch--notification-alert-bell-wake-clock-alarm">
    <path id="Union" fill="currentColor" fill-rule="evenodd" d="M7.74991 1.53572c0.33389 0.03167 0.67075 0.08439 1.01452 0.15816 0.40499 0.0869 0.80375 -0.17096 0.89066 -0.57595C9.742 0.712937 9.48414 0.314172 9.07915 0.227264 8.3731 0.0757548 7.68651 0 6.99991 0c-0.6866 0 -1.37319 0.0757548 -2.07923 0.227264 -0.405 0.086908 -0.66286 0.485673 -0.57595 0.890666 0.08691 0.40499 0.48567 0.66285 0.89067 0.57595 0.34376 -0.07377 0.68062 -0.12649 1.01451 -0.15816v1.4974c-1.35532 0.12331 -2.48168 0.59155 -3.30346 1.41333C1.97743 5.41546 1.5 6.80797 1.5 8.5c0 1.692 0.47743 3.0845 1.44645 4.0536C3.91546 13.5226 5.30797 14 7 14c1.69203 0 3.0845 -0.4774 4.0536 -1.4464C12.0226 11.5845 12.5 10.192 12.5 8.5c0 -1.69203 -0.4774 -3.08454 -1.4464 -4.05355 -0.8219 -0.82182 -1.94828 -1.29006 -3.30369 -1.41335l0 -1.49738ZM7 5.75977c0.41421 0 0.75 0.33578 0.75 0.75v1.68934l0.98033 0.98033c0.29289 0.29289 0.29289 0.76776 0 1.06066 -0.29289 0.2929 -0.76777 0.2929 -1.06066 0l-1.2 -1.2C6.32902 8.89944 6.25 8.70868 6.25 8.50977v-2c0 -0.41422 0.33579 -0.75 0.75 -0.75Zm-3.49079 -2.6395c0.35491 -0.21357 0.46948 -0.67441 0.25591 -1.02932 -0.21357 -0.35491 -0.67441 -0.46949 -1.02932 -0.25592 -0.57149 0.3439 -1.09078 0.76908 -1.54065 1.26135 -0.279431 0.30576 -0.258083 0.78015 0.04768 1.05958 0.30576 0.27943 0.78016 0.25809 1.05959 -0.04768 0.35235 -0.38556 0.7592 -0.71867 1.20679 -0.98801Zm6.72539 -1.02932c-0.2135 0.35491 -0.099 0.81575 0.2559 1.02932 0.4476 0.26934 0.8545 0.60245 1.2068 0.98801 0.2795 0.30577 0.7539 0.32711 1.0596 0.04768 0.3058 -0.27943 0.3271 -0.75382 0.0477 -1.05958 -0.4499 -0.49227 -0.9692 -0.91745 -1.5406 -1.26135 -0.355 -0.21357 -0.8158 -0.09899 -1.0294 0.25592Z" clip-rule="evenodd" stroke-width="1"></path>
  </g>
</svg>