<svg xmlns="http://www.w3.org/2000/svg" fill="none" viewBox="0 0 14 14" id="Subtract-2--Streamline-Flex">
  <desc>
    Subtract 2 Streamline Icon: https://streamlinehq.com
  </desc>
  <g id="subtract-2--delete-box-subtract-buttons-button-remove-textbox-text-add-bold-mathematics-math-minus">
    <path id="Union" fill="currentColor" fill-rule="evenodd" d="M7 4.30762c-1.45133 0 -2.86741 0.05538 -4.22424 0.10845l-0.25711 0.01004c-1.08709 0.04234 -2.220382 0.7565 -2.452649 1.93793C0.0262787 6.56609 0 6.77904 0 7.00005c0 0.22101 0.0262788 0.43397 0.0660012 0.63602C0.298268 8.81749 1.43156 9.53166 2.51865 9.574l0.25712 0.01004 0.00004 0c1.35682 0.05307 2.77288 0.10845 4.22419 0.10845 1.45133 0 2.86742 -0.05538 4.2243 -0.10845l0.257 -0.01004c1.0871 -0.04234 2.2204 -0.75651 2.4527 -1.93793 0.0397 -0.20205 0.066 -0.41501 0.066 -0.63602 0 -0.22101 -0.0263 -0.43396 -0.066 -0.63601 -0.2323 -1.18143 -1.3656 -1.89559 -2.4527 -1.93793l-0.2571 -0.01004C9.86741 4.363 8.45133 4.30762 7 4.30762Z" clip-rule="evenodd" stroke-width="1"></path>
  </g>
</svg>