<svg xmlns="http://www.w3.org/2000/svg" fill="none" viewBox="0 0 14 14" id="Spades-Symbol--Streamline-Flex">
  <desc>
    Spades Symbol Streamline Icon: https://streamlinehq.com
  </desc>
  <g id="spades-symbol--entertainment-gaming-card-spades-symbol">
    <path id="Union" fill="currentColor" fill-rule="evenodd" d="M7.25623 0.0707115c-0.15789 -0.094282 -0.3548 -0.094282 -0.51269 -2e-7C5.63518 0.732552 4.12772 1.6823 2.89444 2.85641 1.6719 4.02029 0.634766 5.48417 0.634766 7.17941c0 2.21682 1.812314 4.00609 4.038274 4.00609 0.09811 0 0.19546 -0.0034 0.29192 -0.0103 -0.0733 0.8734 -0.12751 1.5879 -0.12751 1.8197 0 0.0837 0.02101 0.1661 0.0611 0.2395 0.10387 0.1904 0.26524 0.3217 0.4176 0.4118 0.15526 0.0919 0.33168 0.1592 0.50918 0.209 0.35494 0.0995 0.772 0.1448 1.17457 0.1448 0.40257 0 0.81962 -0.0453 1.17456 -0.1448 0.1775 -0.0498 0.35392 -0.1171 0.50919 -0.209 0.15236 -0.0901 0.31372 -0.2214 0.4176 -0.4118 0.04008 -0.0734 0.06109 -0.1558 0.06109 -0.2395 0 -0.2318 -0.0542 -0.9463 -0.12751 -1.8197 0.09645 0.0069 0.1938 0.0103 0.2919 0.0103 2.22597 0 4.03827 -1.78927 4.03827 -4.00608 0 -1.69525 -1.0371 -3.15913 -2.2597 -4.32301C9.87205 1.6823 8.36459 0.732553 7.25623 0.0707115Z" clip-rule="evenodd" stroke-width="1"></path>
  </g>
</svg>