<svg xmlns="http://www.w3.org/2000/svg" fill="none" viewBox="0 0 14 14" id="Clubs-Symbol--Streamline-Flex">
  <desc>
    Clubs Symbol Streamline Icon: https://streamlinehq.com
  </desc>
  <g id="clubs-symbol--entertainment-gaming-card-clubs-symbol">
    <path id="Union" fill="currentColor" fill-rule="evenodd" d="M7.05545 0.000244141c-2.09804 0 -3.8374 1.631945859 -3.8374 3.691545859 0 0.19998 0.01658 0.39642 0.04849 0.58806C1.433 4.54406 0 6.06117 0 7.93062c0 2.0596 1.73935 3.69158 3.8374 3.69158 0.39356 0 0.77399 -0.0572 1.13246 -0.1635 -0.07003 0.7562 -0.12078 1.368 -0.12078 1.5751 0 0.0914 0.02509 0.1812 0.07254 0.2594 0.1119 0.1844 0.28096 0.3056 0.43206 0.3859 0.15624 0.0832 0.33362 0.1441 0.51248 0.1892 0.35815 0.0903 0.78044 0.1317 1.1893 0.1317 0.40887 0 0.83116 -0.0414 1.18931 -0.1317 0.17886 -0.0451 0.35624 -0.106 0.51248 -0.1892 0.1511 -0.0803 0.32016 -0.2015 0.43206 -0.3859 0.04745 -0.0782 0.07254 -0.168 0.07254 -0.2594 0 -0.2046 -0.04939 -0.8024 -0.11783 -1.5432 0.32482 0.0858 0.66646 0.1316 1.01858 0.1316 2.098 0 3.8374 -1.63198 3.8374 -3.69158 0 -1.83252 -1.3772 -3.32665 -3.1585 -3.6337 0.0338 -0.19704 0.0513 -0.39921 0.0513 -0.60513 0 -2.0596 -1.7393 -3.691545859 -3.83735 -3.691545859Z" clip-rule="evenodd" stroke-width="1"></path>
  </g>
</svg>