<svg xmlns="http://www.w3.org/2000/svg" fill="none" viewBox="0 0 14 14" id="Diamonds-Symbol--Streamline-Flex">
  <desc>
    Diamonds Symbol Streamline Icon: https://streamlinehq.com
  </desc>
  <g id="diamonds-symbol--entertainment-gaming-card-diamonds-symbol">
    <path id="Union" fill="currentColor" fill-rule="evenodd" d="M7.99306 0.407437c-0.57725 -0.543006 -1.42781 -0.544144 -2.00507 0.001956 -0.08284 0.078364 -0.16648 0.157238 -0.25078 0.236723l-0.00025 0.000239C4.99433 1.3466 4.20142 2.09427 3.47066 2.95777c-0.7301 0.86272 -1.3618 1.79813 -1.95425 2.67541 -0.06735 0.09974 -0.13419 0.19872 -0.20062 0.29676 -0.42253 0.62364 -0.421658 1.49471 -0.00157 2.11826 0.07939 0.11784 0.15937 0.23717 0.2401 0.35761 0.58015 0.86551 1.19903 1.78879 1.91634 2.63639 0.71801 0.8485 1.50081 1.5811 2.23346 2.2668l0.0001 0.0001c0.10186 0.0953 0.20276 0.1898 0.30237 0.2835 0.57725 0.543 1.42782 0.5441 2.00508 -0.002 0.08292 -0.0784 0.16665 -0.1574 0.25104 -0.237 0.74262 -0.7002 1.53553 -1.4479 2.26629 -2.3114 0.7301 -0.8627 1.3618 -1.79809 1.9542 -2.67537 0.0674 -0.09974 0.1342 -0.19873 0.2007 -0.29677 0.4225 -0.62364 0.4216 -1.49471 0.0015 -2.11826 -0.0794 -0.11784 -0.1593 -0.23716 -0.2401 -0.3576 -0.5801 -0.86552 -1.199 -1.78882 -1.9163 -2.63643 -0.71802 -0.84844 -1.50081 -1.58106 -2.23346 -2.266763l0 -0.000003 -0.00003 -0.000028C8.19362 0.595617 8.0927 0.501166 7.99306 0.407437Z" clip-rule="evenodd" stroke-width="1"></path>
  </g>
</svg>