<svg xmlns="http://www.w3.org/2000/svg" fill="none" viewBox="0 0 14 14" id="Tag-Chevron--Streamline-Flex">
  <desc>
    Tag Chevron Streamline Icon: https://streamlinehq.com
  </desc>
  <g id="tag-chevron">
    <path id="Union" fill="currentColor" fill-rule="evenodd" d="M9.73709 12.0725c-2.5938 0.233 -6.1119 0.2406 -8.822736 -0.0008 -0.803853 -0.0715 -1.177385 -1.0045 -0.706894 -1.6249l2.34313 -3.08955c0.15741 -0.20755 0.15741 -0.50042 0 -0.70798L0.207471 3.55977c-0.470498 -0.62037 -0.09697 -1.55331 0.706882 -1.62488C3.62371 1.69366 7.14177 1.6879 9.73698 1.92104c0.41122 0.0346 0.79412 0.21365 1.11002 0.5112 0.4671 0.44005 1.2361 1.34087 1.8838 2.21164 0.3256 0.43777 0.63 0.88056 0.8555 1.26574 0.1125 0.19214 0.2106 0.37887 0.282 0.54927 0.066 0.15735 0.1318 0.35219 0.1318 0.54358 0 0.19139 -0.0658 0.38623 -0.1318 0.54358 -0.0714 0.17041 -0.1695 0.35713 -0.282 0.54927 -0.2255 0.38518 -0.5299 0.82797 -0.8555 1.26575 -0.6477 0.87073 -1.4167 1.77163 -1.8838 2.21163 -0.3249 0.3061 -0.7108 0.4662 -1.10991 0.4998Z" clip-rule="evenodd" stroke-width="1"></path>
  </g>
</svg>