<svg xmlns="http://www.w3.org/2000/svg" fill="none" viewBox="0 0 14 14" id="Tree-2--Streamline-Flex">
  <desc>
    Tree 2 Streamline Icon: https://streamlinehq.com
  </desc>
  <g id="tree-2--nature-tree-plant-circle-round-park">
    <path id="Union" fill="currentColor" fill-rule="evenodd" d="M2.57742 1.57645C3.63144 0.522432 5.14894 0 7.00098 0c1.85203 0 3.36952 0.522432 4.42352 1.57645C12.4785 2.63046 13.001 4.14797 13.001 6c0 1.85203 -0.5225 3.36954 -1.5765 4.4236 -0.9082 0.9082 -2.16057 1.4217 -3.67457 1.5464v1.28c0 0.4142 -0.33579 0.75 -0.75 0.75s-0.75 -0.3358 -0.75 -0.75v-1.2802c-1.51306 -0.125 -2.7647 -0.6384 -3.67251 -1.5462C1.52341 9.36954 1.00098 7.85203 1.00098 6c0 -1.85203 0.52243 -3.36954 1.57644 -4.42355Z" clip-rule="evenodd" stroke-width="1"></path>
  </g>
</svg>