<svg xmlns="http://www.w3.org/2000/svg" fill="none" viewBox="0 0 14 14" id="Cao-Dai--Streamline-Flex">
  <desc>
    Cao Dai Streamline Icon: https://streamlinehq.com
  </desc>
  <g id="cao-dai--religion-cao-dai-culture-god-eye">
    <path id="Union" fill="currentColor" fill-rule="evenodd" d="M6.09549 0.327866c0.52803 -0.437124 1.28099 -0.437163 1.80906 -0.000067C11.0445 2.92676 12.8951 7.11304 13.9535 11.3848c0.2113 0.8528 -0.3194 1.7239 -1.1878 1.8887 -1.4305 0.2714 -4.07218 0.7265 -5.76568 0.7265 -1.69345 0 -4.33503 -0.4549 -5.76556 -0.7263 -0.86844 -0.1647 -1.399273 -1.0358 -1.1879596 -1.8886C1.10498 7.11317 2.95569 2.92709 6.09549 0.327866ZM3.40219 7.69627c-0.00009 0.00013 -0.00018 0.00026 0.41495 0.27895l-0.41513 -0.27869c-0.11316 0.16856 -0.11316 0.38882 0 0.55739l0.41513 -0.2787c-0.41513 0.2787 -0.41504 0.27882 -0.41495 0.27896l0.0002 0.0003 0.00051 0.00076 0.00142 0.00209 0.0044 0.00646 0.01504 0.02172c0.01275 0.01824 0.03094 0.04388 0.0543 0.07586 0.04668 0.06391 0.11424 0.15344 0.20055 0.26007 0.172 0.21251 0.42163 0.49688 0.73198 0.78281 0.60283 0.55538 1.51781 1.19355 2.5894 1.19355 1.07159 0 1.98658 -0.63817 2.58941 -1.19355 0.31035 -0.28593 0.56 -0.5703 0.732 -0.78281 0.0863 -0.10663 0.1538 -0.19616 0.2005 -0.26007 0.0234 -0.03198 0.0416 -0.05762 0.0543 -0.07586l0.0151 -0.02172 0.0044 -0.00646 0.0014 -0.00209 0.0005 -0.00076 0.0002 -0.0003c0.0001 -0.00014 0.0002 -0.00026 -0.415 -0.27896l0.4152 0.2787c0.1131 -0.16857 0.1131 -0.38883 0 -0.55739l-0.4152 0.27869c0.4152 -0.27869 0.4151 -0.27882 0.415 -0.27895l-0.0002 -0.0003 -0.0005 -0.00076 -0.0014 -0.00209 -0.0044 -0.00647 -0.0151 -0.02171c-0.0127 -0.01824 -0.0309 -0.04388 -0.0543 -0.07586 -0.0467 -0.06391 -0.1142 -0.15344 -0.2005 -0.26008 -0.172 -0.2125 -0.42165 -0.49688 -0.732 -0.7828 -0.60283 -0.55538 -1.51782 -1.19357 -2.58941 -1.19357s-1.98657 0.63819 -2.5894 1.19357c-0.31035 0.28592 -0.55998 0.5703 -0.73198 0.7828 -0.08631 0.10664 -0.15387 0.19617 -0.20055 0.26008 -0.02336 0.03198 -0.04155 0.05762 -0.0543 0.07586l-0.01504 0.02171 -0.0044 0.00647 -0.00142 0.00209 -0.00051 0.00076 -0.0002 0.0003ZM8 7.85989c0 -0.55228 -0.44772 -1 -1 -1s-1 0.44772 -1 1v0.23067c0 0.55228 0.44772 1 1 1s1 -0.44772 1 -1v-0.23067Z" clip-rule="evenodd" stroke-width="1"></path>
  </g>
</svg>