<svg xmlns="http://www.w3.org/2000/svg" fill="none" viewBox="0 0 14 14" id="User-Sticker-Square--Streamline-Flex">
  <desc>
    User Sticker Square Streamline Icon: https://streamlinehq.com
  </desc>
  <g id="user-sticker-square">
    <path id="Union" fill="currentColor" fill-rule="evenodd" d="M2.64482 0.384873C4.05008 0.295154 5.50696 0.247986 7 0.247986c1.49304 0 2.94992 0.047168 4.3552 0.136887 1.215 0.077571 2.1803 1.042927 2.2579 2.257927 0.0897 1.40527 0.1369 2.86214 0.1369 4.35518v0.00446l-0.0009 0.10159c-0.1587 -0.07097 -0.3323 -0.1089 -0.5103 -0.1089h-2.9524c-1.20352 0 -2.10979 0.92166 -2.26678 1.99454 -0.22328 1.52583 -0.7259 2.49453 -1.48645 3.50803 -0.27153 0.3619 -0.32446 0.8388 -0.14704 1.2476 -1.27889 -0.0111 -2.5293 -0.0568 -3.74131 -0.1342 -1.215 -0.0776 -2.180362 -1.0429 -2.257933 -2.2579C0.297168 9.9479 0.25 8.49103 0.25 6.99798c0 -1.49304 0.047168 -2.94991 0.136887 -4.35518C0.464458 1.4278 1.42982 0.462444 2.64482 0.384873Zm4.3304 9.304577c-0.06042 0.33985 -0.38489 0.56635 -0.72474 0.50595 -0.9845 -0.175 -1.91678 -0.81766 -2.28923 -1.94276 -0.10848 -0.32769 0.06923 -0.68128 0.39692 -0.78975 0.32769 -0.10848 0.68127 0.06922 0.78975 0.39691 0.20672 0.62446 0.71743 0.99756 1.32133 1.10491 0.33985 0.06041 0.56638 0.38489 0.50597 0.72474ZM5.37524 4.8672c0 -0.34518 -0.27982 -0.625 -0.625 -0.625 -0.34517 0 -0.625 0.27982 -0.625 0.625v0.26563c0 0.34517 0.27983 0.625 0.625 0.625 0.34518 0 0.625 -0.27983 0.625 -0.625V4.8672Zm3.8733 -0.625c0.34517 0 0.625 0.27982 0.625 0.625v0.26563c0 0.34517 -0.27983 0.625 -0.625 0.625 -0.34518 0 -0.625 -0.27983 -0.625 -0.625V4.8672c0 -0.34518 0.27982 -0.625 0.625 -0.625ZM7.53296 13.248c2.24348 -0.2359 5.20324 -1.9005 5.70584 -5.00287h-2.9524c-0.52441 0 -0.95404 0.40667 -1.02996 0.92552 -0.25912 1.77085 -0.86317 2.93095 -1.72348 4.07735Z" clip-rule="evenodd" stroke-width="1"></path>
  </g>
</svg>