<svg version="1.1" id="圖層_1" xmlns="http://www.w3.org/2000/svg" xmlns:xlink="http://www.w3.org/1999/xlink" x="0px" y="0px" viewBox="0 0 100 100" xml:space="preserve" preserveAspectRatio="xMidYMid" width="200" height="200" style="margin-top:0px;margin-right:0px;margin-bottom:0px;margin-left:0px;display:block;shape-rendering:auto;background-position-x:0%;background-position-y:0%;background-size:auto;background-origin:padding-box;background-clip:border-box;width:200px;height:200px;;animation:none"><g class="ldl-scale" style="transform-origin:50px 50px;transform:matrix(0.8, 0, 0, 0.8, 0, 0);;animation:none"><g class="ldl-ani"><g class="ldl-layer"><g class="ldl-ani" style="transform:matrix(1, 0, 0, 1, 0, 0);transform-box:view-box;animation-duration:1s;animation-timing-function:linear;animation-delay:-0.571429s;animation-iteration-count:infinite;animation-direction:normal;animation-fill-mode:forwards;animation-play-state:paused;animation-name:animate;animation-timeline:auto;animation-range-start:normal;animation-range-end:normal;transform-origin:50px 50px;;animation:none"><path fill="#D2D2D3" d="M85,39.19c0-2.05-1.25-3.84-3.12-4.83c1.87-0.99,3.12-2.78,3.12-4.83c0-2.65-2.08-4.85-4.89-5.46 c0.3-0.81,0.59-1.65,0.84-2.52c2.27-7.84,1.42-14.79-1.91-15.53c-2.87-0.64-6.64,3.56-9.08,9.75c-1.11,0.63-1.98,1.54-2.48,2.62 c-0.96-2.07-3.27-3.53-5.97-3.53c-2.53,0-4.71,1.28-5.77,3.14c-1.05-1.86-3.24-3.14-5.77-3.14c-2.8,0-5.17,1.57-6.06,3.75 c-0.89-2.18-3.27-3.75-6.06-3.75c-2.32,0-4.35,1.08-5.48,2.69c-0.71-1.01-1.77-1.81-3.04-2.27c-2.44-5.92-6.08-9.89-8.88-9.27 c-3.33,0.74-4.18,7.7-1.91,15.53c0.18,0.64,0.39,1.25,0.6,1.86C16.72,24.22,15,26.27,15,28.67c0,2.05,1.25,3.84,3.12,4.83 C16.25,34.5,15,36.29,15,38.34c0,1.98,1.17,3.72,2.93,4.73C16.17,44.08,15,45.82,15,47.8c0,1.85,1.02,3.48,2.58,4.51 C16.02,53.35,15,54.98,15,56.83c0,2.14,1.36,4,3.36,4.96c-2,0.96-3.36,2.82-3.36,4.96c0,1.99,1.18,3.74,2.96,4.75 C16.18,72.51,15,74.26,15,76.25c0,3.12,2.89,5.65,6.45,5.65c0.45,0,0.89-0.04,1.32-0.12c0.02,0.03,0.05,0.06,0.07,0.09 c-1.57,1.03-2.59,2.67-2.59,4.52c0,3.12,2.89,5.65,6.45,5.65c2.32,0,4.35-1.08,5.48-2.69c1.14,1.61,3.16,2.69,5.48,2.69 c2.8,0,5.17-1.57,6.06-3.75c0.89,2.18,3.27,3.75,6.06,3.75c2.53,0,4.71-1.28,5.77-3.14c1.05,1.86,3.24,3.14,5.77,3.14 c2.7,0,5.01-1.46,5.97-3.53c0.96,2.07,3.27,3.53,5.97,3.53c3.56,0,6.45-2.53,6.45-5.65c0-1.66-0.82-3.14-2.11-4.18 c0.32,0.04,0.64,0.07,0.97,0.07c3.56,0,6.45-2.53,6.45-5.65c0-1.99-1.18-3.74-2.96-4.75c1.78-1.01,2.96-2.75,2.96-4.75 c0-1.98-1.17-3.72-2.93-4.73c1.76-1.01,2.93-2.75,2.93-4.73c0-1.85-1.02-3.48-2.58-4.51C83.98,52.14,85,50.5,85,48.66 c0-1.98-1.17-3.72-2.93-4.73C83.83,42.92,85,41.17,85,39.19z" style="stroke-width:1px;fill:rgb(210, 210, 211);;animation:none"></path></g></g>
<g class="ldl-layer"><g class="ldl-ani"><g><g class="ldl-layer"><g class="ldl-ani" style="transform:matrix(1, 0, 0, 1, 0, 0);transform-box:view-box;animation-duration:1s;animation-timing-function:linear;animation-delay:-0.642857s;animation-iteration-count:infinite;animation-direction:normal;animation-fill-mode:forwards;animation-play-state:paused;animation-name:animate;animation-timeline:auto;animation-range-start:normal;animation-range-end:normal;transform-origin:50px 50px;;animation:none"><ellipse cx="34.76" cy="32.5" rx="4.42" ry="5.56" style="stroke-width:1px;;animation:none"></ellipse></g></g>
<g class="ldl-layer"><g class="ldl-ani" style="transform:matrix(1, 0, 0, 1, 0, 0);transform-box:view-box;animation-duration:1s;animation-timing-function:linear;animation-delay:-0.714286s;animation-iteration-count:infinite;animation-direction:normal;animation-fill-mode:forwards;animation-play-state:paused;animation-name:animate;animation-timeline:auto;animation-range-start:normal;animation-range-end:normal;transform-origin:50px 50px;;animation:none"><ellipse cx="65.05" cy="32.5" rx="4.42" ry="5.56" style="stroke-width:1px;;animation:none"></ellipse></g></g></g></g></g>
<g class="ldl-layer"><g class="ldl-ani"><g><g class="ldl-layer"><g class="ldl-ani" style="transform:matrix(1, 0, 0, 1, 0, 0);transform-box:view-box;animation-duration:1s;animation-timing-function:linear;animation-delay:-0.785714s;animation-iteration-count:infinite;animation-direction:normal;animation-fill-mode:forwards;animation-play-state:paused;animation-name:animate;animation-timeline:auto;animation-range-start:normal;animation-range-end:normal;transform-origin:50px 50px;;animation:none"><ellipse fill="#FFFFFF" cx="50" cy="49.95" rx="16.18" ry="13.66" style="stroke-width:1px;fill:rgb(255, 255, 255);;animation:none"></ellipse></g></g>
<g class="ldl-layer"><g class="ldl-ani"><g><g class="ldl-layer"><g class="ldl-ani" style="transform:matrix(1, 0, 0, 1, 0, 0);transform-box:view-box;animation-duration:1s;animation-timing-function:linear;animation-delay:-0.857143s;animation-iteration-count:infinite;animation-direction:normal;animation-fill-mode:forwards;animation-play-state:paused;animation-name:animate;animation-timeline:auto;animation-range-start:normal;animation-range-end:normal;transform-origin:50px 50px;;animation:none"><path fill="#FFFFFF" stroke="#000000" stroke-width="3.5" stroke-linecap="round" stroke-miterlimit="10" d="M40.45,51.08 c3.9,5.4,5.03,2.4,8.22,0.39c0.78-0.49,1.92-0.56,2.66,0c2.63,2.01,4.32,5.01,8.22-0.39" style="stroke-width:3.5px;fill:rgb(255, 255, 255);stroke:rgb(0, 0, 0);;animation:none"></path></g></g>
<g class="ldl-layer"><g class="ldl-ani" style="transform:matrix(1, 0, 0, 1, 0, 0);transform-box:view-box;animation-duration:1s;animation-timing-function:linear;animation-delay:-0.928571s;animation-iteration-count:infinite;animation-direction:normal;animation-fill-mode:forwards;animation-play-state:paused;animation-name:animate;animation-timeline:auto;animation-range-start:normal;animation-range-end:normal;transform-origin:50px 50px;;animation:none"><line fill="#FFFFFF" stroke="#000000" stroke-width="3.5" stroke-linecap="round" stroke-miterlimit="10" x1="50" y1="44.17" x2="50" y2="51.08" style="stroke-width:3.5px;fill:rgb(255, 255, 255);stroke:rgb(0, 0, 0);;animation:none"></line></g></g>
<g class="ldl-layer"><g class="ldl-ani" style="transform:matrix(1, 0, 0, 1, 0, 0);transform-box:view-box;animation-duration:1s;animation-timing-function:linear;animation-delay:-1s;animation-iteration-count:infinite;animation-direction:normal;animation-fill-mode:forwards;animation-play-state:paused;animation-name:animate;animation-timeline:auto;animation-range-start:normal;animation-range-end:normal;transform-origin:50px 50px;;animation:none"><ellipse cx="50" cy="43.65" rx="4.78" ry="3.8" style="stroke-width:1px;;animation:none"></ellipse></g></g></g></g></g></g></g></g>
<metadata xmlns:d="https://loading.io/stock/"></metadata></g></g>
<STYLE type="text/css">@keyframes animate { 0.00% {animation-timing-function: cubic-bezier(0.33,0.00,0.67,0.00);transform: translate(0.00px,0.00px) rotate(0.00deg) scale(1.00, 1.00) skew(0deg, 0.00deg) ;opacity: 1.00;}50.00% {animation-timing-function: cubic-bezier(0.33,0.00,0.67,0.00);transform: translate(0.00px,0.00px) rotate(0.00deg) ;}100.00% {animation-timing-function: cubic-bezier(0.33,0.00,0.67,0.00);transform: translate(0.00px,0.00px) rotate(0.00deg) ;} }</STYLE><!-- [ldio] generated by https://loading.io --></svg>