<svg version="1.1" id="圖層_1" xmlns="http://www.w3.org/2000/svg" xmlns:xlink="http://www.w3.org/1999/xlink" x="0px" y="0px" viewBox="0 0 100 100" xml:space="preserve" preserveAspectRatio="xMidYMid" width="200" height="200" style="margin-top:0px;margin-right:0px;margin-bottom:0px;margin-left:0px;display:block;shape-rendering:auto;background-position-x:0%;background-position-y:0%;background-size:auto;background-origin:padding-box;background-clip:border-box;width:200px;height:200px;;animation:none"><g class="ldl-scale" style="transform-origin:50px 50px;transform:matrix(0.8, 0, 0, 0.8, 0, 0);;animation:none"><g class="ldl-ani"><g class="ldl-layer"><g class="ldl-ani"><g><g class="ldl-layer"><g class="ldl-ani" style="transform:matrix(1, 0, 0, 1, 0, 0);transform-box:view-box;animation-duration:1s;animation-timing-function:linear;animation-delay:-0.555556s;animation-iteration-count:infinite;animation-direction:normal;animation-fill-mode:forwards;animation-play-state:paused;animation-name:animate;animation-timeline:auto;animation-range-start:normal;animation-range-end:normal;transform-origin:50px 50px;;animation:none"><path fill="#FFE219" d="M47.91,3.71c0.7-0.17,4.41,4.83,4.51,11.25c0.04,2.52,0.1,6.38-2.72,7.49c-1.87,0.74-4.69,0.13-5.78-1.19 c-1.58-1.91,0.43-5.35,1.43-7.05c0.21-0.36,0.81-1.34,1.4-2.77c0,0,0.31-0.89,0.62-1.74C48.66,6.22,47.4,3.84,47.91,3.71z" style="stroke-width:1px;fill:rgb(255, 226, 25);;animation:none"></path></g></g>
<g class="ldl-layer"><g class="ldl-ani" style="transform:matrix(1, 0, 0, 1, 0, 0);transform-box:view-box;animation-duration:1s;animation-timing-function:linear;animation-delay:-0.611111s;animation-iteration-count:infinite;animation-direction:normal;animation-fill-mode:forwards;animation-play-state:paused;animation-name:animate;animation-timeline:auto;animation-range-start:normal;animation-range-end:normal;transform-origin:50px 50px;;animation:none"><path fill="#FFE219" d="M56.57,5.58c0.71,0.14,1.96,6.24-0.66,12.1c-1.03,2.3-2.6,5.83-5.63,5.64c-2.01-0.12-4.31-1.86-4.74-3.52 c-0.63-2.4,2.65-4.67,4.27-5.79c0.34-0.24,1.3-0.87,2.44-1.92c0,0,0.66-0.68,1.3-1.32C56.18,8.17,56.05,5.48,56.57,5.58z" style="stroke-width:1px;fill:rgb(255, 226, 25);;animation:none"></path></g></g></g></g></g>
<g class="ldl-layer"><g class="ldl-ani"><g><g class="ldl-layer"><g class="ldl-ani" style="transform:matrix(1, 0, 0, 1, 0, 0);transform-box:view-box;animation-duration:1s;animation-timing-function:linear;animation-delay:-0.666667s;animation-iteration-count:infinite;animation-direction:normal;animation-fill-mode:forwards;animation-play-state:paused;animation-name:animate;animation-timeline:auto;animation-range-start:normal;animation-range-end:normal;transform-origin:50px 50px;;animation:none"><path fill="#FFE219" d="M70.69,14.96H29.31C21.96,14.96,16,20.83,16,28.08v29.25v10.3c0,9.03,7.43,18.86,16.59,18.86h34.83 c9.16,0,16.59-9.82,16.59-18.86v-10.3V28.08C84,20.83,78.04,14.96,70.69,14.96z" style="stroke-width:1px;fill:rgb(255, 226, 25);;animation:none"></path></g></g>
<g class="ldl-layer"><g class="ldl-ani" style="transform:matrix(1, 0, 0, 1, 0, 0);transform-box:view-box;animation-duration:1s;animation-timing-function:linear;animation-delay:-0.722222s;animation-iteration-count:infinite;animation-direction:normal;animation-fill-mode:forwards;animation-play-state:paused;animation-name:animate;animation-timeline:auto;animation-range-start:normal;animation-range-end:normal;transform-origin:50px 50px;;animation:none"><path fill="#FFF7E9" d="M66.14,86.48c2.06-2.95,3.27-6.5,3.27-10.32c0-10.26-8.69-18.61-19.41-18.61S30.59,65.9,30.59,76.16 c0,3.82,1.21,7.37,3.27,10.32H66.14z" style="stroke-width:1px;fill:rgb(255, 247, 233);;animation:none"></path></g></g></g></g></g>
<g class="ldl-layer"><g class="ldl-ani"><g><g class="ldl-layer"><g class="ldl-ani" style="transform:matrix(1, 0, 0, 1, 0, 0);transform-box:view-box;animation-duration:1s;animation-timing-function:linear;animation-delay:-0.777778s;animation-iteration-count:infinite;animation-direction:normal;animation-fill-mode:forwards;animation-play-state:paused;animation-name:animate;animation-timeline:auto;animation-range-start:normal;animation-range-end:normal;transform-origin:50px 50px;;animation:none"><ellipse cx="37.22" cy="39.34" rx="5.69" ry="5.8" style="stroke-width:1px;;animation:none"></ellipse></g></g>
<g class="ldl-layer"><g class="ldl-ani" style="transform:matrix(1, 0, 0, 1, 0, 0);transform-box:view-box;animation-duration:1s;animation-timing-function:linear;animation-delay:-0.833333s;animation-iteration-count:infinite;animation-direction:normal;animation-fill-mode:forwards;animation-play-state:paused;animation-name:animate;animation-timeline:auto;animation-range-start:normal;animation-range-end:normal;transform-origin:50px 50px;;animation:none"><ellipse cx="62.27" cy="39.34" rx="5.69" ry="5.8" style="stroke-width:1px;;animation:none"></ellipse></g></g></g></g></g>
<g class="ldl-layer"><g class="ldl-ani" style="transform:matrix(1, 0, 0, 1, 0, 0);transform-box:view-box;animation-duration:1s;animation-timing-function:linear;animation-delay:-0.888889s;animation-iteration-count:infinite;animation-direction:normal;animation-fill-mode:forwards;animation-play-state:paused;animation-name:animate;animation-timeline:auto;animation-range-start:normal;animation-range-end:normal;transform-origin:50px 50px;;animation:none"><path fill="#FFB500" d="M56.49,48.12c0.98,2.52-2.11,7.36-5.93,7.65c-4.33,0.33-8.04-5.31-7.08-7.85c0.86-2.28,5.53-2.23,6.5-2.22 C51.22,45.72,55.57,45.77,56.49,48.12z" style="stroke-width:1px;fill:rgb(255, 181, 0);;animation:none"></path></g></g>
<g class="ldl-layer"><g class="ldl-ani" style="transform:matrix(1, 0, 0, 1, 0, 0);transform-box:view-box;animation-duration:1s;animation-timing-function:linear;animation-delay:-0.944444s;animation-iteration-count:infinite;animation-direction:normal;animation-fill-mode:forwards;animation-play-state:paused;animation-name:animate;animation-timeline:auto;animation-range-start:normal;animation-range-end:normal;transform-origin:50px 50px;;animation:none"><path fill="#EEA300" d="M84,91.05L84,91.05c-5.31,0-9.61-4.3-9.61-9.61V71.9c0-5.31,4.3-9.61,9.61-9.61h0V91.05z" style="stroke-width:1px;fill:rgb(238, 163, 0);;animation:none"></path></g></g>
<g class="ldl-layer"><g class="ldl-ani" style="transform:matrix(1, 0, 0, 1, 0, 0);transform-box:view-box;animation-duration:1s;animation-timing-function:linear;animation-delay:-1s;animation-iteration-count:infinite;animation-direction:normal;animation-fill-mode:forwards;animation-play-state:paused;animation-name:animate;animation-timeline:auto;animation-range-start:normal;animation-range-end:normal;transform-origin:50px 50px;;animation:none"><path fill="#EEA300" d="M16,91.3L16,91.3c5.31,0,9.61-4.3,9.61-9.61v-9.54c0-5.31-4.3-9.61-9.61-9.61h0V91.3z" style="stroke-width:1px;fill:rgb(238, 163, 0);;animation:none"></path></g></g>
<metadata xmlns:d="https://loading.io/stock/"></metadata></g></g>
<STYLE type="text/css">@keyframes animate { 0.00% {animation-timing-function: cubic-bezier(0.33,0.00,0.67,0.00);transform: translate(0.00px,0.00px) rotate(0.00deg) scale(1.00, 1.00) skew(0deg, 0.00deg) ;opacity: 1.00;}50.00% {animation-timing-function: cubic-bezier(0.33,0.00,0.67,0.00);transform: translate(0.00px,0.00px) rotate(0.00deg) ;}100.00% {animation-timing-function: cubic-bezier(0.33,0.00,0.67,0.00);transform: translate(0.00px,0.00px) rotate(0.00deg) ;} }</STYLE><!-- [ldio] generated by https://loading.io --></svg>