<svg version="1.1" id="圖層_1" xmlns="http://www.w3.org/2000/svg" xmlns:xlink="http://www.w3.org/1999/xlink" x="0px" y="0px" viewBox="0 0 100 100" xml:space="preserve" preserveAspectRatio="xMidYMid" width="200" height="200" style="margin-top:0px;margin-right:0px;margin-bottom:0px;margin-left:0px;display:block;shape-rendering:auto;background-position-x:0%;background-position-y:0%;background-size:auto;background-origin:padding-box;background-clip:border-box;width:200px;height:200px;;animation:none"><g class="ldl-scale" style="transform-origin:50px 50px;transform:matrix(0.8, 0, 0, 0.8, 0, 0);;animation:none"><g class="ldl-ani"><g class="ldl-layer"><g class="ldl-ani"><g><g class="ldl-layer"><g class="ldl-ani" style="transform:matrix(1, 0, 0, 1, 0, 0);transform-box:view-box;animation-duration:1s;animation-timing-function:linear;animation-delay:-0.5625s;animation-iteration-count:infinite;animation-direction:normal;animation-fill-mode:forwards;animation-play-state:paused;animation-name:animate;animation-timeline:auto;animation-range-start:normal;animation-range-end:normal;transform-origin:50px 50px;;animation:none"><path fill="#D2D2D3" d="M64.47,53.65c1.29,3.19,4.63,4.87,8.02,4.31c0.02,0,0.04-0.01,0.07-0.01c2.76-0.42,3.97,1.17,5.61,0.16 c2.17-1.33,1.18-4.92,3.39-6.56c2.09-1.55,4.08,0.85,6.32-0.57c1.75-1.11,2.45-3.8,2.77-6.05c4.37,0.67,5.8-1.04,6.28-1.82 c2.72-4.37-2.06-15.09-6.36-21.06c-3.41-4.73-7.11-7.28-9.35-8.57c-2.09-0.7-7.59-2.17-13.79,0.61 c-6.51,2.92-9.89,8.76-11.03,10.94c0.87,5.11,2.14,10.92,4.04,17.19C61.7,46.39,63.07,50.2,64.47,53.65z" style="stroke-width:1px;fill:rgb(210, 210, 211);;animation:none"></path></g></g>
<g class="ldl-layer"><g class="ldl-ani" style="transform:matrix(1, 0, 0, 1, 0, 0);transform-box:view-box;animation-duration:1s;animation-timing-function:linear;animation-delay:-0.625s;animation-iteration-count:infinite;animation-direction:normal;animation-fill-mode:forwards;animation-play-state:paused;animation-name:animate;animation-timeline:auto;animation-range-start:normal;animation-range-end:normal;transform-origin:50px 50px;;animation:none"><path fill="#B3B3B3" d="M84.99,41.7c-4.95,4.51-11.77,2.84-16.61-2.47s-5.86-12.26-0.9-16.77s11.86-2.92,16.69,2.39 S89.94,37.19,84.99,41.7z" style="stroke-width:1px;fill:rgb(179, 179, 179);;animation:none"></path></g></g></g></g></g>
<g class="ldl-layer"><g class="ldl-ani"><g><g class="ldl-layer"><g class="ldl-ani" style="transform:matrix(1, 0, 0, 1, 0, 0);transform-box:view-box;animation-duration:1s;animation-timing-function:linear;animation-delay:-0.6875s;animation-iteration-count:infinite;animation-direction:normal;animation-fill-mode:forwards;animation-play-state:paused;animation-name:animate;animation-timeline:auto;animation-range-start:normal;animation-range-end:normal;transform-origin:50px 50px;;animation:none"><path fill="#D2D2D3" d="M35.53,53.65c-1.29,3.19-4.63,4.87-8.02,4.31c-0.02,0-0.04-0.01-0.07-0.01c-2.76-0.42-3.97,1.17-5.61,0.16 c-2.17-1.33-1.18-4.92-3.39-6.56c-2.09-1.55-4.08,0.85-6.32-0.57c-1.75-1.11-2.45-3.8-2.77-6.05c-4.37,0.67-5.8-1.04-6.28-1.82 c-2.72-4.37,2.06-15.09,6.36-21.06c3.41-4.73,7.11-7.28,9.35-8.57c2.09-0.7,7.59-2.17,13.79,0.61c6.51,2.92,9.89,8.76,11.03,10.94 c-0.87,5.11-2.14,10.92-4.04,17.19C38.3,46.39,36.93,50.2,35.53,53.65z" style="stroke-width:1px;fill:rgb(210, 210, 211);;animation:none"></path></g></g>
<g class="ldl-layer"><g class="ldl-ani" style="transform:matrix(1, 0, 0, 1, 0, 0);transform-box:view-box;animation-duration:1s;animation-timing-function:linear;animation-delay:-0.75s;animation-iteration-count:infinite;animation-direction:normal;animation-fill-mode:forwards;animation-play-state:paused;animation-name:animate;animation-timeline:auto;animation-range-start:normal;animation-range-end:normal;transform-origin:50px 50px;;animation:none"><path fill="#B3B3B3" d="M15.01,41.7c4.95,4.51,11.77,2.84,16.61-2.47s5.86-12.26,0.9-16.77c-4.95-4.51-11.86-2.92-16.69,2.39 S10.06,37.19,15.01,41.7z" style="stroke-width:1px;fill:rgb(179, 179, 179);;animation:none"></path></g></g></g></g></g>
<g class="ldl-layer"><g class="ldl-ani"><g><g class="ldl-layer"><g class="ldl-ani" style="transform:matrix(1, 0, 0, 1, 0, 0);transform-box:view-box;animation-duration:1s;animation-timing-function:linear;animation-delay:-0.8125s;animation-iteration-count:infinite;animation-direction:normal;animation-fill-mode:forwards;animation-play-state:paused;animation-name:animate;animation-timeline:auto;animation-range-start:normal;animation-range-end:normal;transform-origin:50px 50px;;animation:none"><path fill="#CCCCCC" d="M63.14,24.59h-26c-11.6,0-21,9.4-21,21v21.13c-0.03,0.02-0.06,0.04-0.1,0.06v8.02 c0,7.03,7.43,12.73,16.59,12.73h34.83c9.16,0,16.59-5.7,16.59-12.73c0.03,0.03,0.06,0.06,0.1,0.09v-29.3 C84.14,33.99,74.74,24.59,63.14,24.59z" style="stroke-width:1px;fill:rgb(204, 204, 204);;animation:none"></path></g></g>
<g class="ldl-layer"><g class="ldl-ani" style="transform:matrix(1, 0, 0, 1, 0, 0);transform-box:view-box;animation-duration:1s;animation-timing-function:linear;animation-delay:-0.875s;animation-iteration-count:infinite;animation-direction:normal;animation-fill-mode:forwards;animation-play-state:paused;animation-name:animate;animation-timeline:auto;animation-range-start:normal;animation-range-end:normal;transform-origin:50px 50px;;animation:none"><path fill="#333435" d="M50.1,44.31c-7.76,0-10.57,16.2-10.42,18.83c0.29,5.22,4.53,9.49,9.75,9.81 c6.06,0.37,11.09-4.43,11.09-10.41C60.52,60.14,57.86,44.31,50.1,44.31z" style="stroke-width:1px;fill:rgb(51, 52, 53);;animation:none"></path></g></g></g></g></g>
<g class="ldl-layer"><g class="ldl-ani"><g><g class="ldl-layer"><g class="ldl-ani" style="transform:matrix(1, 0, 0, 1, 0, 0);transform-box:view-box;animation-duration:1s;animation-timing-function:linear;animation-delay:-0.9375s;animation-iteration-count:infinite;animation-direction:normal;animation-fill-mode:forwards;animation-play-state:paused;animation-name:animate;animation-timeline:auto;animation-range-start:normal;animation-range-end:normal;transform-origin:50px 50px;;animation:none"><ellipse cx="34.29" cy="46.25" rx="4.63" ry="5.82" style="stroke-width:1px;;animation:none"></ellipse></g></g>
<g class="ldl-layer"><g class="ldl-ani" style="transform:matrix(1, 0, 0, 1, 0, 0);transform-box:view-box;animation-duration:1s;animation-timing-function:linear;animation-delay:-1s;animation-iteration-count:infinite;animation-direction:normal;animation-fill-mode:forwards;animation-play-state:paused;animation-name:animate;animation-timeline:auto;animation-range-start:normal;animation-range-end:normal;transform-origin:50px 50px;;animation:none"><ellipse cx="66" cy="46.25" rx="4.63" ry="5.82" style="stroke-width:1px;;animation:none"></ellipse></g></g></g></g></g>
<metadata xmlns:d="https://loading.io/stock/"></metadata></g></g>
<STYLE type="text/css">@keyframes animate { 0.00% {animation-timing-function: cubic-bezier(0.33,0.00,0.67,0.00);transform: translate(0.00px,0.00px) rotate(0.00deg) scale(1.00, 1.00) skew(0deg, 0.00deg) ;opacity: 1.00;}50.00% {animation-timing-function: cubic-bezier(0.33,0.00,0.67,0.00);transform: translate(0.00px,0.00px) rotate(0.00deg) ;}100.00% {animation-timing-function: cubic-bezier(0.33,0.00,0.67,0.00);transform: translate(0.00px,0.00px) rotate(0.00deg) ;} }</STYLE><!-- [ldio] generated by https://loading.io --></svg>