<svg version="1.1" id="圖層_1" xmlns="http://www.w3.org/2000/svg" xmlns:xlink="http://www.w3.org/1999/xlink" x="0px" y="0px" viewBox="0 0 100 100" xml:space="preserve" preserveAspectRatio="xMidYMid" width="200" height="200" style="margin-top:0px;margin-right:0px;margin-bottom:0px;margin-left:0px;display:block;shape-rendering:auto;background-position-x:0%;background-position-y:0%;background-size:auto;background-origin:padding-box;background-clip:border-box;width:200px;height:200px;;animation:none"><g class="ldl-scale" style="transform-origin:50px 50px;transform:matrix(0.8, 0, 0, 0.8, 0, 0);;animation:none"><g class="ldl-ani"><g class="ldl-layer"><g class="ldl-ani"><g><g class="ldl-layer"><g class="ldl-ani" style="transform:matrix(1, 0, 0, 1, 0, 0);transform-box:view-box;animation-duration:1s;animation-timing-function:linear;animation-delay:-0.533333s;animation-iteration-count:infinite;animation-direction:normal;animation-fill-mode:forwards;animation-play-state:paused;animation-name:animate;animation-timeline:auto;animation-range-start:normal;animation-range-end:normal;transform-origin:50px 50px;;animation:none"><path fill="#333435" d="M89.56,33.56c6.54-4.1,9.24-13.33,6.05-20.61L71.94,27.79C75.14,35.08,83.02,37.66,89.56,33.56z" style="stroke-width:1px;fill:rgb(51, 52, 53);;animation:none"></path></g></g>
<g class="ldl-layer"><g class="ldl-ani" style="transform:matrix(1, 0, 0, 1, 0, 0);transform-box:view-box;animation-duration:1s;animation-timing-function:linear;animation-delay:-0.566667s;animation-iteration-count:infinite;animation-direction:normal;animation-fill-mode:forwards;animation-play-state:paused;animation-name:animate;animation-timeline:auto;animation-range-start:normal;animation-range-end:normal;transform-origin:50px 50px;;animation:none"><path fill="#333435" d="M10.44,33.56c-6.54-4.1-9.24-13.33-6.05-20.61l23.67,14.84C24.86,35.08,16.98,37.66,10.44,33.56z" style="stroke-width:1px;fill:rgb(51, 52, 53);;animation:none"></path></g></g></g></g></g>
<g class="ldl-layer"><g class="ldl-ani"><g><g class="ldl-layer"><g class="ldl-ani" style="transform:matrix(1, 0, 0, 1, 0, 0);transform-box:view-box;animation-duration:1s;animation-timing-function:linear;animation-delay:-0.6s;animation-iteration-count:infinite;animation-direction:normal;animation-fill-mode:forwards;animation-play-state:paused;animation-name:animate;animation-timeline:auto;animation-range-start:normal;animation-range-end:normal;transform-origin:50px 50px;;animation:none"><path fill="#B3B3B3" d="M31.93,7.83c0.8-0.83,2.22,0.02,2.07,1.23c-0.41,3.48-0.52,8.05,0.44,13.29c0.42,2.31,0.99,4.42,1.62,6.3 c1.21,3.62-0.53,7.55-4.04,9.04c-0.06,0.02-0.11,0.05-0.17,0.07c-5.05,2.15-10.63-1.87-10.09-7.33c0.42-4.26,1.53-9.13,3.99-13.97 C27.64,12.78,29.88,9.94,31.93,7.83z" style="stroke-width:1px;fill:rgb(179, 179, 179);;animation:none"></path></g></g>
<g class="ldl-layer"><g class="ldl-ani" style="transform:matrix(1, 0, 0, 1, 0, 0);transform-box:view-box;animation-duration:1s;animation-timing-function:linear;animation-delay:-0.633333s;animation-iteration-count:infinite;animation-direction:normal;animation-fill-mode:forwards;animation-play-state:paused;animation-name:animate;animation-timeline:auto;animation-range-start:normal;animation-range-end:normal;transform-origin:50px 50px;;animation:none"><path fill="#B3B3B3" d="M68.07,7.83c-0.8-0.83-2.22,0.02-2.07,1.23c0.41,3.48,0.52,8.05-0.44,13.29c-0.42,2.31-0.99,4.42-1.62,6.3 c-1.21,3.62,0.53,7.55,4.04,9.04c0.06,0.02,0.11,0.05,0.17,0.07c5.05,2.15,10.63-1.87,10.09-7.33c-0.42-4.26-1.53-9.13-3.99-13.97 C72.36,12.78,70.12,9.94,68.07,7.83z" style="stroke-width:1px;fill:rgb(179, 179, 179);;animation:none"></path></g></g></g></g></g>
<g class="ldl-layer"><g class="ldl-ani" style="transform:matrix(1, 0, 0, 1, 0, 0);transform-box:view-box;animation-duration:1s;animation-timing-function:linear;animation-delay:-0.666667s;animation-iteration-count:infinite;animation-direction:normal;animation-fill-mode:forwards;animation-play-state:paused;animation-name:animate;animation-timeline:auto;animation-range-start:normal;animation-range-end:normal;transform-origin:50px 50px;;animation:none"><polygon fill="#F4E6C8" points="83.66,28.07 83.66,64.12 83.66,28.07" style="stroke-width:1px;fill:rgb(244, 230, 200);;animation:none"></polygon></g></g>
<g class="ldl-layer"><g class="ldl-ani"><g><g class="ldl-layer"><g class="ldl-ani" style="transform:matrix(1, 0, 0, 1, 0, 0);transform-box:view-box;animation-duration:1s;animation-timing-function:linear;animation-delay:-0.7s;animation-iteration-count:infinite;animation-direction:normal;animation-fill-mode:forwards;animation-play-state:paused;animation-name:animate;animation-timeline:auto;animation-range-start:normal;animation-range-end:normal;transform-origin:50px 50px;;animation:none"><path fill="#F4E6C8" d="M50,51.35c-0.79,0-1.58,0.02-2.36,0.05c-11.83,0.42-23.19,5.35-32.09,13.07v8.12 c0,9.89,8.02,17.91,17.91,17.91h33.07c9.89,0,17.91-8.02,17.91-17.91v-8.12c0,0,0,0,0,0C74.87,56.29,63.51,51.35,50,51.35z" style="stroke-width:1px;fill:rgb(244, 230, 200);;animation:none"></path></g></g>
<g class="ldl-layer"><g class="ldl-ani" style="transform:matrix(1, 0, 0, 1, 0, 0);transform-box:view-box;animation-duration:1s;animation-timing-function:linear;animation-delay:-0.733333s;animation-iteration-count:infinite;animation-direction:normal;animation-fill-mode:forwards;animation-play-state:paused;animation-name:animate;animation-timeline:auto;animation-range-start:normal;animation-range-end:normal;transform-origin:50px 50px;;animation:none"><path fill="#333435" d="M77.28,20.41h-27.5c1.11,2.52,1.86,5.23,2.27,8.03c0.27,1.75,0.42,3.53,0.42,5.36 c0,2.85-0.37,5.61-1.02,8.25c-0.03,0.12-0.06,0.24-0.09,0.36c-0.1,0.39-0.21,0.79-0.32,1.18c-0.16,0.56-0.34,1.12-0.53,1.67 c0,0.01,0,0.01-0.01,0.02c-0.75,2.17-1.7,4.25-2.87,6.15c0.78-0.03,1.56-0.05,2.36-0.05c13.51,0,24.87,4.94,34.44,13.12 c0,0,0,0,0,0l0-36.9C84.45,23.62,81.24,20.41,77.28,20.41z" style="stroke-width:1px;fill:rgb(51, 52, 53);;animation:none"></path></g></g>
<g class="ldl-layer"><g class="ldl-ani" style="transform:matrix(1, 0, 0, 1, 0, 0);transform-box:view-box;animation-duration:1s;animation-timing-function:linear;animation-delay:-0.766667s;animation-iteration-count:infinite;animation-direction:normal;animation-fill-mode:forwards;animation-play-state:paused;animation-name:animate;animation-timeline:auto;animation-range-start:normal;animation-range-end:normal;transform-origin:50px 50px;;animation:none"><path fill="#E6E6E6" d="M22.72,20.41h27.06c0-0.01-0.01-0.02-0.01-0.04c-9.02,0-18.04,0.01-27.06,0.02 c-3.95,0.01-7.15,3.21-7.15,7.17v36.91l0,0V27.58C15.55,23.62,18.76,20.41,22.72,20.41z" style="stroke-width:1px;fill:rgb(230, 230, 230);;animation:none"></path></g></g>
<g class="ldl-layer"><g class="ldl-ani" style="transform:matrix(1, 0, 0, 1, 0, 0);transform-box:view-box;animation-duration:1s;animation-timing-function:linear;animation-delay:-0.8s;animation-iteration-count:infinite;animation-direction:normal;animation-fill-mode:forwards;animation-play-state:paused;animation-name:animate;animation-timeline:auto;animation-range-start:normal;animation-range-end:normal;transform-origin:50px 50px;;animation:none"><path fill="#E6E6E6" d="M47.64,51.39c1.15-1.93,2.11-3.98,2.87-6.13c0-0.01,0-0.01,0.01-0.02c0.19-0.55,0.36-1.11,0.53-1.67 c0.11-0.39,0.22-0.78,0.32-1.18c0.03-0.12,0.06-0.24,0.09-0.36c1.05-4.42,1.27-9.11,0.6-13.61c-0.44-2.8-1.21-5.49-2.27-8.03H22.72 c-3.96,0-7.16,3.21-7.16,7.16v36.89c8.9-7.72,20.26-12.64,32.09-13.07C47.64,51.4,47.64,51.4,47.64,51.39z" style="stroke-width:1px;fill:rgb(230, 230, 230);;animation:none"></path></g></g></g></g></g>
<g class="ldl-layer"><g class="ldl-ani"><g><g class="ldl-layer"><g class="ldl-ani" style="transform:matrix(1, 0, 0, 1, 0, 0);transform-box:view-box;animation-duration:1s;animation-timing-function:linear;animation-delay:-0.833333s;animation-iteration-count:infinite;animation-direction:normal;animation-fill-mode:forwards;animation-play-state:paused;animation-name:animate;animation-timeline:auto;animation-range-start:normal;animation-range-end:normal;transform-origin:50px 50px;;animation:none"><ellipse cx="41.37" cy="70.91" rx="4.71" ry="4.66" style="stroke-width:1px;;animation:none"></ellipse></g></g>
<g class="ldl-layer"><g class="ldl-ani" style="transform:matrix(1, 0, 0, 1, 0, 0);transform-box:view-box;animation-duration:1s;animation-timing-function:linear;animation-delay:-0.866667s;animation-iteration-count:infinite;animation-direction:normal;animation-fill-mode:forwards;animation-play-state:paused;animation-name:animate;animation-timeline:auto;animation-range-start:normal;animation-range-end:normal;transform-origin:50px 50px;;animation:none"><ellipse cx="58.63" cy="70.91" rx="4.71" ry="4.66" style="stroke-width:1px;;animation:none"></ellipse></g></g></g></g></g>
<g class="ldl-layer"><g class="ldl-ani"><g><g class="ldl-layer"><g class="ldl-ani" style="transform:matrix(1, 0, 0, 1, 0, 0);transform-box:view-box;animation-duration:1s;animation-timing-function:linear;animation-delay:-0.9s;animation-iteration-count:infinite;animation-direction:normal;animation-fill-mode:forwards;animation-play-state:paused;animation-name:animate;animation-timeline:auto;animation-range-start:normal;animation-range-end:normal;transform-origin:50px 50px;;animation:none"><circle fill="#FFFFFF" cx="65.9" cy="38.63" r="6.65" style="stroke-width:1px;fill:rgb(255, 255, 255);;animation:none"></circle></g></g>
<g class="ldl-layer"><g class="ldl-ani" style="transform:matrix(1, 0, 0, 1, 0, 0);transform-box:view-box;animation-duration:1s;animation-timing-function:linear;animation-delay:-0.933333s;animation-iteration-count:infinite;animation-direction:normal;animation-fill-mode:forwards;animation-play-state:paused;animation-name:animate;animation-timeline:auto;animation-range-start:normal;animation-range-end:normal;transform-origin:50px 50px;;animation:none"><circle cx="65.9" cy="38.6" r="4.21" style="stroke-width:1px;;animation:none"></circle></g></g></g></g></g>
<g class="ldl-layer"><g class="ldl-ani"><g><g class="ldl-layer"><g class="ldl-ani" style="transform:matrix(1, 0, 0, 1, 0, 0);transform-box:view-box;animation-duration:1s;animation-timing-function:linear;animation-delay:-0.966667s;animation-iteration-count:infinite;animation-direction:normal;animation-fill-mode:forwards;animation-play-state:paused;animation-name:animate;animation-timeline:auto;animation-range-start:normal;animation-range-end:normal;transform-origin:50px 50px;;animation:none"><circle fill="#FFFFFF" cx="34.06" cy="38.63" r="6.65" style="stroke-width:1px;fill:rgb(255, 255, 255);;animation:none"></circle></g></g>
<g class="ldl-layer"><g class="ldl-ani" style="transform:matrix(1, 0, 0, 1, 0, 0);transform-box:view-box;animation-duration:1s;animation-timing-function:linear;animation-delay:-1s;animation-iteration-count:infinite;animation-direction:normal;animation-fill-mode:forwards;animation-play-state:paused;animation-name:animate;animation-timeline:auto;animation-range-start:normal;animation-range-end:normal;transform-origin:50px 50px;;animation:none"><circle cx="34.06" cy="38.6" r="4.21" style="stroke-width:1px;;animation:none"></circle></g></g></g></g></g>
<metadata xmlns:d="https://loading.io/stock/"></metadata></g></g>
<STYLE type="text/css">@keyframes animate { 0.00% {animation-timing-function: cubic-bezier(0.33,0.00,0.67,0.00);transform: translate(0.00px,0.00px) rotate(0.00deg) scale(1.00, 1.00) skew(0deg, 0.00deg) ;opacity: 1.00;}50.00% {animation-timing-function: cubic-bezier(0.33,0.00,0.67,0.00);transform: translate(0.00px,0.00px) rotate(0.00deg) ;}100.00% {animation-timing-function: cubic-bezier(0.33,0.00,0.67,0.00);transform: translate(0.00px,0.00px) rotate(0.00deg) ;} }</STYLE><!-- [ldio] generated by https://loading.io --></svg>