<svg version="1.1" id="圖層_1" xmlns="http://www.w3.org/2000/svg" xmlns:xlink="http://www.w3.org/1999/xlink" x="0px" y="0px" viewBox="0 0 100 100" xml:space="preserve" preserveAspectRatio="xMidYMid" width="200" height="200" style="margin-top:0px;margin-right:0px;margin-bottom:0px;margin-left:0px;display:block;shape-rendering:auto;background-position-x:0%;background-position-y:0%;background-size:auto;background-origin:padding-box;background-clip:border-box;background:scroll rgb(255, 255, 255) none  repeat;width:200px;height:200px;;animation:none"><g class="ldl-scale" style="transform-origin:50px 50px;transform:matrix(0.8, 0, 0, 0.8, 0, 0);;animation:none"><g class="ldl-ani"><g class="ldl-layer"><g class="ldl-ani"><g><g class="ldl-layer"><g class="ldl-ani" style="transform:matrix(1, 0, 0, 1, 0, 0);transform-box:view-box;animation-duration:1s;animation-timing-function:linear;animation-delay:-0.541667s;animation-iteration-count:infinite;animation-direction:normal;animation-fill-mode:forwards;animation-play-state:paused;animation-name:animate;animation-timeline:auto;animation-range-start:normal;animation-range-end:normal;transform-origin:50px 50px;;animation:none"><path fill="#A0C8D7" d="M94.16,58.89l-27.23,8.19c-3.11,0.94-7-2.88-8.7-8.52l-6.1-20.27c-1.41-4.68-0.88-9.29,1.28-11.19 l7.96-6.97c3.08-2.7,7.45-4.01,11.51-3.46l10.49,1.42c2.85,0.39,5.83,3.94,7.24,8.62l6.1,20.27 C98.41,52.62,97.27,57.95,94.16,58.89z" style="stroke-width:1px;fill:rgb(160, 200, 215);;animation:none"></path></g></g>
<g class="ldl-layer"><g class="ldl-ani" style="transform:matrix(1, 0, 0, 1, 0, 0);transform-box:view-box;animation-duration:1s;animation-timing-function:linear;animation-delay:-0.583333s;animation-iteration-count:infinite;animation-direction:normal;animation-fill-mode:forwards;animation-play-state:paused;animation-name:animate;animation-timeline:auto;animation-range-start:normal;animation-range-end:normal;transform-origin:50px 50px;;animation:none"><path fill="#A0C8D7" d="M5.84,58.89l27.23,8.19c3.11,0.94,7-2.88,8.7-8.52l6.1-20.27c1.41-4.68,0.88-9.29-1.28-11.19l-7.96-6.97 c-3.08-2.7-7.45-4.01-11.51-3.46l-10.49,1.42c-2.85,0.39-5.83,3.94-7.24,8.62l-6.1,20.27C1.59,52.62,2.73,57.95,5.84,58.89z" style="stroke-width:1px;fill:rgb(160, 200, 215);;animation:none"></path></g></g></g></g></g>
<g class="ldl-layer"><g class="ldl-ani" style="transform:matrix(1, 0, 0, 1, 0, 0);transform-box:view-box;animation-duration:1s;animation-timing-function:linear;animation-delay:-0.625s;animation-iteration-count:infinite;animation-direction:normal;animation-fill-mode:forwards;animation-play-state:paused;animation-name:animate;animation-timeline:auto;animation-range-start:normal;animation-range-end:normal;transform-origin:50px 50px;;animation:none"><path fill="#77A4BD" d="M60.57,85.65H39.44c-9.95,0-18.02-8.07-18.02-18.02V29.37c0-3.58,2.63-6.62,6.18-7.14l18.29-2.64 c2.73-0.39,5.5-0.39,8.23,0l18.29,2.64c3.55,0.51,6.18,3.55,6.18,7.14v38.26C78.59,77.58,70.52,85.65,60.57,85.65z" style="stroke-width:1px;fill:rgb(119, 164, 189);;animation:none"></path></g></g>
<g class="ldl-layer"><g class="ldl-ani"><g><g class="ldl-layer"><g class="ldl-ani" style="transform:matrix(1, 0, 0, 1, 0, 0);transform-box:view-box;animation-duration:1s;animation-timing-function:linear;animation-delay:-0.666667s;animation-iteration-count:infinite;animation-direction:normal;animation-fill-mode:forwards;animation-play-state:paused;animation-name:animate;animation-timeline:auto;animation-range-start:normal;animation-range-end:normal;transform-origin:50px 50px;;animation:none"><circle cx="64.73" cy="40.37" r="5.66" style="stroke-width:1px;;animation:none"></circle></g></g>
<g class="ldl-layer"><g class="ldl-ani" style="transform:matrix(1, 0, 0, 1, 0, 0);transform-box:view-box;animation-duration:1s;animation-timing-function:linear;animation-delay:-0.708333s;animation-iteration-count:infinite;animation-direction:normal;animation-fill-mode:forwards;animation-play-state:paused;animation-name:animate;animation-timeline:auto;animation-range-start:normal;animation-range-end:normal;transform-origin:50px 50px;;animation:none"><circle cx="35.28" cy="40.37" r="5.66" style="stroke-width:1px;;animation:none"></circle></g></g></g></g></g>
<g class="ldl-layer"><g class="ldl-ani"><g><g class="ldl-layer"><g class="ldl-ani" style="transform:matrix(1, 0, 0, 1, 0, 0);transform-box:view-box;animation-duration:1s;animation-timing-function:linear;animation-delay:-0.75s;animation-iteration-count:infinite;animation-direction:normal;animation-fill-mode:forwards;animation-play-state:paused;animation-name:animate;animation-timeline:auto;animation-range-start:normal;animation-range-end:normal;transform-origin:50px 50px;;animation:none"><path fill="#FFFFFF" d="M65.43,68.68c1.01,1.82,3.36,2.43,5.1,1.29c1.03-0.68,2.13-1.48,3.25-2.42c6.44-5.41,10.85-13.1,9.75-14.24 c-0.66-0.68-2.96,1.31-13.07,7.27c-1.52,0.9-2.92,1.71-4.14,2.41c-1.71,0.98-2.31,3.15-1.36,4.87L65.43,68.68z" style="stroke-width:1px;fill:rgb(255, 255, 255);;animation:none"></path></g></g>
<g class="ldl-layer"><g class="ldl-ani" style="transform:matrix(1, 0, 0, 1, 0, 0);transform-box:view-box;animation-duration:1s;animation-timing-function:linear;animation-delay:-0.791667s;animation-iteration-count:infinite;animation-direction:normal;animation-fill-mode:forwards;animation-play-state:paused;animation-name:animate;animation-timeline:auto;animation-range-start:normal;animation-range-end:normal;transform-origin:50px 50px;;animation:none"><path fill="#FFFFFF" d="M34.58,68.68c-1.01,1.82-3.36,2.43-5.1,1.29c-1.03-0.68-2.13-1.48-3.25-2.42 c-6.44-5.41-10.85-13.1-9.75-14.24c0.66-0.68,2.96,1.31,13.07,7.27c1.52,0.9,2.92,1.71,4.14,2.41c1.71,0.98,2.31,3.15,1.36,4.87 L34.58,68.68z" style="stroke-width:1px;fill:rgb(255, 255, 255);;animation:none"></path></g></g></g></g></g>
<g class="ldl-layer"><g class="ldl-ani"><g><g class="ldl-layer"><g class="ldl-ani" style="transform:matrix(1, 0, 0, 1, 0, 0);transform-box:view-box;animation-duration:1s;animation-timing-function:linear;animation-delay:-0.833333s;animation-iteration-count:infinite;animation-direction:normal;animation-fill-mode:forwards;animation-play-state:paused;animation-name:animate;animation-timeline:auto;animation-range-start:normal;animation-range-end:normal;transform-origin:50px 50px;;animation:none"><path fill="#D2E7F0" d="M50,91.45L50,91.45c-3.69,0-6.72-2.93-6.84-6.61l-0.91-27.27c-0.15-4.38,3.36-8.01,7.74-8.01h0 c4.38,0,7.89,3.63,7.74,8.01l-0.91,27.27C56.72,88.52,53.69,91.45,50,91.45z" style="stroke-width:1px;fill:rgb(210, 231, 240);;animation:none"></path></g></g>
<g class="ldl-layer"><g class="ldl-ani" style="transform:matrix(1, 0, 0, 1, 0, 0);transform-box:view-box;animation-duration:1s;animation-timing-function:linear;animation-delay:-0.875s;animation-iteration-count:infinite;animation-direction:normal;animation-fill-mode:forwards;animation-play-state:paused;animation-name:animate;animation-timeline:auto;animation-range-start:normal;animation-range-end:normal;transform-origin:50px 50px;;animation:none"><line fill="none" stroke="#77A4BD" stroke-width="3.5" stroke-linecap="round" stroke-linejoin="round" stroke-miterlimit="10" x1="46.64" y1="58.4" x2="53.61" y2="58.4" style="stroke-width:3.5px;stroke:rgb(119, 164, 189);fill:none;;animation:none"></line></g></g>
<g class="ldl-layer"><g class="ldl-ani" style="transform:matrix(1, 0, 0, 1, 0, 0);transform-box:view-box;animation-duration:1s;animation-timing-function:linear;animation-delay:-0.916667s;animation-iteration-count:infinite;animation-direction:normal;animation-fill-mode:forwards;animation-play-state:paused;animation-name:animate;animation-timeline:auto;animation-range-start:normal;animation-range-end:normal;transform-origin:50px 50px;;animation:none"><line fill="none" stroke="#77A4BD" stroke-width="3.5" stroke-linecap="round" stroke-linejoin="round" stroke-miterlimit="10" x1="46.99" y1="66.63" x2="53.27" y2="66.63" style="stroke-width:3.5px;stroke:rgb(119, 164, 189);fill:none;;animation:none"></line></g></g>
<g class="ldl-layer"><g class="ldl-ani" style="transform:matrix(1, 0, 0, 1, 0, 0);transform-box:view-box;animation-duration:1s;animation-timing-function:linear;animation-delay:-0.958333s;animation-iteration-count:infinite;animation-direction:normal;animation-fill-mode:forwards;animation-play-state:paused;animation-name:animate;animation-timeline:auto;animation-range-start:normal;animation-range-end:normal;transform-origin:50px 50px;;animation:none"><line fill="none" stroke="#77A4BD" stroke-width="3.5" stroke-linecap="round" stroke-linejoin="round" stroke-miterlimit="10" x1="47.24" y1="74.87" x2="53.01" y2="74.87" style="stroke-width:3.5px;stroke:rgb(119, 164, 189);fill:none;;animation:none"></line></g></g>
<g class="ldl-layer"><g class="ldl-ani" style="transform:matrix(1, 0, 0, 1, 0, 0);transform-box:view-box;animation-duration:1s;animation-timing-function:linear;animation-delay:-1s;animation-iteration-count:infinite;animation-direction:normal;animation-fill-mode:forwards;animation-play-state:paused;animation-name:animate;animation-timeline:auto;animation-range-start:normal;animation-range-end:normal;transform-origin:50px 50px;;animation:none"><line fill="none" stroke="#77A4BD" stroke-width="3.5" stroke-linecap="round" stroke-linejoin="round" stroke-miterlimit="10" x1="47.55" y1="83.11" x2="52.7" y2="83.11" style="stroke-width:3.5px;stroke:rgb(119, 164, 189);fill:none;;animation:none"></line></g></g></g></g></g>
<metadata xmlns:d="https://loading.io/stock/"></metadata></g></g>
<STYLE type="text/css">@keyframes animate { 0.00% {animation-timing-function: cubic-bezier(0.33,0.00,0.67,0.00);transform: translate(0.00px,0.00px) rotate(0.00deg) scale(1.00, 1.00) skew(0deg, 0.00deg) ;opacity: 1.00;}50.00% {animation-timing-function: cubic-bezier(0.33,0.00,0.67,0.00);transform: translate(0.00px,0.00px) rotate(0.00deg) ;}100.00% {animation-timing-function: cubic-bezier(0.33,0.00,0.67,0.00);transform: translate(0.00px,0.00px) rotate(0.00deg) ;} }</STYLE><!-- [ldio] generated by https://loading.io --></svg>