<svg version="1.1" id="圖層_1" xmlns="http://www.w3.org/2000/svg" xmlns:xlink="http://www.w3.org/1999/xlink" x="0px" y="0px" viewBox="0 0 100 100" xml:space="preserve" preserveAspectRatio="xMidYMid" width="200" height="200" style="margin-top:0px;margin-right:0px;margin-bottom:0px;margin-left:0px;display:block;shape-rendering:auto;background-position-x:0%;background-position-y:0%;background-size:auto;background-origin:padding-box;background-clip:border-box;background:scroll rgb(255, 255, 255) none  repeat;width:200px;height:200px;;animation:none"><g class="ldl-scale" style="transform-origin:50px 50px;transform:matrix(0.8, 0, 0, 0.8, 0, 0);;animation:none"><g class="ldl-ani"><g class="ldl-layer"><g class="ldl-ani"><g><g class="ldl-layer"><g class="ldl-ani" style="transform:matrix(1, 0, 0, 1, 0, 0);transform-box:view-box;animation-duration:1s;animation-timing-function:linear;animation-delay:-0.527778s;animation-iteration-count:infinite;animation-direction:normal;animation-fill-mode:forwards;animation-play-state:paused;animation-name:animate;animation-timeline:auto;animation-range-start:normal;animation-range-end:normal;transform-origin:50px 50px;;animation:none"><path fill="#8E5D01" d="M82.54,8.57c1.01-0.38,1.93,0.76,1.35,1.67c-1.66,2.6-3.48,6.14-4.61,10.59 c-1.15,4.53-1.21,8.48-1.02,11.27c-5.71-0.02-11.41-0.04-17.12-0.06c1.01-3.45,4.09-12.24,12.77-18.75 C76.94,11.01,79.96,9.54,82.54,8.57z" style="stroke-width:1px;fill:rgb(142, 93, 1);;animation:none"></path></g></g>
<g class="ldl-layer"><g class="ldl-ani" style="transform:matrix(1, 0, 0, 1, 0, 0);transform-box:view-box;animation-duration:1s;animation-timing-function:linear;animation-delay:-0.555556s;animation-iteration-count:infinite;animation-direction:normal;animation-fill-mode:forwards;animation-play-state:paused;animation-name:animate;animation-timeline:auto;animation-range-start:normal;animation-range-end:normal;transform-origin:50px 50px;;animation:none"><path fill="#8E5D01" d="M17.41,8.57c-1.01-0.38-1.93,0.76-1.35,1.67c1.66,2.6,3.48,6.14,4.61,10.59c1.15,4.53,1.21,8.48,1.02,11.27 c5.71-0.02,11.41-0.04,17.12-0.06c-1.01-3.45-4.09-12.24-12.77-18.75C23.01,11.01,20,9.54,17.41,8.57z" style="stroke-width:1px;fill:rgb(142, 93, 1);;animation:none"></path></g></g></g></g></g>
<g class="ldl-layer"><g class="ldl-ani" style="transform:matrix(1, 0, 0, 1, 0, 0);transform-box:view-box;animation-duration:1s;animation-timing-function:linear;animation-delay:-0.583333s;animation-iteration-count:infinite;animation-direction:normal;animation-fill-mode:forwards;animation-play-state:paused;animation-name:animate;animation-timeline:auto;animation-range-start:normal;animation-range-end:normal;transform-origin:50px 50px;;animation:none"><path fill="none" stroke="#000000" stroke-width="3.5" stroke-linecap="round" stroke-miterlimit="10" d="M34.64,64.56 c6.27,9.08,8.09,4.04,13.22,0.66c1.26-0.83,3.09-0.95,4.27,0c4.22,3.38,6.95,8.42,13.22-0.66" style="stroke-width:3.5px;fill:none;stroke:rgb(0, 0, 0);;animation:none"></path></g></g>
<g class="ldl-layer"><g class="ldl-ani" style="transform:matrix(1, 0, 0, 1, 0, 0);transform-box:view-box;animation-duration:1s;animation-timing-function:linear;animation-delay:-0.611111s;animation-iteration-count:infinite;animation-direction:normal;animation-fill-mode:forwards;animation-play-state:paused;animation-name:animate;animation-timeline:auto;animation-range-start:normal;animation-range-end:normal;transform-origin:50px 50px;;animation:none"><path fill="#FFFFFF" d="M65.43,34v-0.82c0-1.09-0.88-1.97-1.97-1.97h-3.03c-1.09,0-1.97,0.88-1.97,1.97V34 c0,1.09,0.88,1.97,1.97,1.97h3.03C64.54,35.97,65.43,35.09,65.43,34z" style="stroke-width:1px;fill:rgb(255, 255, 255);;animation:none"></path></g></g>
<g class="ldl-layer"><g class="ldl-ani" style="transform:matrix(1, 0, 0, 1, 0, 0);transform-box:view-box;animation-duration:1s;animation-timing-function:linear;animation-delay:-0.638889s;animation-iteration-count:infinite;animation-direction:normal;animation-fill-mode:forwards;animation-play-state:paused;animation-name:animate;animation-timeline:auto;animation-range-start:normal;animation-range-end:normal;transform-origin:50px 50px;;animation:none"><path fill="#FFFFFF" d="M34.57,34v-0.82c0-1.09,0.88-1.97,1.97-1.97h3.03c1.09,0,1.97,0.88,1.97,1.97V34c0,1.09-0.88,1.97-1.97,1.97 h-3.03C35.46,35.97,34.57,35.09,34.57,34z" style="stroke-width:1px;fill:rgb(255, 255, 255);;animation:none"></path></g></g>
<g class="ldl-layer"><g class="ldl-ani" style="transform:matrix(1, 0, 0, 1, 0, 0);transform-box:view-box;animation-duration:1s;animation-timing-function:linear;animation-delay:-0.666667s;animation-iteration-count:infinite;animation-direction:normal;animation-fill-mode:forwards;animation-play-state:paused;animation-name:animate;animation-timeline:auto;animation-range-start:normal;animation-range-end:normal;transform-origin:50px 50px;;animation:none"><path d="M55.53,53.41c0,3.05-2.48,5.53-5.53,5.53s-5.53-2.48-5.53-5.53s2.48-3.28,5.53-3.28S55.53,50.35,55.53,53.41z" style="stroke-width:1px;;animation:none"></path></g></g>
<g class="ldl-layer"><g class="ldl-ani" style="transform:matrix(1, 0, 0, 1, 0, 0);transform-box:view-box;animation-duration:1s;animation-timing-function:linear;animation-delay:-0.694444s;animation-iteration-count:infinite;animation-direction:normal;animation-fill-mode:forwards;animation-play-state:paused;animation-name:animate;animation-timeline:auto;animation-range-start:normal;animation-range-end:normal;transform-origin:50px 50px;;animation:none"><ellipse cx="34.73" cy="44.54" rx="4.46" ry="6.62" style="stroke-width:1px;;animation:none"></ellipse></g></g>
<g class="ldl-layer"><g class="ldl-ani" style="transform:matrix(1, 0, 0, 1, 0, 0);transform-box:view-box;animation-duration:1s;animation-timing-function:linear;animation-delay:-0.722222s;animation-iteration-count:infinite;animation-direction:normal;animation-fill-mode:forwards;animation-play-state:paused;animation-name:animate;animation-timeline:auto;animation-range-start:normal;animation-range-end:normal;transform-origin:50px 50px;;animation:none"><ellipse cx="65.27" cy="44.54" rx="4.46" ry="6.62" style="stroke-width:1px;;animation:none"></ellipse></g></g>
<g class="ldl-layer"><g class="ldl-ani"><g><g class="ldl-layer"><g class="ldl-ani" style="transform:matrix(1, 0, 0, 1, 0, 0);transform-box:view-box;animation-duration:1s;animation-timing-function:linear;animation-delay:-0.75s;animation-iteration-count:infinite;animation-direction:normal;animation-fill-mode:forwards;animation-play-state:paused;animation-name:animate;animation-timeline:auto;animation-range-start:normal;animation-range-end:normal;transform-origin:50px 50px;;animation:none"><path fill="#D2D2D3" d="M87.6,34.42c6.21-3.26,8.79-10.59,5.75-16.38l-22.49,11.8C73.89,35.63,81.39,37.68,87.6,34.42z" style="stroke-width:1px;fill:rgb(210, 210, 211);;animation:none"></path></g></g>
<g class="ldl-layer"><g class="ldl-ani" style="transform:matrix(1, 0, 0, 1, 0, 0);transform-box:view-box;animation-duration:1s;animation-timing-function:linear;animation-delay:-0.777778s;animation-iteration-count:infinite;animation-direction:normal;animation-fill-mode:forwards;animation-play-state:paused;animation-name:animate;animation-timeline:auto;animation-range-start:normal;animation-range-end:normal;transform-origin:50px 50px;;animation:none"><path fill="#D2D2D3" d="M12.4,34.42c-6.21-3.26-8.79-10.59-5.75-16.38l22.49,11.8C26.11,35.63,18.61,37.68,12.4,34.42z" style="stroke-width:1px;fill:rgb(210, 210, 211);;animation:none"></path></g></g>
<g class="ldl-layer"><g class="ldl-ani" style="transform:matrix(1, 0, 0, 1, 0, 0);transform-box:view-box;animation-duration:1s;animation-timing-function:linear;animation-delay:-0.805556s;animation-iteration-count:infinite;animation-direction:normal;animation-fill-mode:forwards;animation-play-state:paused;animation-name:animate;animation-timeline:auto;animation-range-start:normal;animation-range-end:normal;transform-origin:50px 50px;;animation:none"><path fill="#FFF7E9" d="M33.23,91.5h33.53c8.82,0,15.97-7.15,15.97-15.97V65.47c-9.1-7.68-19.9-12.32-32.74-12.32 s-23.64,4.64-32.74,12.32v10.06C17.26,84.35,24.41,91.5,33.23,91.5z" style="stroke-width:1px;fill:rgb(255, 247, 233);;animation:none"></path></g></g>
<g class="ldl-layer"><g class="ldl-ani" style="transform:matrix(1, 0, 0, 1, 0, 0);transform-box:view-box;animation-duration:1s;animation-timing-function:linear;animation-delay:-0.833333s;animation-iteration-count:infinite;animation-direction:normal;animation-fill-mode:forwards;animation-play-state:paused;animation-name:animate;animation-timeline:auto;animation-range-start:normal;animation-range-end:normal;transform-origin:50px 50px;;animation:none"><path fill="#D2D2D3" d="M82.74,66V24.62H17.26V66c9.1-7.68,19.9-12.32,32.74-12.32S73.64,58.31,82.74,66z" style="stroke-width:1px;fill:rgb(210, 210, 211);;animation:none"></path></g></g></g></g></g>
<g class="ldl-layer"><g class="ldl-ani"><g><g class="ldl-layer"><g class="ldl-ani" style="transform:matrix(1, 0, 0, 1, 0, 0);transform-box:view-box;animation-duration:1s;animation-timing-function:linear;animation-delay:-0.861111s;animation-iteration-count:infinite;animation-direction:normal;animation-fill-mode:forwards;animation-play-state:paused;animation-name:animate;animation-timeline:auto;animation-range-start:normal;animation-range-end:normal;transform-origin:50px 50px;;animation:none"><path fill="none" stroke="#000000" stroke-width="3.5" stroke-linecap="round" stroke-miterlimit="10" d="M34.64,64.56 c6.27,9.08,8.09,4.04,13.22,0.66c1.26-0.83,3.09-0.95,4.27,0c4.22,3.38,6.95,8.42,13.22-0.66" style="stroke-width:3.5px;fill:none;stroke:rgb(0, 0, 0);;animation:none"></path></g></g>
<g class="ldl-layer"><g class="ldl-ani" style="transform:matrix(1, 0, 0, 1, 0, 0);transform-box:view-box;animation-duration:1s;animation-timing-function:linear;animation-delay:-0.888889s;animation-iteration-count:infinite;animation-direction:normal;animation-fill-mode:forwards;animation-play-state:paused;animation-name:animate;animation-timeline:auto;animation-range-start:normal;animation-range-end:normal;transform-origin:50px 50px;;animation:none"><path d="M55.53,53.41c0,3.05-2.48,5.53-5.53,5.53s-5.53-2.48-5.53-5.53s2.48-3.28,5.53-3.28S55.53,50.35,55.53,53.41z" style="stroke-width:1px;;animation:none"></path></g></g></g></g></g>
<g class="ldl-layer"><g class="ldl-ani"><g><g class="ldl-layer"><g class="ldl-ani" style="transform:matrix(1, 0, 0, 1, 0, 0);transform-box:view-box;animation-duration:1s;animation-timing-function:linear;animation-delay:-0.916667s;animation-iteration-count:infinite;animation-direction:normal;animation-fill-mode:forwards;animation-play-state:paused;animation-name:animate;animation-timeline:auto;animation-range-start:normal;animation-range-end:normal;transform-origin:50px 50px;;animation:none"><path fill="#FFFFFF" d="M34.57,34v-0.82c0-1.09,0.88-1.97,1.97-1.97h3.03c1.09,0,1.97,0.88,1.97,1.97V34 c0,1.09-0.88,1.97-1.97,1.97h-3.03C35.46,35.97,34.57,35.09,34.57,34z" style="stroke-width:1px;fill:rgb(255, 255, 255);;animation:none"></path></g></g>
<g class="ldl-layer"><g class="ldl-ani" style="transform:matrix(1, 0, 0, 1, 0, 0);transform-box:view-box;animation-duration:1s;animation-timing-function:linear;animation-delay:-0.944444s;animation-iteration-count:infinite;animation-direction:normal;animation-fill-mode:forwards;animation-play-state:paused;animation-name:animate;animation-timeline:auto;animation-range-start:normal;animation-range-end:normal;transform-origin:50px 50px;;animation:none"><ellipse cx="34.73" cy="44.54" rx="4.46" ry="6.62" style="stroke-width:1px;;animation:none"></ellipse></g></g></g></g></g>
<g class="ldl-layer"><g class="ldl-ani"><g><g class="ldl-layer"><g class="ldl-ani" style="transform:matrix(1, 0, 0, 1, 0, 0);transform-box:view-box;animation-duration:1s;animation-timing-function:linear;animation-delay:-0.972222s;animation-iteration-count:infinite;animation-direction:normal;animation-fill-mode:forwards;animation-play-state:paused;animation-name:animate;animation-timeline:auto;animation-range-start:normal;animation-range-end:normal;transform-origin:50px 50px;;animation:none"><path fill="#FFFFFF" d="M65.43,34v-0.82c0-1.09-0.88-1.97-1.97-1.97h-3.03c-1.09,0-1.97,0.88-1.97,1.97V34 c0,1.09,0.88,1.97,1.97,1.97h3.03C64.54,35.97,65.43,35.09,65.43,34z" style="stroke-width:1px;fill:rgb(255, 255, 255);;animation:none"></path></g></g>
<g class="ldl-layer"><g class="ldl-ani" style="transform:matrix(1, 0, 0, 1, 0, 0);transform-box:view-box;animation-duration:1s;animation-timing-function:linear;animation-delay:-1s;animation-iteration-count:infinite;animation-direction:normal;animation-fill-mode:forwards;animation-play-state:paused;animation-name:animate;animation-timeline:auto;animation-range-start:normal;animation-range-end:normal;transform-origin:50px 50px;;animation:none"><ellipse cx="65.27" cy="44.54" rx="4.46" ry="6.62" style="stroke-width:1px;;animation:none"></ellipse></g></g></g></g></g>
<metadata xmlns:d="https://loading.io/stock/"></metadata></g></g>
<STYLE type="text/css">@keyframes animate { 0.00% {animation-timing-function: cubic-bezier(0.33,0.00,0.67,0.00);transform: translate(0.00px,0.00px) rotate(0.00deg) scale(1.00, 1.00) skew(0deg, 0.00deg) ;opacity: 1.00;}50.00% {animation-timing-function: cubic-bezier(0.33,0.00,0.67,0.00);transform: translate(0.00px,0.00px) rotate(0.00deg) ;}100.00% {animation-timing-function: cubic-bezier(0.33,0.00,0.67,0.00);transform: translate(0.00px,0.00px) rotate(0.00deg) ;} }</STYLE><!-- [ldio] generated by https://loading.io --></svg>