<svg version="1.1" id="圖層_1" xmlns="http://www.w3.org/2000/svg" xmlns:xlink="http://www.w3.org/1999/xlink" x="0px" y="0px" viewBox="0 0 100 100" xml:space="preserve" preserveAspectRatio="xMidYMid" width="200" height="200" style="margin-top:0px;margin-right:0px;margin-bottom:0px;margin-left:0px;display:block;shape-rendering:auto;background-position-x:0%;background-position-y:0%;background-size:auto;background-origin:padding-box;background-clip:border-box;width:200px;height:200px;;animation:none"><g class="ldl-scale" style="transform-origin:50px 50px;transform:matrix(0.8, 0, 0, 0.8, 0, 0);;animation:none"><g class="ldl-ani"><g class="ldl-layer"><g class="ldl-ani"><g><g class="ldl-layer"><g class="ldl-ani" style="transform:matrix(1, 0, 0, 1, 0, 0);transform-box:view-box;animation-duration:1s;animation-timing-function:linear;animation-delay:-0.541667s;animation-iteration-count:infinite;animation-direction:normal;animation-fill-mode:forwards;animation-play-state:paused;animation-name:animate;animation-timeline:auto;animation-range-start:normal;animation-range-end:normal;transform-origin:50px 50px;;animation:none"><path fill="#8C6239" d="M66.41,17.42c1.42-1.74,3.17-3.45,5.22-5c4.81-3.64,11.27-3.88,15.27-3.59c2.08,0.15,3.57,2.12,3.15,4.16 c-0.81,3.93-2.8,10.08-7.61,13.71c-2.05,1.55-4.17,2.77-6.24,3.66L66.41,17.42z" style="stroke-width:1px;fill:rgb(140, 98, 57);;animation:none"></path></g></g>
<g class="ldl-layer"><g class="ldl-ani" style="transform:matrix(1, 0, 0, 1, 0, 0);transform-box:view-box;animation-duration:1s;animation-timing-function:linear;animation-delay:-0.583333s;animation-iteration-count:infinite;animation-direction:normal;animation-fill-mode:forwards;animation-play-state:paused;animation-name:animate;animation-timeline:auto;animation-range-start:normal;animation-range-end:normal;transform-origin:50px 50px;;animation:none"><path fill="#FFFFFF" d="M68.03,19.56c0.95-1.17,2.13-2.31,3.5-3.35c2.62-1.98,5.97-2.46,8.58-2.46c2.33,0,4.01,2.22,3.37,4.46 c-0.71,2.5-2.09,5.6-4.71,7.58c-1.37,1.04-2.8,1.86-4.18,2.45L68.03,19.56z" style="stroke-width:1px;fill:rgb(255, 255, 255);;animation:none"></path></g></g></g></g></g>
<g class="ldl-layer"><g class="ldl-ani"><g><g class="ldl-layer"><g class="ldl-ani" style="transform:matrix(1, 0, 0, 1, 0, 0);transform-box:view-box;animation-duration:1s;animation-timing-function:linear;animation-delay:-0.625s;animation-iteration-count:infinite;animation-direction:normal;animation-fill-mode:forwards;animation-play-state:paused;animation-name:animate;animation-timeline:auto;animation-range-start:normal;animation-range-end:normal;transform-origin:50px 50px;;animation:none"><path fill="#8C6239" d="M33.59,17.42c-1.42-1.74-3.17-3.45-5.22-5c-4.81-3.64-11.27-3.88-15.27-3.59C11.01,8.99,9.53,10.96,9.95,13 c0.81,3.93,2.8,10.08,7.61,13.71c2.05,1.55,4.17,2.77,6.24,3.66L33.59,17.42z" style="stroke-width:1px;fill:rgb(140, 98, 57);;animation:none"></path></g></g>
<g class="ldl-layer"><g class="ldl-ani" style="transform:matrix(1, 0, 0, 1, 0, 0);transform-box:view-box;animation-duration:1s;animation-timing-function:linear;animation-delay:-0.666667s;animation-iteration-count:infinite;animation-direction:normal;animation-fill-mode:forwards;animation-play-state:paused;animation-name:animate;animation-timeline:auto;animation-range-start:normal;animation-range-end:normal;transform-origin:50px 50px;;animation:none"><path fill="#FFFFFF" d="M31.97,19.56c-0.95-1.17-2.13-2.31-3.5-3.35c-2.62-1.98-5.97-2.46-8.58-2.46c-2.33,0-4.01,2.22-3.37,4.46 c0.71,2.5,2.09,5.6,4.71,7.58c1.37,1.04,2.8,1.86,4.18,2.45L31.97,19.56z" style="stroke-width:1px;fill:rgb(255, 255, 255);;animation:none"></path></g></g></g></g></g>
<g class="ldl-layer"><g class="ldl-ani" style="transform:matrix(1, 0, 0, 1, 0, 0);transform-box:view-box;animation-duration:1s;animation-timing-function:linear;animation-delay:-0.708333s;animation-iteration-count:infinite;animation-direction:normal;animation-fill-mode:forwards;animation-play-state:paused;animation-name:animate;animation-timeline:auto;animation-range-start:normal;animation-range-end:normal;transform-origin:50px 50px;;animation:none"><path fill="#F4E6C8" d="M19,67.59v9.16c0,9.66,7.84,17.5,17.5,17.5H63.5c9.66,0,17.5-7.84,17.5-17.5v-9.16 C64.29,50.07,34.81,50.98,19,67.59z" style="stroke-width:1px;fill:rgb(244, 230, 200);;animation:none"></path></g></g>
<g class="ldl-layer"><g class="ldl-ani" style="transform:matrix(1, 0, 0, 1, 0, 0);transform-box:view-box;animation-duration:1s;animation-timing-function:linear;animation-delay:-0.75s;animation-iteration-count:infinite;animation-direction:normal;animation-fill-mode:forwards;animation-play-state:paused;animation-name:animate;animation-timeline:auto;animation-range-start:normal;animation-range-end:normal;transform-origin:50px 50px;;animation:none"><path fill="#A67C52" d="M77.51,23.67c-8.71-0.02-17.84-0.03-27.1-0.03c-9.26,0-18.66,0.01-27.92,0.03c-1.93,0-3.49,1.57-3.49,3.5 v40.42c15.81-16.61,45.28-17.52,61.99,0V27.17C81,25.24,79.44,23.68,77.51,23.67z" style="stroke-width:1px;fill:rgb(166, 124, 82);;animation:none"></path></g></g>
<g class="ldl-layer"><g class="ldl-ani"><g><g class="ldl-layer"><g class="ldl-ani" style="transform:matrix(1, 0, 0, 1, 0, 0);transform-box:view-box;animation-duration:1s;animation-timing-function:linear;animation-delay:-0.791667s;animation-iteration-count:infinite;animation-direction:normal;animation-fill-mode:forwards;animation-play-state:paused;animation-name:animate;animation-timeline:auto;animation-range-start:normal;animation-range-end:normal;transform-origin:50px 50px;;animation:none"><path d="M38.77,45c0.39,8.87-10.93,9.63-9.06-2.37C30.81,36.15,38.66,36.47,38.77,45z" style="stroke-width:1px;;animation:none"></path></g></g>
<g class="ldl-layer"><g class="ldl-ani" style="transform:matrix(1, 0, 0, 1, 0, 0);transform-box:view-box;animation-duration:1s;animation-timing-function:linear;animation-delay:-0.833333s;animation-iteration-count:infinite;animation-direction:normal;animation-fill-mode:forwards;animation-play-state:paused;animation-name:animate;animation-timeline:auto;animation-range-start:normal;animation-range-end:normal;transform-origin:50px 50px;;animation:none"><path d="M61.23,45c-0.39,8.87,10.93,9.63,9.06-2.37C69.19,36.15,61.34,36.47,61.23,45z" style="stroke-width:1px;;animation:none"></path></g></g></g></g></g>
<g class="ldl-layer"><g class="ldl-ani" style="transform:matrix(1, 0, 0, 1, 0, 0);transform-box:view-box;animation-duration:1s;animation-timing-function:linear;animation-delay:-0.875s;animation-iteration-count:infinite;animation-direction:normal;animation-fill-mode:forwards;animation-play-state:paused;animation-name:animate;animation-timeline:auto;animation-range-start:normal;animation-range-end:normal;transform-origin:50px 50px;;animation:none"><path fill="#603813" d="M68.43,16.21c0.39-0.91,0.61-1.91,0.61-2.96c0-4.13-3.35-7.48-7.48-7.48c-2.32,0-4.39,1.05-5.76,2.71 c-1.18-1.65-3.1-2.73-5.28-2.73c-2.24,0-4.22,1.14-5.38,2.87c-1.16-1.72-3.13-2.84-5.36-2.84c-3.57,0-6.46,2.89-6.46,6.46 c0,0.17,0.01,0.33,0.02,0.49c-2.58,0.83-4.45,3.25-4.45,6.11c0,2.84,1.85,5.25,4.41,6.09c-0.75,1.15-1.19,2.51-1.19,3.98 c0,4.03,3.27,7.3,7.3,7.3c1.09,0,2.13-0.25,3.06-0.68c1.83,1.05,3.94,1.66,6.21,1.66c3.27,0,6.24-1.27,8.47-3.33 c1.24,0.5,2.59,0.79,4.01,0.79c5.88,0,10.65-4.77,10.65-10.65C71.84,20.92,70.52,18.15,68.43,16.21z" style="stroke-width:1px;fill:rgb(96, 56, 19);;animation:none"></path></g></g>
<g class="ldl-layer"><g class="ldl-ani"><g><g class="ldl-layer"><g class="ldl-ani" style="transform:matrix(1, 0, 0, 1, 0, 0);transform-box:view-box;animation-duration:1s;animation-timing-function:linear;animation-delay:-0.916667s;animation-iteration-count:infinite;animation-direction:normal;animation-fill-mode:forwards;animation-play-state:paused;animation-name:animate;animation-timeline:auto;animation-range-start:normal;animation-range-end:normal;transform-origin:50px 50px;;animation:none"><circle cx="42.29" cy="72.23" r="4.5" style="stroke-width:1px;;animation:none"></circle></g></g>
<g class="ldl-layer"><g class="ldl-ani" style="transform:matrix(1, 0, 0, 1, 0, 0);transform-box:view-box;animation-duration:1s;animation-timing-function:linear;animation-delay:-0.958333s;animation-iteration-count:infinite;animation-direction:normal;animation-fill-mode:forwards;animation-play-state:paused;animation-name:animate;animation-timeline:auto;animation-range-start:normal;animation-range-end:normal;transform-origin:50px 50px;;animation:none"><circle cx="57.71" cy="72.23" r="4.5" style="stroke-width:1px;;animation:none"></circle></g></g></g></g></g>
<g class="ldl-layer"><g class="ldl-ani" style="transform:matrix(1, 0, 0, 1, 0, 0);transform-box:view-box;animation-duration:1s;animation-timing-function:linear;animation-delay:-1s;animation-iteration-count:infinite;animation-direction:normal;animation-fill-mode:forwards;animation-play-state:paused;animation-name:animate;animation-timeline:auto;animation-range-start:normal;animation-range-end:normal;transform-origin:50px 50px;;animation:none"><path fill="#603813" d="M40.99,33.36c-0.59,4.8,3.1,8.54,6.19,10.78c0.91,0.66,2.15-0.22,1.61-1.14c-0.87-1.48-1.47-2.76-1.84-3.89 c-0.33-1.03,1.23-1.64,1.92-0.75c1.63,2.12,3.55,3.95,5.82,5.42c0.92,0.6,2.12-0.24,1.6-1.14c-1.58-2.75-2.81-5.35-2.01-7.56" style="stroke-width:1px;fill:rgb(96, 56, 19);;animation:none"></path></g></g>
<metadata xmlns:d="https://loading.io/stock/"></metadata></g></g>
<STYLE type="text/css">@keyframes animate { 0.00% {animation-timing-function: cubic-bezier(0.33,0.00,0.67,0.00);transform: translate(0.00px,0.00px) rotate(0.00deg) scale(1.00, 1.00) skew(0deg, 0.00deg) ;opacity: 1.00;}50.00% {animation-timing-function: cubic-bezier(0.33,0.00,0.67,0.00);transform: translate(0.00px,0.00px) rotate(0.00deg) ;}100.00% {animation-timing-function: cubic-bezier(0.33,0.00,0.67,0.00);transform: translate(0.00px,0.00px) rotate(0.00deg) ;} }</STYLE><!-- [ldio] generated by https://loading.io --></svg>