<svg version="1.1" id="圖層_1" xmlns="http://www.w3.org/2000/svg" xmlns:xlink="http://www.w3.org/1999/xlink" x="0px" y="0px" viewBox="0 0 100 100" xml:space="preserve" preserveAspectRatio="xMidYMid" width="200" height="200" style="margin-top:0px;margin-right:0px;margin-bottom:0px;margin-left:0px;display:block;shape-rendering:auto;background-position-x:0%;background-position-y:0%;background-size:auto;background-origin:padding-box;background-clip:border-box;background:scroll rgb(255, 255, 255) none  repeat;width:200px;height:200px;;animation:none"><g class="ldl-scale" style="transform-origin:50px 50px;transform:matrix(0.8, 0, 0, 0.8, 0, 0);;animation:none"><g class="ldl-ani"><g class="ldl-layer"><g class="ldl-ani"><g><g class="ldl-layer"><g class="ldl-ani" style="transform:matrix(1, 0, 0, 1, 0, 0);transform-box:view-box;animation-duration:1s;animation-timing-function:linear;animation-delay:-0.5625s;animation-iteration-count:infinite;animation-direction:normal;animation-fill-mode:forwards;animation-play-state:paused;animation-name:animate;animation-timeline:auto;animation-range-start:normal;animation-range-end:normal;transform-origin:50px 50px;;animation:none"><path fill="#333435" d="M71.75,11.44H28.72c-7.64,0-13.83,6.61-13.83,14.77v32.93v11.6c0,10.17,7.72,18.42,17.24,18.42h36.2 c9.52,0,17.24-8.25,17.24-18.42v-11.6V26.22C85.58,18.06,79.39,11.44,71.75,11.44z" style="stroke-width:1px;fill:rgb(51, 52, 53);;animation:none"></path></g></g>
<g class="ldl-layer"><g class="ldl-ani" style="transform:matrix(1, 0, 0, 1, 0, 0);transform-box:view-box;animation-duration:1s;animation-timing-function:linear;animation-delay:-0.625s;animation-iteration-count:infinite;animation-direction:normal;animation-fill-mode:forwards;animation-play-state:paused;animation-name:animate;animation-timeline:auto;animation-range-start:normal;animation-range-end:normal;transform-origin:50px 50px;;animation:none"><path fill="#FFFFFF" d="M77.47,29.88c0-6.06-6.38-10.97-14.26-10.97c-5.92,0-11,2.78-13.16,6.73c-2.04-4.13-7.23-7.08-13.32-7.08 c-7.88,0-14.26,4.91-14.26,10.97c0,0.12,0.02,0.23,0.02,0.35c-0.01,0.12-0.02,0.23-0.02,0.35v18.36c0,5.8,4.7,10.5,10.5,10.5h34 c5.8,0,10.5-4.7,10.5-10.5V30.23c0-0.06-0.01-0.12-0.01-0.17C77.46,30,77.47,29.94,77.47,29.88z" style="stroke-width:1px;fill:rgb(255, 255, 255);;animation:none"></path></g></g>
<g class="ldl-layer"><g class="ldl-ani" style="transform:matrix(1, 0, 0, 1, 0, 0);transform-box:view-box;animation-duration:1s;animation-timing-function:linear;animation-delay:-0.6875s;animation-iteration-count:infinite;animation-direction:normal;animation-fill-mode:forwards;animation-play-state:paused;animation-name:animate;animation-timeline:auto;animation-range-start:normal;animation-range-end:normal;transform-origin:50px 50px;;animation:none"><path fill="#FFFFFF" d="M63,58H37c-5.8,0-10.5,4.7-10.5,10.5v19.64c1.77,0.65,3.66,1.02,5.63,1.02h36.21c1.8,0,3.53-0.3,5.17-0.84 V68.5C73.5,62.7,68.8,58,63,58z" style="stroke-width:1px;fill:rgb(255, 255, 255);;animation:none"></path></g></g></g></g></g>
<g class="ldl-layer"><g class="ldl-ani"><g><g class="ldl-layer"><g class="ldl-ani" style="transform:matrix(1, 0, 0, 1, 0, 0);transform-box:view-box;animation-duration:1s;animation-timing-function:linear;animation-delay:-0.75s;animation-iteration-count:infinite;animation-direction:normal;animation-fill-mode:forwards;animation-play-state:paused;animation-name:animate;animation-timeline:auto;animation-range-start:normal;animation-range-end:normal;transform-origin:50px 50px;;animation:none"><ellipse cx="36.95" cy="39.39" rx="5.91" ry="6.03" style="stroke-width:1px;;animation:none"></ellipse></g></g>
<g class="ldl-layer"><g class="ldl-ani" style="transform:matrix(1, 0, 0, 1, 0, 0);transform-box:view-box;animation-duration:1s;animation-timing-function:linear;animation-delay:-0.8125s;animation-iteration-count:infinite;animation-direction:normal;animation-fill-mode:forwards;animation-play-state:paused;animation-name:animate;animation-timeline:auto;animation-range-start:normal;animation-range-end:normal;transform-origin:50px 50px;;animation:none"><ellipse cx="62.99" cy="39.39" rx="5.91" ry="6.03" style="stroke-width:1px;;animation:none"></ellipse></g></g></g></g></g>
<g class="ldl-layer"><g class="ldl-ani" style="transform:matrix(1, 0, 0, 1, 0, 0);transform-box:view-box;animation-duration:1s;animation-timing-function:linear;animation-delay:-0.875s;animation-iteration-count:infinite;animation-direction:normal;animation-fill-mode:forwards;animation-play-state:paused;animation-name:animate;animation-timeline:auto;animation-range-start:normal;animation-range-end:normal;transform-origin:50px 50px;;animation:none"><path fill="#FFE100" d="M56.71,45.82c1.02,2.62-2.19,7.66-6.16,7.96c-4.5,0.34-8.36-5.52-7.36-8.16c0.9-2.37,5.75-2.31,6.76-2.3 C51.24,43.32,55.76,43.38,56.71,45.82z" style="stroke-width:1px;fill:rgb(255, 225, 0);;animation:none"></path></g></g>
<g class="ldl-layer"><g class="ldl-ani"><g><g class="ldl-layer"><g class="ldl-ani" style="transform:matrix(1, 0, 0, 1, 0, 0);transform-box:view-box;animation-duration:1s;animation-timing-function:linear;animation-delay:-0.9375s;animation-iteration-count:infinite;animation-direction:normal;animation-fill-mode:forwards;animation-play-state:paused;animation-name:animate;animation-timeline:auto;animation-range-start:normal;animation-range-end:normal;transform-origin:50px 50px;;animation:none"><path fill="#425A96" d="M11.19,88.74L11.19,88.74c5.48,0.66,10.45-3.24,11.11-8.72l1.05-8.7c0.66-5.48-3.24-10.45-8.72-11.11l0,0 L11.19,88.74z" style="stroke-width:1px;fill:rgb(66, 90, 150);;animation:none"></path></g></g>
<g class="ldl-layer"><g class="ldl-ani" style="transform:matrix(1, 0, 0, 1, 0, 0);transform-box:view-box;animation-duration:1s;animation-timing-function:linear;animation-delay:-1s;animation-iteration-count:infinite;animation-direction:normal;animation-fill-mode:forwards;animation-play-state:paused;animation-name:animate;animation-timeline:auto;animation-range-start:normal;animation-range-end:normal;transform-origin:50px 50px;;animation:none"><path fill="#425A96" d="M88.8,88.74L88.8,88.74c-5.48,0.66-10.45-3.24-11.11-8.72l-1.05-8.7c-0.66-5.48,3.24-10.45,8.72-11.11l0,0 L88.8,88.74z" style="stroke-width:1px;fill:rgb(66, 90, 150);;animation:none"></path></g></g></g></g></g>
<metadata xmlns:d="https://loading.io/stock/"></metadata></g></g>
<STYLE type="text/css">@keyframes animate { 0.00% {animation-timing-function: cubic-bezier(0.33,0.00,0.67,0.00);transform: translate(0.00px,0.00px) rotate(0.00deg) scale(1.00, 1.00) skew(0deg, 0.00deg) ;opacity: 1.00;}50.00% {animation-timing-function: cubic-bezier(0.33,0.00,0.67,0.00);transform: translate(0.00px,0.00px) rotate(0.00deg) ;}100.00% {animation-timing-function: cubic-bezier(0.33,0.00,0.67,0.00);transform: translate(0.00px,0.00px) rotate(0.00deg) ;} }</STYLE><!-- [ldio] generated by https://loading.io --></svg>